<svg width="1776" height="464" viewBox="0 0 1776 464" fill="none" xmlns="http://www.w3.org/2000/svg">
<path d="M178.667 33.6C175.467 36.2667 162.933 60.1333 127.2 131.467C101.2 183.467 80 227.2 80 228.667C80 231.067 80.9333 231.333 91.3333 231.333H102.8L105.2 225.6C106.533 222.533 112.4 210.133 118.267 198C124.133 185.867 141.067 150.4 156 118.933C170.933 87.6 183.6 62.4 184.133 62.9333C187.733 67.0667 229.333 144.533 229.067 146.667C228.8 148.8 227.867 149.2 224 148.933C221.467 148.667 210.667 148.4 200 148.267C184.133 148 179.733 148.4 175.6 150.267C172 151.867 170.533 153.333 170.933 154.933C171.333 156.933 173.733 157.6 185.333 158.8C211.333 161.733 228 169.733 246.8 188.533C256.8 198.533 268.667 214.667 276.267 228.533L278.533 232.8L296.267 232.4C312.933 232 314 231.867 314.4 229.333C314.933 225.733 208 38.5333 202.667 33.6C199.2 30.5333 197.467 30 190.8 30C184.133 30 182.133 30.5333 178.667 33.6Z" fill="white"/>
<path d="M993.067 38L977.333 46V119.333C977.333 189.2 977.467 192.933 980 199.6C983.867 209.733 991.467 219.2 1001.07 225.6C1013.87 234.133 1016.53 234.667 1052 234.667H1083.33V226.667L1064.67 225.867C1039.73 224.8 1029.2 221.733 1021.07 213.067C1013.87 205.467 1014 207.6 1013.33 116C1012.8 41.6 1012.4 30.6667 1010.67 30.4C1009.6 30.2667 1001.6 33.7333 993.067 38Z" fill="white"/>
<path d="M406 91.8667C373.2 98.2667 351.867 114.933 344 140.533C340.4 151.867 340.133 171.867 343.333 182.933C352.8 215.6 386.4 235.333 432.4 235.333C444.8 235.333 464.533 232.133 474 228.533C485.733 224.133 485.2 222.4 485.6 269.867C486 309.6 486.133 310.667 488.667 310.933C490.133 311.067 498.267 307.733 506.667 303.6L522 296L522.4 224.933C522.667 158.533 522.533 153.2 520.133 143.867C513.867 119.2 495.6 102.4 466.4 93.8667C453.867 90.2667 420.133 89.0667 406 91.8667ZM446.667 100.133C470.933 107.333 483.333 128.8 483.2 163.333C483.2 180.533 481.067 189.733 474.267 202.4C464.8 220.4 444 230 423.2 226.133C403.467 222.533 390.267 210.533 383.2 190C379.467 179.2 379.6 146 383.333 134.667C388.667 118.133 401.6 104.533 415.867 100.133C424.133 97.4667 438 97.6 446.667 100.133Z" fill="white"/>
<path d="M827.333 90.9333C780.4 98.4 753.6 131.2 760 173.467C764.4 203.333 786 224.933 818.667 232.267C834.267 235.867 864 235.467 879.2 231.467L890.933 228.4L899.6 236.8L935.333 236V190.667C935.333 146.8 935.2 145.067 932.267 137.333C924.133 115.733 907.467 101.467 880.933 93.8667C873.6 91.7333 866.667 90.9333 851.333 90.6667C840.4 90.4 829.6 90.5333 827.333 90.9333ZM866.933 102.4C885.733 111.6 895.867 132.4 896 162.133C896 192.533 886.267 212.8 866.933 222.267C859.067 226.133 856.8 226.667 847.333 226.667C832.933 226.533 824.533 223.467 815.333 215.2C804.133 204.8 798.133 190.4 796.533 169.333C795.067 150.4 799.2 131.867 807.867 118.4C816.933 104.4 830.667 97.6 848.8 98.4C857.2 98.8 861.2 99.6 866.933 102.4Z" fill="white"/>
<path d="M1578 91.3333C1555.73 94.8 1536.67 104 1524.13 117.333C1512.27 130.133 1506.67 144.667 1506.67 162.267C1506.67 196.533 1528.13 222 1566.27 232.933C1574.8 235.467 1580 236 1595.33 236C1612.27 236 1615.07 235.6 1625.47 232.267C1638.13 228.133 1649.73 221.333 1650.4 217.6C1651.07 214.4 1648.53 214.667 1636.4 218.933C1627.33 222.133 1623.87 222.533 1610 222.667C1595.2 222.667 1593.47 222.4 1586.53 218.933C1578.13 214.8 1568.4 205.2 1564 196.8C1551.33 171.733 1554.53 136.667 1571.47 115.733C1574.4 112.133 1579.33 108.533 1585.07 105.733C1593.33 101.6 1594.93 101.333 1607.33 101.333C1618.4 101.333 1621.73 101.867 1627.33 104.4C1640.13 110.267 1648.67 121.2 1653.33 138.133C1656.27 149.067 1655.87 152.667 1651.6 152.667C1650 152.8 1638.4 152.667 1626 152.667C1607.87 152.533 1602.8 152.933 1600.67 154.533C1598.53 156.133 1598.27 156.933 1599.47 158.933C1600.8 161.2 1604 161.333 1648.13 161.333H1695.33L1695.73 156C1696.4 148.667 1693.73 137.467 1689.2 128.4C1681.07 112.133 1663.87 99.8667 1640.67 93.8667C1628.53 90.6667 1592 89.2 1578 91.3333Z" fill="white"/>
<path d="M567.6 93.6C567.067 94 566.667 115.333 566.667 140.8C566.667 181.867 566.933 188 569.067 194.933C574.667 212.933 586.267 224.4 604 229.733C631.2 238 672.4 236.533 694.667 226.533C708.4 220.4 719.2 206 722.667 189.333C723.467 185.333 723.867 165.067 723.733 138L723.333 93.3333L706.133 92.9333C693.2 92.6667 688.667 93.0667 687.733 94.2667C687.2 95.2 686.667 117.333 686.667 143.333C686.667 181.467 686.267 192.4 684.667 198.667C681.733 210.133 676.8 216.533 667.6 221.2C660.667 224.667 658.4 225.067 646.933 225.2C639.6 225.333 631.333 224.533 627.733 223.467C619.333 221.067 611.733 214.267 607.867 205.733C604.667 198.667 604.667 198.267 604.267 147.333C604 113.333 603.333 95.6 602.4 94.4C601.467 93.2 596.4 92.6667 584.667 92.6667C575.733 92.6667 568 93.0667 567.6 93.6Z" fill="white"/>
<path d="M1106.93 94.2667C1104.93 96.2667 1104.67 168.933 1106.67 184.267C1110.13 210.267 1125.33 226.267 1152.4 232.267C1166 235.333 1203.73 235.333 1217.33 232.267C1242.67 226.533 1256.8 213.467 1262 190.8C1263.6 183.733 1264 173.467 1263.73 137.733L1263.33 93.3333H1227.33L1226.53 143.333C1226.13 173.2 1225.33 194.933 1224.4 197.333C1221.47 205.733 1217.2 212.667 1212.93 215.867C1202 224.267 1176.13 225.6 1161.87 218.667C1153.73 214.667 1150.27 210.533 1146.27 199.6C1143.6 192.533 1143.33 188.667 1142.67 142.667L1142 93.3333L1125.33 92.9333C1113.47 92.6667 1108.13 93.0667 1106.93 94.2667Z" fill="white"/>
<path d="M1312.4 94.9333C1311.73 96.6667 1318.8 104.133 1341.2 126C1360.53 144.667 1370.8 155.467 1370.53 156.933C1370.27 158.133 1355.87 174 1338.53 192.267C1321.33 210.4 1306.67 226.133 1306.13 227.067C1305.6 228 1305.87 229.6 1306.67 230.667C1308 232.267 1312.67 232.667 1330.67 232.667H1352.93L1362 222.933C1385.2 198.533 1399.2 184.667 1400.8 184.667C1401.87 184.667 1413.87 195.467 1427.6 208.667L1452.67 232.667H1462.8C1473.33 232.667 1477.47 230.8 1475.07 227.067C1474.53 226.133 1460.93 212.8 1444.93 197.467C1428.93 182.133 1416 168.8 1416.27 167.733C1416.53 166.8 1431.07 150.933 1448.67 132.4C1469.6 110.533 1480.67 98 1480.67 96.1333C1480.67 93.4667 1480 93.3333 1456.67 93.0667L1432.67 92.6667L1410.27 116.667C1398 129.867 1387.2 140.667 1386.27 140.667C1385.33 140.667 1373.33 129.867 1359.33 116.667L1334 92.8L1323.6 92.6667C1315.07 92.6667 1313.07 93.0667 1312.4 94.9333Z" fill="white"/>
<path d="M438.595 407.937L437.505 334.362H451.621L451.021 398.127H451.185L476.255 334.362H493.858L496.474 398.127H496.638L518.71 334.362H533.316L506.012 407.937H485.574L483.776 343.518H483.612L458.924 407.937H438.595ZM556.569 408.537C552.1 408.537 548.303 408.01 545.178 406.956C542.09 405.866 539.837 403.959 538.42 401.234C537.003 398.509 536.549 394.657 537.058 389.68C537.349 386.373 538.057 383.558 539.183 381.232C540.31 378.907 541.745 376.999 543.489 375.51C545.233 374.02 547.177 372.857 549.32 372.022C551.5 371.15 553.771 370.55 556.133 370.223C558.531 369.896 560.911 369.733 563.272 369.733H584.2L584.745 366.408C585.363 362.884 585.254 360.032 584.418 357.852C583.619 355.672 582.184 354.109 580.113 353.165C578.078 352.184 575.517 351.693 572.428 351.693C569.812 351.693 567.378 352.129 565.125 353.001C562.873 353.873 560.856 355.308 559.076 357.307C557.332 359.305 555.915 361.957 554.825 365.264L542.508 361.776C543.78 358.288 545.451 355.327 547.522 352.892C549.593 350.458 551.973 348.496 554.661 347.006C557.386 345.517 560.348 344.427 563.545 343.736C566.742 343.046 570.103 342.701 573.627 342.701C579.695 342.701 584.709 343.518 588.669 345.153C592.666 346.788 595.464 349.386 597.062 352.947C598.661 356.471 598.934 361.176 597.88 367.062L590.686 407.937H579.677L579.949 399.98C579.295 400.925 578.278 401.888 576.897 402.869C575.553 403.85 573.864 404.776 571.829 405.648C569.831 406.52 567.542 407.229 564.962 407.774C562.419 408.282 559.621 408.537 556.569 408.537ZM560.874 399.98C563.963 399.98 566.779 399.617 569.322 398.89C571.865 398.127 574.063 397.164 575.916 396.002C577.769 394.803 579.15 393.567 580.058 392.296L582.729 377.036H565.071C563.291 377.036 561.583 377.199 559.948 377.526C558.313 377.817 556.823 378.38 555.479 379.216C554.135 380.015 553.026 381.196 552.154 382.758C551.282 384.284 550.737 386.264 550.519 388.699C550.229 391.751 550.465 394.094 551.228 395.729C551.991 397.364 553.208 398.491 554.879 399.108C556.551 399.69 558.549 399.98 560.874 399.98ZM637.612 408.7C632.562 408.7 628.511 407.61 625.459 405.43C622.443 403.214 621.444 399.181 622.461 393.331L629.71 352.511H614.668L616.303 343.355H631.29L633.852 328.694H647.041L644.479 343.355H665.353L663.718 352.511H642.844L636.141 390.334C635.487 394.149 635.832 396.674 637.176 397.909C638.52 399.145 640.628 399.762 643.498 399.762C646.187 399.762 648.894 399.326 651.619 398.454L650.038 407.283C646.005 408.228 641.863 408.7 637.612 408.7ZM697.969 408.482C687.323 408.482 680.275 405.557 676.823 399.708C673.335 393.858 672.445 385.792 674.153 375.51C676.006 364.755 679.748 356.598 685.38 351.039C691.048 345.48 699.059 342.701 709.414 342.701C720.06 342.701 727.108 345.48 730.56 351.039C733.975 356.671 734.757 364.791 732.904 375.401C732.649 376.89 732.34 378.253 731.977 379.488H684.944L686.361 371.422H720.205C721.186 364.192 720.768 359.105 718.952 356.162C716.663 352.929 712.975 351.312 707.888 351.312C702.91 351.312 698.569 353.019 694.863 356.435C691.157 359.85 688.522 366.227 686.96 375.564C685.434 384.43 685.852 390.679 688.214 394.312C690.503 398.018 694.263 399.871 699.495 399.871L697.969 408.482ZM699.495 399.871C702.547 399.871 705.272 399.399 707.67 398.454C709.995 397.473 711.976 395.838 713.611 393.549C715.209 391.224 716.59 388.608 717.753 385.701L729.034 388.971C727.581 393.331 725.419 396.983 722.549 399.926C719.642 402.905 716.281 405.067 712.466 406.411C708.578 407.792 703.746 408.482 697.969 408.482L699.495 399.871ZM789.82 373.929C791.346 365.282 791.364 359.469 789.874 356.489C788.384 353.474 785.678 351.966 781.754 351.966C777.321 351.966 773.56 353.474 770.472 356.489C767.42 359.469 765.549 362.848 764.859 366.626L760.281 363.247C761.298 357.543 764.35 352.711 769.437 348.75C774.56 344.754 780.809 342.755 788.185 342.755C795.887 342.755 800.756 345.262 802.791 350.276C804.825 355.254 804.898 363.138 803.009 373.929H789.82ZM744.476 407.937L755.866 343.355H766.112L766.875 355.454L757.61 407.937H744.476ZM851.385 407.937L866.536 322.372H879.725L864.574 407.937H851.385ZM892.805 407.937L899.181 371.858C900.489 364.446 900.308 359.269 898.636 356.326C897.001 353.383 894.04 351.911 889.753 351.911C885.393 351.911 881.451 353.546 877.926 356.816C874.438 360.086 872.258 364.246 871.386 369.297L865.609 365.645C866.554 360.232 869.897 355.072 875.637 350.167C881.414 345.226 888.245 342.755 896.129 342.755C903.868 342.755 908.901 345.28 911.226 350.331C913.588 355.381 913.987 362.375 912.425 371.313L905.939 407.937H892.805ZM953.727 408.482C943.082 408.482 936.033 405.557 932.581 399.708C929.093 393.858 928.203 385.792 929.911 375.51C931.764 364.755 935.506 356.598 941.138 351.039C946.806 345.48 954.817 342.701 965.172 342.701C975.818 342.701 982.867 345.48 986.318 351.039C989.734 356.671 990.515 364.791 988.662 375.401C988.408 376.89 988.099 378.253 987.735 379.488H940.702L942.119 371.422H975.963C976.944 364.192 976.527 359.105 974.71 356.162C972.421 352.929 968.733 351.312 963.646 351.312C958.669 351.312 954.327 353.019 950.621 356.435C946.915 359.85 944.281 366.227 942.718 375.564C941.192 384.43 941.61 390.679 943.972 394.312C946.261 398.018 950.021 399.871 955.253 399.871L953.727 408.482ZM955.253 399.871C958.305 399.871 961.03 399.399 963.428 398.454C965.754 397.473 967.734 395.838 969.369 393.549C970.968 391.224 972.348 388.608 973.511 385.701L984.792 388.971C983.339 393.331 981.177 396.983 978.307 399.926C975.4 402.905 972.039 405.067 968.224 406.411C964.337 407.792 959.504 408.482 953.727 408.482L955.253 399.871ZM1021.82 408.537C1017.35 408.537 1013.55 408.01 1010.43 406.956C1007.34 405.866 1005.08 403.959 1003.67 401.234C1002.25 398.509 1001.8 394.657 1002.3 389.68C1002.6 386.373 1003.3 383.558 1004.43 381.232C1005.56 378.907 1006.99 376.999 1008.74 375.51C1010.48 374.02 1012.42 372.857 1014.57 372.022C1016.75 371.15 1019.02 370.55 1021.38 370.223C1023.78 369.896 1026.16 369.733 1028.52 369.733H1049.45L1049.99 366.408C1050.61 362.884 1050.5 360.032 1049.67 357.852C1048.87 355.672 1047.43 354.109 1045.36 353.165C1043.33 352.184 1040.76 351.693 1037.68 351.693C1035.06 351.693 1032.62 352.129 1030.37 353.001C1028.12 353.873 1026.1 355.308 1024.32 357.307C1022.58 359.305 1021.16 361.957 1020.07 365.264L1007.75 361.776C1009.03 358.288 1010.7 355.327 1012.77 352.892C1014.84 350.458 1017.22 348.496 1019.91 347.006C1022.63 345.517 1025.59 344.427 1028.79 343.736C1031.99 343.046 1035.35 342.701 1038.87 342.701C1044.94 342.701 1049.96 343.518 1053.92 345.153C1057.91 346.788 1060.71 349.386 1062.31 352.947C1063.91 356.471 1064.18 361.176 1063.13 367.062L1055.93 407.937H1044.92L1045.2 399.98C1044.54 400.925 1043.52 401.888 1042.14 402.869C1040.8 403.85 1039.11 404.776 1037.08 405.648C1035.08 406.52 1032.79 407.229 1030.21 407.774C1027.67 408.282 1024.87 408.537 1021.82 408.537ZM1026.12 399.98C1029.21 399.98 1032.03 399.617 1034.57 398.89C1037.11 398.127 1039.31 397.164 1041.16 396.002C1043.02 394.803 1044.4 393.567 1045.31 392.296L1047.98 377.036H1030.32C1028.54 377.036 1026.83 377.199 1025.19 377.526C1023.56 377.817 1022.07 378.38 1020.73 379.216C1019.38 380.015 1018.27 381.196 1017.4 382.758C1016.53 384.284 1015.98 386.264 1015.77 388.699C1015.48 391.751 1015.71 394.094 1016.47 395.729C1017.24 397.364 1018.45 398.491 1020.13 399.108C1021.8 399.69 1023.8 399.98 1026.12 399.98ZM1102.86 408.7C1097.81 408.7 1093.76 407.61 1090.71 405.43C1087.69 403.214 1086.69 399.181 1087.71 393.331L1094.96 352.511H1079.91L1081.55 343.355H1096.54L1099.1 328.694H1112.29L1109.73 343.355H1130.6L1128.96 352.511H1108.09L1101.39 390.334C1100.73 394.149 1101.08 396.674 1102.42 397.909C1103.77 399.145 1105.87 399.762 1108.74 399.762C1111.43 399.762 1114.14 399.326 1116.87 398.454L1115.28 407.283C1111.25 408.228 1107.11 408.7 1102.86 408.7ZM1163.22 408.482C1152.57 408.482 1145.52 405.557 1142.07 399.708C1138.58 393.858 1137.69 385.792 1139.4 375.51C1141.25 364.755 1144.99 356.598 1150.63 351.039C1156.29 345.48 1164.31 342.701 1174.66 342.701C1185.31 342.701 1192.36 345.48 1195.81 351.039C1199.22 356.671 1200 364.791 1198.15 375.401C1197.9 376.89 1197.59 378.253 1197.22 379.488H1150.19L1151.61 371.422H1185.45C1186.43 364.192 1186.02 359.105 1184.2 356.162C1181.91 352.929 1178.22 351.312 1173.14 351.312C1168.16 351.312 1163.82 353.019 1160.11 356.435C1156.4 359.85 1153.77 366.227 1152.21 375.564C1150.68 384.43 1151.1 390.679 1153.46 394.312C1155.75 398.018 1159.51 399.871 1164.74 399.871L1163.22 408.482ZM1164.74 399.871C1167.79 399.871 1170.52 399.399 1172.92 398.454C1175.24 397.473 1177.22 395.838 1178.86 393.549C1180.46 391.224 1181.84 388.608 1183 385.701L1194.28 388.971C1192.83 393.331 1190.67 396.983 1187.8 399.926C1184.89 402.905 1181.53 405.067 1177.71 406.411C1173.83 407.792 1168.99 408.482 1163.22 408.482L1164.74 399.871ZM1255.07 373.929C1256.59 365.282 1256.61 359.469 1255.12 356.489C1253.63 353.474 1250.92 351.966 1247 351.966C1242.57 351.966 1238.81 353.474 1235.72 356.489C1232.67 359.469 1230.8 362.848 1230.11 366.626L1225.53 363.247C1226.54 357.543 1229.6 352.711 1234.68 348.75C1239.81 344.754 1246.06 342.755 1253.43 342.755C1261.13 342.755 1266 345.262 1268.04 350.276C1270.07 355.254 1270.14 363.138 1268.26 373.929H1255.07ZM1209.72 407.937L1221.11 343.355H1231.36L1232.12 355.454L1222.86 407.937H1209.72ZM1309.44 408.428C1301.45 408.428 1295.15 407.065 1290.53 404.34C1285.92 401.579 1283.52 396.728 1283.34 389.789L1295.65 385.701C1295.55 390.643 1296.78 394.203 1299.36 396.383C1301.94 398.563 1305.77 399.653 1310.86 399.653C1315.66 399.653 1319.4 398.836 1322.09 397.201C1324.81 395.529 1326.34 393.404 1326.66 390.824C1327.21 387.227 1325.83 384.811 1322.52 383.576C1319.25 382.34 1314.57 381.087 1308.46 379.815C1301.52 378.507 1296.33 376.509 1292.87 373.82C1289.42 371.132 1288.15 366.644 1289.06 360.359C1289.82 354.509 1292.95 350.113 1298.43 347.17C1303.96 344.227 1310.75 342.755 1318.82 342.755C1326.92 342.755 1333.17 344.136 1337.56 346.897C1342 349.659 1344.23 354.291 1344.27 360.795L1331.95 364.828C1332.02 360.504 1330.81 357.216 1328.3 354.963C1325.79 352.674 1322.12 351.53 1317.29 351.53C1312.68 351.53 1309.06 352.347 1306.45 353.982C1303.83 355.617 1302.36 357.779 1302.03 360.468C1301.52 363.847 1302.85 366.172 1306.01 367.444C1309.17 368.679 1313.64 369.805 1319.42 370.823C1326.86 372.203 1332.35 374.202 1335.88 376.818C1339.4 379.397 1340.71 383.848 1339.8 390.17C1338.96 396.274 1335.69 400.852 1329.99 403.904C1324.32 406.92 1317.47 408.428 1309.44 408.428Z" fill="white"/>
</svg>
