<svg width="1636" height="341" viewBox="0 0 1636 409" fill="none" xmlns="http://www.w3.org/2000/svg">
<path d="M108.667 13.6C105.467 16.2667 92.9333 40.1333 57.2 111.467C31.2 163.467 10 207.2 10 208.667C10 211.067 10.9333 211.333 21.3333 211.333H32.8L35.2 205.6C36.5333 202.533 42.4 190.133 48.2667 178C54.1333 165.867 71.0667 130.4 86 98.9333C100.933 67.6 113.6 42.4 114.133 42.9333C117.733 47.0667 159.333 124.533 159.067 126.667C158.8 128.8 157.867 129.2 154 128.933C151.467 128.667 140.667 128.4 130 128.267C114.133 128 109.733 128.4 105.6 130.267C102 131.867 100.533 133.333 100.933 134.933C101.333 136.933 103.733 137.6 115.333 138.8C141.333 141.733 158 149.733 176.8 168.533C186.8 178.533 198.667 194.667 206.267 208.533L208.533 212.8L226.267 212.4C242.933 212 244 211.867 244.4 209.333C244.933 205.733 138 18.5333 132.667 13.6C129.2 10.5333 127.467 10 120.8 10C114.133 10 112.133 10.5333 108.667 13.6Z" fill="white"/>
<path d="M923.067 18L907.333 26V99.3333C907.333 169.2 907.467 172.933 910 179.6C913.867 189.733 921.467 199.2 931.067 205.6C943.867 214.133 946.533 214.667 982 214.667H1013.33V206.667L994.667 205.867C969.733 204.8 959.2 201.733 951.067 193.067C943.867 185.467 944 187.6 943.333 96C942.8 21.6 942.4 10.6667 940.667 10.4C939.6 10.2667 931.6 13.7333 923.067 18Z" fill="white"/>
<path d="M336 71.8667C303.2 78.2667 281.867 94.9333 274 120.533C270.4 131.867 270.133 151.867 273.333 162.933C282.8 195.6 316.4 215.333 362.4 215.333C374.8 215.333 394.533 212.133 404 208.533C415.733 204.133 415.2 202.4 415.6 249.867C416 289.6 416.133 290.667 418.667 290.933C420.133 291.067 428.267 287.733 436.667 283.6L452 276L452.4 204.933C452.667 138.533 452.533 133.2 450.133 123.867C443.867 99.2 425.6 82.4 396.4 73.8667C383.867 70.2667 350.133 69.0667 336 71.8667ZM376.667 80.1333C400.933 87.3333 413.333 108.8 413.2 143.333C413.2 160.533 411.067 169.733 404.267 182.4C394.8 200.4 374 210 353.2 206.133C333.467 202.533 320.267 190.533 313.2 170C309.467 159.2 309.6 126 313.333 114.667C318.667 98.1333 331.6 84.5333 345.867 80.1333C354.133 77.4667 368 77.6 376.667 80.1333Z" fill="white"/>
<path d="M757.333 70.9333C710.4 78.4 683.6 111.2 690 153.467C694.4 183.333 716 204.933 748.667 212.267C764.267 215.867 794 215.467 809.2 211.467L820.933 208.4L829.6 216.8L865.333 216V170.667C865.333 126.8 865.2 125.067 862.267 117.333C854.133 95.7333 837.467 81.4667 810.933 73.8667C803.6 71.7333 796.667 70.9333 781.333 70.6667C770.4 70.4 759.6 70.5333 757.333 70.9333ZM796.933 82.4C815.733 91.6 825.867 112.4 826 142.133C826 172.533 816.267 192.8 796.933 202.267C789.067 206.133 786.8 206.667 777.333 206.667C762.933 206.533 754.533 203.467 745.333 195.2C734.133 184.8 728.133 170.4 726.533 149.333C725.067 130.4 729.2 111.867 737.867 98.4C746.933 84.4 760.667 77.6 778.8 78.4C787.2 78.8 791.2 79.6 796.933 82.4Z" fill="white"/>
<path d="M1508 71.3333C1485.73 74.8 1466.67 84 1454.13 97.3333C1442.27 110.133 1436.67 124.667 1436.67 142.267C1436.67 176.533 1458.13 202 1496.27 212.933C1504.8 215.467 1510 216 1525.33 216C1542.27 216 1545.07 215.6 1555.47 212.267C1568.13 208.133 1579.73 201.333 1580.4 197.6C1581.07 194.4 1578.53 194.667 1566.4 198.933C1557.33 202.133 1553.87 202.533 1540 202.667C1525.2 202.667 1523.47 202.4 1516.53 198.933C1508.13 194.8 1498.4 185.2 1494 176.8C1481.33 151.733 1484.53 116.667 1501.47 95.7333C1504.4 92.1333 1509.33 88.5333 1515.07 85.7333C1523.33 81.6 1524.93 81.3333 1537.33 81.3333C1548.4 81.3333 1551.73 81.8667 1557.33 84.4C1570.13 90.2667 1578.67 101.2 1583.33 118.133C1586.27 129.067 1585.87 132.667 1581.6 132.667C1580 132.8 1568.4 132.667 1556 132.667C1537.87 132.533 1532.8 132.933 1530.67 134.533C1528.53 136.133 1528.27 136.933 1529.47 138.933C1530.8 141.2 1534 141.333 1578.13 141.333H1625.33L1625.73 136C1626.4 128.667 1623.73 117.467 1619.2 108.4C1611.07 92.1333 1593.87 79.8667 1570.67 73.8667C1558.53 70.6667 1522 69.2 1508 71.3333Z" fill="white"/>
<path d="M497.6 73.6C497.067 74 496.667 95.3333 496.667 120.8C496.667 161.867 496.933 168 499.067 174.933C504.667 192.933 516.267 204.4 534 209.733C561.2 218 602.4 216.533 624.667 206.533C638.4 200.4 649.2 186 652.667 169.333C653.467 165.333 653.867 145.067 653.733 118L653.333 73.3333L636.133 72.9333C623.2 72.6667 618.667 73.0667 617.733 74.2667C617.2 75.2 616.667 97.3333 616.667 123.333C616.667 161.467 616.267 172.4 614.667 178.667C611.733 190.133 606.8 196.533 597.6 201.2C590.667 204.667 588.4 205.067 576.933 205.2C569.6 205.333 561.333 204.533 557.733 203.467C549.333 201.067 541.733 194.267 537.867 185.733C534.667 178.667 534.667 178.267 534.267 127.333C534 93.3333 533.333 75.6 532.4 74.4C531.467 73.2 526.4 72.6667 514.667 72.6667C505.733 72.6667 498 73.0667 497.6 73.6Z" fill="white"/>
<path d="M1036.93 74.2667C1034.93 76.2667 1034.67 148.933 1036.67 164.267C1040.13 190.267 1055.33 206.267 1082.4 212.267C1096 215.333 1133.73 215.333 1147.33 212.267C1172.67 206.533 1186.8 193.467 1192 170.8C1193.6 163.733 1194 153.467 1193.73 117.733L1193.33 73.3333H1157.33L1156.53 123.333C1156.13 153.2 1155.33 174.933 1154.4 177.333C1151.47 185.733 1147.2 192.667 1142.93 195.867C1132 204.267 1106.13 205.6 1091.87 198.667C1083.73 194.667 1080.27 190.533 1076.27 179.6C1073.6 172.533 1073.33 168.667 1072.67 122.667L1072 73.3333L1055.33 72.9333C1043.47 72.6667 1038.13 73.0667 1036.93 74.2667Z" fill="white"/>
<path d="M1242.4 74.9333C1241.73 76.6667 1248.8 84.1333 1271.2 106C1290.53 124.667 1300.8 135.467 1300.53 136.933C1300.27 138.133 1285.87 154 1268.53 172.267C1251.33 190.4 1236.67 206.133 1236.13 207.067C1235.6 208 1235.87 209.6 1236.67 210.667C1238 212.267 1242.67 212.667 1260.67 212.667H1282.93L1292 202.933C1315.2 178.533 1329.2 164.667 1330.8 164.667C1331.87 164.667 1343.87 175.467 1357.6 188.667L1382.67 212.667H1392.8C1403.33 212.667 1407.47 210.8 1405.07 207.067C1404.53 206.133 1390.93 192.8 1374.93 177.467C1358.93 162.133 1346 148.8 1346.27 147.733C1346.53 146.8 1361.07 130.933 1378.67 112.4C1399.6 90.5333 1410.67 78 1410.67 76.1333C1410.67 73.4667 1410 73.3333 1386.67 73.0667L1362.67 72.6667L1340.27 96.6667C1328 109.867 1317.2 120.667 1316.27 120.667C1315.33 120.667 1303.33 109.867 1289.33 96.6667L1264 72.8L1253.6 72.6667C1245.07 72.6667 1243.07 73.0667 1242.4 74.9333Z" fill="white"/>
<path d="M371.254 375.937L385.448 308.821H402.838C406.974 308.821 410.515 309.385 413.46 310.513C416.468 311.579 418.756 313.239 420.322 315.495C421.952 317.751 422.766 320.665 422.766 324.237C422.766 327.308 422.14 330.003 420.886 332.321C419.633 334.577 417.878 336.457 415.622 337.961C413.366 339.403 410.703 340.405 407.632 340.969V341.439C410.703 342.254 413.272 343.789 415.34 346.045C417.408 348.301 418.442 351.309 418.442 355.069C418.442 359.644 417.314 363.498 415.058 366.631C412.865 369.702 409.826 372.021 405.94 373.587C402.118 375.154 397.7 375.937 392.686 375.937H371.254ZM392.968 368.793C396.54 368.793 399.548 368.261 401.992 367.195C404.499 366.13 406.379 364.563 407.632 362.495C408.948 360.427 409.606 357.952 409.606 355.069C409.606 352.061 408.635 349.523 406.692 347.455C404.75 345.387 401.46 344.353 396.822 344.353H386.294L381.124 368.793H392.968ZM398.796 337.397C401.616 337.397 404.154 336.959 406.41 336.081C408.729 335.204 410.578 333.888 411.956 332.133C413.335 330.316 414.024 328.029 414.024 325.271C414.024 322.326 413.084 320.07 411.204 318.503C409.324 316.874 406.191 316.059 401.804 316.059H392.31L387.798 337.397H398.796Z" fill="white"/>
<path d="M453.656 376.689C449.77 376.689 446.418 375.906 443.598 374.339C440.778 372.773 438.616 370.548 437.112 367.665C435.608 364.72 434.856 361.273 434.856 357.325C434.856 354.255 435.2 351.184 435.89 348.113C436.579 344.98 437.582 342.035 438.898 339.277C440.276 336.52 441.968 334.076 443.974 331.945C445.979 329.752 448.329 328.029 451.024 326.775C453.718 325.522 456.726 324.895 460.048 324.895C463.996 324.895 467.348 325.679 470.106 327.245C472.926 328.812 475.088 331.068 476.592 334.013C478.096 336.896 478.848 340.343 478.848 344.353C478.848 347.424 478.503 350.495 477.814 353.565C477.124 356.636 476.09 359.581 474.712 362.401C473.396 365.159 471.735 367.603 469.73 369.733C467.724 371.864 465.374 373.556 462.68 374.809C459.985 376.063 456.977 376.689 453.656 376.689ZM454.126 369.827C455.943 369.827 457.635 369.451 459.202 368.699C460.831 367.947 462.335 366.851 463.714 365.409C465.092 363.905 466.252 362.088 467.192 359.957C468.194 357.764 468.978 355.289 469.542 352.531C470.106 349.774 470.388 346.735 470.388 343.413C470.388 341.533 470.043 339.716 469.354 337.961C468.727 336.144 467.662 334.671 466.158 333.543C464.654 332.353 462.648 331.757 460.142 331.757C458.074 331.757 456.162 332.196 454.408 333.073C452.653 333.951 451.086 335.204 449.708 336.833C448.329 338.4 447.138 340.28 446.136 342.473C445.196 344.604 444.475 346.954 443.974 349.523C443.472 352.093 443.222 354.787 443.222 357.607C443.222 361.493 444.162 364.501 446.042 366.631C447.984 368.762 450.679 369.827 454.126 369.827Z" fill="white"/>
<path d="M511.04 376.877C507.406 376.877 504.335 376.125 501.828 374.621C499.384 373.055 497.536 370.893 496.282 368.135C495.029 365.378 494.402 362.182 494.402 358.547C494.402 355.665 494.716 352.782 495.342 349.899C495.969 346.954 496.909 344.165 498.162 341.533C499.478 338.839 501.076 336.457 502.956 334.389C504.836 332.321 506.998 330.692 509.442 329.501C511.949 328.311 514.738 327.715 517.808 327.715C520.315 327.715 522.414 328.091 524.106 328.843C525.798 329.533 527.177 330.504 528.242 331.757C529.37 332.948 530.279 334.264 530.968 335.705H531.25C531.313 335.204 531.344 334.734 531.344 334.295C531.344 333.794 531.344 333.387 531.344 333.073C531.344 325.365 530.31 319.663 528.242 315.965C526.174 312.268 523.01 310.419 518.748 310.419C517.182 310.419 515.49 310.607 513.672 310.983C511.918 311.359 510.32 311.861 508.878 312.487L506.81 306.377C508.314 305.625 510.288 304.967 512.732 304.403C515.176 303.839 517.526 303.557 519.782 303.557C524.42 303.557 528.18 304.685 531.062 306.941C534.008 309.135 536.17 312.393 537.548 316.717C538.99 320.979 539.71 326.243 539.71 332.509C539.71 335.643 539.46 338.933 538.958 342.379C538.457 345.763 537.705 349.116 536.702 352.437C535.7 355.759 534.415 358.892 532.848 361.837C531.344 364.783 529.527 367.383 527.396 369.639C525.266 371.895 522.853 373.681 520.158 374.997C517.464 376.251 514.424 376.877 511.04 376.877ZM511.886 369.921C513.766 369.921 515.49 369.483 517.056 368.605C518.686 367.665 520.158 366.412 521.474 364.845C522.853 363.216 524.075 361.336 525.141 359.205C526.206 357.075 527.114 354.787 527.866 352.343C528.681 349.899 529.339 347.361 529.84 344.729C529.276 342.724 528.462 340.938 527.396 339.371C526.394 337.742 525.14 336.457 523.636 335.517C522.195 334.577 520.503 334.107 518.56 334.107C516.868 334.107 515.239 334.515 513.672 335.329C512.106 336.144 510.664 337.303 509.348 338.807C508.032 340.311 506.873 342.066 505.87 344.071C504.868 346.077 504.084 348.301 503.52 350.745C503.019 353.189 502.768 355.759 502.768 358.453C502.768 361.712 503.458 364.438 504.836 366.631C506.278 368.825 508.628 369.921 511.886 369.921Z" fill="white"/>
<path d="M573.025 376.689C569.139 376.689 565.787 375.906 562.967 374.339C560.147 372.773 557.985 370.548 556.481 367.665C554.977 364.72 554.225 361.273 554.225 357.325C554.225 354.255 554.569 351.184 555.259 348.113C555.948 344.98 556.951 342.035 558.267 339.277C559.645 336.52 561.337 334.076 563.343 331.945C565.348 329.752 567.698 328.029 570.393 326.775C573.087 325.522 576.095 324.895 579.417 324.895C583.365 324.895 586.717 325.679 589.475 327.245C592.295 328.812 594.457 331.068 595.961 334.013C597.465 336.896 598.217 340.343 598.217 344.353C598.217 347.424 597.872 350.495 597.183 353.565C596.493 356.636 595.459 359.581 594.081 362.401C592.765 365.159 591.104 367.603 589.099 369.733C587.093 371.864 584.743 373.556 582.049 374.809C579.354 376.063 576.346 376.689 573.025 376.689ZM573.495 369.827C575.312 369.827 577.004 369.451 578.571 368.699C580.2 367.947 581.704 366.851 583.083 365.409C584.461 363.905 585.621 362.088 586.561 359.957C587.563 357.764 588.347 355.289 588.911 352.531C589.475 349.774 589.757 346.735 589.757 343.413C589.757 341.533 589.412 339.716 588.723 337.961C588.096 336.144 587.031 334.671 585.527 333.543C584.023 332.353 582.017 331.757 579.511 331.757C577.443 331.757 575.531 332.196 573.777 333.073C572.022 333.951 570.455 335.204 569.077 336.833C567.698 338.4 566.507 340.28 565.505 342.473C564.565 344.604 563.844 346.954 563.343 349.523C562.841 352.093 562.591 354.787 562.591 357.607C562.591 361.493 563.531 364.501 565.411 366.631C567.353 368.762 570.048 369.827 573.495 369.827Z" fill="white"/>
<path d="M611.891 375.937L622.607 325.553H630.785L626.461 346.515H650.149L654.661 325.553H662.933L652.311 375.937H643.945L648.645 353.377H624.957L620.163 375.937H611.891Z" fill="white"/>
<path d="M690.437 376.877C687.742 376.877 685.361 376.251 683.293 374.997C681.287 373.681 679.689 371.739 678.499 369.169C677.371 366.6 676.807 363.435 676.807 359.675C676.807 355.915 677.183 352.312 677.935 348.865C678.749 345.356 679.877 342.129 681.319 339.183C682.76 336.238 684.483 333.7 686.489 331.569C688.557 329.376 690.844 327.684 693.351 326.493C695.92 325.24 698.646 324.613 701.529 324.613C703.722 324.613 705.633 325.021 707.263 325.835C708.955 326.65 710.365 327.715 711.493 329.031C712.621 330.347 713.529 331.789 714.219 333.355H714.689L717.697 325.553H723.995L713.279 375.937H706.699L707.921 366.631H707.545C706.103 368.449 704.505 370.141 702.751 371.707C700.996 373.274 699.085 374.527 697.017 375.467C695.011 376.407 692.818 376.877 690.437 376.877ZM693.163 370.015C695.481 370.015 697.737 369.169 699.931 367.477C702.187 365.785 704.223 363.498 706.041 360.615C707.858 357.733 709.237 354.505 710.177 350.933C710.678 349.116 710.991 347.455 711.117 345.951C711.305 344.385 711.399 342.943 711.399 341.627C711.399 338.682 710.584 336.269 708.955 334.389C707.325 332.509 705.132 331.569 702.375 331.569C700.432 331.569 698.583 332.071 696.829 333.073C695.137 334.076 693.57 335.486 692.129 337.303C690.687 339.058 689.465 341.126 688.463 343.507C687.46 345.889 686.677 348.489 686.113 351.309C685.549 354.067 685.267 356.918 685.267 359.863C685.267 363.247 685.956 365.785 687.335 367.477C688.713 369.169 690.656 370.015 693.163 370.015Z" fill="white"/>
<path d="M750.912 376.877C748.03 376.877 745.335 376.439 742.828 375.561C740.384 374.684 738.41 373.305 736.906 371.425C735.402 369.545 734.65 367.101 734.65 364.093C734.65 361.649 735.12 359.519 736.06 357.701C737.063 355.884 738.379 354.349 740.008 353.095C741.638 351.779 743.455 350.683 745.46 349.805C747.466 348.865 749.471 348.019 751.476 347.267C753.983 346.265 756.208 345.325 758.15 344.447C760.093 343.507 761.597 342.442 762.662 341.251C763.79 339.998 764.354 338.525 764.354 336.833C764.354 335.267 763.853 334.013 762.85 333.073C761.848 332.071 760.062 331.569 757.492 331.569C755.048 331.569 752.636 331.914 750.254 332.603C747.873 333.23 745.68 333.982 743.674 334.859L741.418 328.279C743.612 327.465 746.118 326.681 748.938 325.929C751.758 325.115 754.892 324.707 758.338 324.707C761.158 324.707 763.634 325.115 765.764 325.929C767.958 326.681 769.65 327.903 770.84 329.595C772.094 331.287 772.72 333.543 772.72 336.363C772.72 338.557 772.282 340.499 771.404 342.191C770.527 343.821 769.336 345.262 767.832 346.515C766.328 347.706 764.636 348.771 762.756 349.711C760.876 350.589 758.934 351.403 756.928 352.155C754.108 353.221 751.633 354.255 749.502 355.257C747.434 356.197 745.836 357.294 744.708 358.547C743.58 359.801 743.016 361.43 743.016 363.435C743.016 365.441 743.737 367.039 745.178 368.229C746.682 369.42 749.001 370.015 752.134 370.015C753.826 370.015 755.487 369.859 757.116 369.545C758.746 369.169 760.344 368.699 761.91 368.135C763.477 367.509 765.012 366.851 766.516 366.161V373.399C764.323 374.402 761.973 375.248 759.466 375.937C756.96 376.564 754.108 376.877 750.912 376.877Z" fill="white"/>
<path d="M779.957 398.497L795.373 325.553H802.141L801.013 334.953H801.389C802.893 333.073 804.491 331.381 806.183 329.877C807.875 328.311 809.723 327.057 811.729 326.117C813.734 325.177 815.896 324.707 818.215 324.707C820.91 324.707 823.259 325.365 825.265 326.681C827.333 327.935 828.931 329.846 830.059 332.415C831.25 334.922 831.845 338.087 831.845 341.909C831.845 345.607 831.469 349.179 830.717 352.625C830.028 356.072 828.962 359.268 827.521 362.213C826.142 365.096 824.45 367.665 822.445 369.921C820.502 372.115 818.246 373.838 815.677 375.091C813.107 376.282 810.319 376.877 807.311 376.877C805.055 376.877 803.081 376.47 801.389 375.655C799.76 374.841 798.381 373.775 797.253 372.459C796.125 371.143 795.185 369.733 794.433 368.229H793.963C793.9 369.232 793.744 370.642 793.493 372.459C793.242 374.214 792.992 375.655 792.741 376.783L788.135 398.497H779.957ZM806.653 370.015C808.658 370.015 810.507 369.514 812.199 368.511C813.954 367.446 815.52 366.005 816.899 364.187C818.278 362.307 819.437 360.177 820.377 357.795C821.379 355.351 822.131 352.782 822.633 350.087C823.134 347.33 823.385 344.541 823.385 341.721C823.385 338.337 822.696 335.799 821.317 334.107C820.001 332.415 818.027 331.569 815.395 331.569C814.016 331.569 812.606 331.914 811.165 332.603C809.724 333.293 808.313 334.295 806.935 335.611C805.556 336.865 804.272 338.369 803.081 340.123C801.89 341.878 800.825 343.821 799.885 345.951C799.007 348.019 798.318 350.244 797.817 352.625C797.316 354.944 797.065 357.357 797.065 359.863C797.065 362.871 797.848 365.315 799.415 367.195C800.982 369.075 803.394 370.015 806.653 370.015Z" fill="white"/>
<path d="M865.788 376.877C861.903 376.877 858.582 376.125 855.824 374.621C853.13 373.055 851.062 370.861 849.62 368.041C848.242 365.159 847.552 361.775 847.552 357.889C847.552 353.879 848.116 349.931 849.244 346.045C850.435 342.097 852.127 338.525 854.32 335.329C856.514 332.071 859.146 329.47 862.216 327.527C865.35 325.585 868.859 324.613 872.744 324.613C877.507 324.613 881.079 325.647 883.46 327.715C885.904 329.783 887.126 332.666 887.126 336.363C887.126 338.807 886.562 341.126 885.434 343.319C884.306 345.45 882.552 347.33 880.17 348.959C877.789 350.589 874.75 351.873 871.052 352.813C867.355 353.691 862.906 354.129 857.704 354.129H856.106C856.044 354.693 855.981 355.289 855.918 355.915C855.918 356.542 855.918 357.106 855.918 357.607C855.918 361.43 856.858 364.469 858.738 366.725C860.618 368.919 863.47 370.015 867.292 370.015C869.674 370.015 871.93 369.671 874.06 368.981C876.191 368.292 878.51 367.352 881.016 366.161V373.211C878.635 374.277 876.285 375.154 873.966 375.843C871.71 376.533 868.984 376.877 865.788 376.877ZM857.986 347.455C861.746 347.455 865.224 347.142 868.42 346.515C871.616 345.826 874.186 344.729 876.128 343.225C878.071 341.659 879.042 339.591 879.042 337.021C879.042 335.392 878.478 334.076 877.35 333.073C876.285 332.008 874.593 331.475 872.274 331.475C870.269 331.475 868.295 332.102 866.352 333.355C864.41 334.609 862.655 336.426 861.088 338.807C859.522 341.189 858.268 344.071 857.328 347.455H857.986Z" fill="white"/>
<path d="M920.875 376.877C916.3 376.877 912.54 376.031 909.595 374.339C906.649 372.585 904.487 370.172 903.109 367.101C901.73 363.968 901.041 360.302 901.041 356.103C901.041 352.594 901.417 349.273 902.169 346.139C902.921 342.943 904.049 340.061 905.553 337.491C907.057 334.859 908.874 332.603 911.005 330.723C913.198 328.781 915.673 327.308 918.431 326.305C921.251 325.24 924.353 324.707 927.737 324.707C931.309 324.707 934.348 325.177 936.855 326.117C939.424 327.057 941.367 328.499 942.683 330.441C943.999 332.321 944.657 334.671 944.657 337.491C944.657 339.935 944.093 342.035 942.965 343.789C941.899 345.544 940.427 346.954 938.547 348.019C936.667 349.085 934.473 349.899 931.967 350.463V350.651C934.724 351.341 936.98 352.5 938.735 354.129C940.489 355.696 941.367 358.109 941.367 361.367C941.367 363.686 940.709 366.067 939.393 368.511C938.139 370.893 936.009 372.898 933.001 374.527C929.993 376.094 925.951 376.877 920.875 376.877ZM921.439 370.109C924.196 370.109 926.452 369.702 928.207 368.887C929.961 368.073 931.246 367.007 932.061 365.691C932.938 364.313 933.377 362.84 933.377 361.273C933.377 359.644 932.938 358.328 932.061 357.325C931.246 356.26 929.93 355.477 928.113 354.975C926.358 354.411 924.071 354.129 921.251 354.129H909.407C909.407 354.443 909.407 354.819 909.407 355.257C909.407 355.633 909.407 356.009 909.407 356.385C909.407 361.211 910.503 364.72 912.697 366.913C914.89 369.044 917.804 370.109 921.439 370.109ZM920.593 347.455C923.35 347.455 925.919 347.173 928.301 346.609C930.745 346.045 932.687 345.105 934.129 343.789C935.633 342.411 936.385 340.593 936.385 338.337C936.385 336.457 935.727 334.859 934.411 333.543C933.095 332.227 930.901 331.569 927.831 331.569C924.885 331.569 922.222 332.196 919.841 333.449C917.522 334.64 915.548 336.426 913.919 338.807C912.352 341.189 911.161 344.071 910.347 347.455H920.593Z" fill="white"/>
<path d="M972.106 376.877C969.411 376.877 967.03 376.251 964.962 374.997C962.957 373.681 961.359 371.739 960.168 369.169C959.04 366.6 958.476 363.435 958.476 359.675C958.476 355.915 958.852 352.312 959.604 348.865C960.419 345.356 961.547 342.129 962.988 339.183C964.429 336.238 966.153 333.7 968.158 331.569C970.226 329.376 972.513 327.684 975.02 326.493C977.589 325.24 980.315 324.613 983.198 324.613C985.391 324.613 987.303 325.021 988.932 325.835C990.624 326.65 992.034 327.715 993.162 329.031C994.29 330.347 995.199 331.789 995.888 333.355H996.358L999.366 325.553H1005.66L994.948 375.937H988.368L989.59 366.631H989.214C987.773 368.449 986.175 370.141 984.42 371.707C982.665 373.274 980.754 374.527 978.686 375.467C976.681 376.407 974.487 376.877 972.106 376.877ZM974.832 370.015C977.151 370.015 979.407 369.169 981.6 367.477C983.856 365.785 985.893 363.498 987.71 360.615C989.527 357.733 990.906 354.505 991.846 350.933C992.347 349.116 992.661 347.455 992.786 345.951C992.974 344.385 993.068 342.943 993.068 341.627C993.068 338.682 992.253 336.269 990.624 334.389C988.995 332.509 986.801 331.569 984.044 331.569C982.101 331.569 980.253 332.071 978.498 333.073C976.806 334.076 975.239 335.486 973.798 337.303C972.357 339.058 971.135 341.126 970.132 343.507C969.129 345.889 968.346 348.489 967.782 351.309C967.218 354.067 966.936 356.918 966.936 359.863C966.936 363.247 967.625 365.785 969.004 367.477C970.383 369.169 972.325 370.015 974.832 370.015Z" fill="white"/>
<path d="M1016.6 375.937L1027.32 325.553H1034.09L1033.05 334.859H1033.52C1034.65 333.293 1035.97 331.726 1037.47 330.159C1039.04 328.593 1040.82 327.277 1042.83 326.211C1044.9 325.146 1047.21 324.613 1049.78 324.613C1053.23 324.613 1055.86 325.616 1057.68 327.621C1059.56 329.564 1060.69 332.29 1061.06 335.799H1061.44C1062.69 333.919 1064.17 332.133 1065.86 330.441C1067.61 328.749 1069.56 327.371 1071.69 326.305C1073.82 325.177 1076.17 324.613 1078.74 324.613C1082.62 324.613 1085.63 325.679 1087.76 327.809C1089.89 329.94 1090.96 333.011 1090.96 337.021C1090.96 338.525 1090.86 339.935 1090.67 341.251C1090.49 342.505 1090.24 343.852 1089.92 345.293L1083.44 375.937H1075.07L1081.84 344.353C1082.15 342.912 1082.37 341.69 1082.5 340.687C1082.62 339.685 1082.68 338.713 1082.68 337.773C1082.68 335.893 1082.15 334.389 1081.09 333.261C1080.08 332.133 1078.49 331.569 1076.29 331.569C1074.79 331.569 1073.19 332.008 1071.5 332.885C1069.81 333.7 1068.15 334.985 1066.52 336.739C1064.89 338.494 1063.41 340.75 1062.1 343.507C1060.78 346.202 1059.72 349.429 1058.9 353.189L1054.11 375.937H1045.84L1052.51 344.353C1052.82 342.912 1053.04 341.721 1053.17 340.781C1053.29 339.779 1053.36 338.901 1053.36 338.149C1053.36 336.081 1052.89 334.483 1051.95 333.355C1051.01 332.165 1049.44 331.569 1047.25 331.569C1045.74 331.569 1044.11 331.977 1042.36 332.791C1040.67 333.606 1039.01 334.922 1037.38 336.739C1035.75 338.494 1034.24 340.813 1032.86 343.695C1031.49 346.578 1030.36 350.087 1029.48 354.223L1024.87 375.937H1016.6Z" fill="white"/>
<path d="M1125.55 376.877C1121.66 376.877 1118.34 376.125 1115.58 374.621C1112.89 373.055 1110.82 370.861 1109.38 368.041C1108 365.159 1107.31 361.775 1107.31 357.889C1107.31 353.879 1107.88 349.931 1109 346.045C1110.19 342.097 1111.89 338.525 1114.08 335.329C1116.27 332.071 1118.91 329.47 1121.98 327.527C1125.11 325.585 1128.62 324.613 1132.5 324.613C1137.27 324.613 1140.84 325.647 1143.22 327.715C1145.66 329.783 1146.89 332.666 1146.89 336.363C1146.89 338.807 1146.32 341.126 1145.19 343.319C1144.07 345.45 1142.31 347.33 1139.93 348.959C1137.55 350.589 1134.51 351.873 1130.81 352.813C1127.11 353.691 1122.67 354.129 1117.46 354.129H1115.87C1115.8 354.693 1115.74 355.289 1115.68 355.915C1115.68 356.542 1115.68 357.106 1115.68 357.607C1115.68 361.43 1116.62 364.469 1118.5 366.725C1120.38 368.919 1123.23 370.015 1127.05 370.015C1129.43 370.015 1131.69 369.671 1133.82 368.981C1135.95 368.292 1138.27 367.352 1140.78 366.161V373.211C1138.39 374.277 1136.04 375.154 1133.73 375.843C1131.47 376.533 1128.74 376.877 1125.55 376.877ZM1117.75 347.455C1121.51 347.455 1124.98 347.142 1128.18 346.515C1131.38 345.826 1133.95 344.729 1135.89 343.225C1137.83 341.659 1138.8 339.591 1138.8 337.021C1138.8 335.392 1138.24 334.076 1137.11 333.073C1136.04 332.008 1134.35 331.475 1132.03 331.475C1130.03 331.475 1128.05 332.102 1126.11 333.355C1124.17 334.609 1122.41 336.426 1120.85 338.807C1119.28 341.189 1118.03 344.071 1117.09 347.455H1117.75Z" fill="white"/>
<path d="M1156.01 376.595C1155.19 376.595 1154.44 376.501 1153.75 376.313C1153.06 376.188 1152.53 376.063 1152.15 375.937V368.793C1152.59 368.981 1153.06 369.138 1153.56 369.263C1154.06 369.326 1154.63 369.357 1155.25 369.357C1156.76 369.357 1158.07 369.013 1159.2 368.323C1160.39 367.571 1161.49 366.412 1162.49 364.845C1163.49 363.279 1164.5 361.242 1165.5 358.735C1166.57 356.229 1167.69 353.221 1168.88 349.711C1170.33 345.513 1171.7 341.878 1173.02 338.807C1174.34 335.737 1175.81 333.199 1177.44 331.193C1179.13 329.125 1181.2 327.59 1183.64 326.587C1186.09 325.585 1189.13 325.083 1192.76 325.083C1194.89 325.083 1196.96 325.24 1198.96 325.553C1200.97 325.804 1202.79 326.18 1204.42 326.681L1193.89 375.937H1185.52L1195.02 332.415C1194.58 332.29 1194.04 332.196 1193.42 332.133C1192.79 332.071 1192.13 332.039 1191.44 332.039C1188.87 332.039 1186.78 332.666 1185.15 333.919C1183.58 335.11 1182.14 337.178 1180.82 340.123C1179.51 343.069 1177.94 347.205 1176.12 352.531C1174.74 356.417 1173.43 359.863 1172.17 362.871C1170.92 365.817 1169.57 368.323 1168.13 370.391C1166.69 372.397 1165 373.932 1163.06 374.997C1161.11 376.063 1158.76 376.595 1156.01 376.595Z" fill="white"/>
<path d="M1231.76 376.877C1229.26 376.877 1227.03 376.407 1225.09 375.467C1223.21 374.527 1221.74 373.117 1220.67 371.237C1219.67 369.357 1219.17 367.07 1219.17 364.375C1219.17 362.934 1219.26 361.587 1219.45 360.333C1219.7 359.017 1219.95 357.67 1220.2 356.291L1226.78 325.553H1235.15L1228.38 357.231C1228.13 358.61 1227.91 359.801 1227.72 360.803C1227.6 361.806 1227.53 362.715 1227.53 363.529C1227.53 365.535 1228.04 367.133 1229.04 368.323C1230.1 369.451 1231.8 370.015 1234.11 370.015C1236.25 370.015 1238.53 369.263 1240.98 367.759C1243.48 366.255 1245.8 363.843 1247.93 360.521C1250.06 357.2 1251.72 352.782 1252.91 347.267L1257.52 325.553H1265.7L1254.98 375.937H1248.21L1249.25 366.631H1248.78C1247.59 368.135 1246.18 369.702 1244.55 371.331C1242.98 372.898 1241.13 374.214 1239 375.279C1236.93 376.345 1234.52 376.877 1231.76 376.877Z" fill="white"/>
</svg>
