<svg width="1776" height="341" viewBox="0 0 1776 341" fill="none" xmlns="http://www.w3.org/2000/svg">
<path d="M178.667 33.6C175.467 36.2667 162.933 60.1333 127.2 131.467C101.2 183.467 80 227.2 80 228.667C80 231.067 80.9333 231.333 91.3333 231.333H102.8L105.2 225.6C106.533 222.533 112.4 210.133 118.267 198C124.133 185.867 141.067 150.4 156 118.933C170.933 87.6 183.6 62.4 184.133 62.9333C187.733 67.0667 229.333 144.533 229.067 146.667C228.8 148.8 227.867 149.2 224 148.933C221.467 148.667 210.667 148.4 200 148.267C184.133 148 179.733 148.4 175.6 150.267C172 151.867 170.533 153.333 170.933 154.933C171.333 156.933 173.733 157.6 185.333 158.8C211.333 161.733 228 169.733 246.8 188.533C256.8 198.533 268.667 214.667 276.267 228.533L278.533 232.8L296.267 232.4C312.933 232 314 231.867 314.4 229.333C314.933 225.733 208 38.5333 202.667 33.6C199.2 30.5333 197.467 30 190.8 30C184.133 30 182.133 30.5333 178.667 33.6Z" fill="white"/>
<path d="M993.067 38L977.333 46V119.333C977.333 189.2 977.467 192.933 980 199.6C983.867 209.733 991.467 219.2 1001.07 225.6C1013.87 234.133 1016.53 234.667 1052 234.667H1083.33V226.667L1064.67 225.867C1039.73 224.8 1029.2 221.733 1021.07 213.067C1013.87 205.467 1014 207.6 1013.33 116C1012.8 41.6 1012.4 30.6667 1010.67 30.4C1009.6 30.2667 1001.6 33.7333 993.067 38Z" fill="white"/>
<path d="M406 91.8667C373.2 98.2667 351.867 114.933 344 140.533C340.4 151.867 340.133 171.867 343.333 182.933C352.8 215.6 386.4 235.333 432.4 235.333C444.8 235.333 464.533 232.133 474 228.533C485.733 224.133 485.2 222.4 485.6 269.867C486 309.6 486.133 310.667 488.667 310.933C490.133 311.067 498.267 307.733 506.667 303.6L522 296L522.4 224.933C522.667 158.533 522.533 153.2 520.133 143.867C513.867 119.2 495.6 102.4 466.4 93.8667C453.867 90.2667 420.133 89.0667 406 91.8667ZM446.667 100.133C470.933 107.333 483.333 128.8 483.2 163.333C483.2 180.533 481.067 189.733 474.267 202.4C464.8 220.4 444 230 423.2 226.133C403.467 222.533 390.267 210.533 383.2 190C379.467 179.2 379.6 146 383.333 134.667C388.667 118.133 401.6 104.533 415.867 100.133C424.133 97.4667 438 97.6 446.667 100.133Z" fill="white"/>
<path d="M827.333 90.9333C780.4 98.4 753.6 131.2 760 173.467C764.4 203.333 786 224.933 818.667 232.267C834.267 235.867 864 235.467 879.2 231.467L890.933 228.4L899.6 236.8L935.333 236V190.667C935.333 146.8 935.2 145.067 932.267 137.333C924.133 115.733 907.467 101.467 880.933 93.8667C873.6 91.7333 866.667 90.9333 851.333 90.6667C840.4 90.4 829.6 90.5333 827.333 90.9333ZM866.933 102.4C885.733 111.6 895.867 132.4 896 162.133C896 192.533 886.267 212.8 866.933 222.267C859.067 226.133 856.8 226.667 847.333 226.667C832.933 226.533 824.533 223.467 815.333 215.2C804.133 204.8 798.133 190.4 796.533 169.333C795.067 150.4 799.2 131.867 807.867 118.4C816.933 104.4 830.667 97.6 848.8 98.4C857.2 98.8 861.2 99.6 866.933 102.4Z" fill="white"/>
<path d="M1578 91.3333C1555.73 94.8 1536.67 104 1524.13 117.333C1512.27 130.133 1506.67 144.667 1506.67 162.267C1506.67 196.533 1528.13 222 1566.27 232.933C1574.8 235.467 1580 236 1595.33 236C1612.27 236 1615.07 235.6 1625.47 232.267C1638.13 228.133 1649.73 221.333 1650.4 217.6C1651.07 214.4 1648.53 214.667 1636.4 218.933C1627.33 222.133 1623.87 222.533 1610 222.667C1595.2 222.667 1593.47 222.4 1586.53 218.933C1578.13 214.8 1568.4 205.2 1564 196.8C1551.33 171.733 1554.53 136.667 1571.47 115.733C1574.4 112.133 1579.33 108.533 1585.07 105.733C1593.33 101.6 1594.93 101.333 1607.33 101.333C1618.4 101.333 1621.73 101.867 1627.33 104.4C1640.13 110.267 1648.67 121.2 1653.33 138.133C1656.27 149.067 1655.87 152.667 1651.6 152.667C1650 152.8 1638.4 152.667 1626 152.667C1607.87 152.533 1602.8 152.933 1600.67 154.533C1598.53 156.133 1598.27 156.933 1599.47 158.933C1600.8 161.2 1604 161.333 1648.13 161.333H1695.33L1695.73 156C1696.4 148.667 1693.73 137.467 1689.2 128.4C1681.07 112.133 1663.87 99.8667 1640.67 93.8667C1628.53 90.6667 1592 89.2 1578 91.3333Z" fill="white"/>
<path d="M567.6 93.6C567.067 94 566.667 115.333 566.667 140.8C566.667 181.867 566.933 188 569.067 194.933C574.667 212.933 586.267 224.4 604 229.733C631.2 238 672.4 236.533 694.667 226.533C708.4 220.4 719.2 206 722.667 189.333C723.467 185.333 723.867 165.067 723.733 138L723.333 93.3333L706.133 92.9333C693.2 92.6667 688.667 93.0667 687.733 94.2667C687.2 95.2 686.667 117.333 686.667 143.333C686.667 181.467 686.267 192.4 684.667 198.667C681.733 210.133 676.8 216.533 667.6 221.2C660.667 224.667 658.4 225.067 646.933 225.2C639.6 225.333 631.333 224.533 627.733 223.467C619.333 221.067 611.733 214.267 607.867 205.733C604.667 198.667 604.667 198.267 604.267 147.333C604 113.333 603.333 95.6 602.4 94.4C601.467 93.2 596.4 92.6667 584.667 92.6667C575.733 92.6667 568 93.0667 567.6 93.6Z" fill="white"/>
<path d="M1106.93 94.2667C1104.93 96.2667 1104.67 168.933 1106.67 184.267C1110.13 210.267 1125.33 226.267 1152.4 232.267C1166 235.333 1203.73 235.333 1217.33 232.267C1242.67 226.533 1256.8 213.467 1262 190.8C1263.6 183.733 1264 173.467 1263.73 137.733L1263.33 93.3333H1227.33L1226.53 143.333C1226.13 173.2 1225.33 194.933 1224.4 197.333C1221.47 205.733 1217.2 212.667 1212.93 215.867C1202 224.267 1176.13 225.6 1161.87 218.667C1153.73 214.667 1150.27 210.533 1146.27 199.6C1143.6 192.533 1143.33 188.667 1142.67 142.667L1142 93.3333L1125.33 92.9333C1113.47 92.6667 1108.13 93.0667 1106.93 94.2667Z" fill="white"/>
<path d="M1312.4 94.9333C1311.73 96.6667 1318.8 104.133 1341.2 126C1360.53 144.667 1370.8 155.467 1370.53 156.933C1370.27 158.133 1355.87 174 1338.53 192.267C1321.33 210.4 1306.67 226.133 1306.13 227.067C1305.6 228 1305.87 229.6 1306.67 230.667C1308 232.267 1312.67 232.667 1330.67 232.667H1352.93L1362 222.933C1385.2 198.533 1399.2 184.667 1400.8 184.667C1401.87 184.667 1413.87 195.467 1427.6 208.667L1452.67 232.667H1462.8C1473.33 232.667 1477.47 230.8 1475.07 227.067C1474.53 226.133 1460.93 212.8 1444.93 197.467C1428.93 182.133 1416 168.8 1416.27 167.733C1416.53 166.8 1431.07 150.933 1448.67 132.4C1469.6 110.533 1480.67 98 1480.67 96.1333C1480.67 93.4667 1480 93.3333 1456.67 93.0667L1432.67 92.6667L1410.27 116.667C1398 129.867 1387.2 140.667 1386.27 140.667C1385.33 140.667 1373.33 129.867 1359.33 116.667L1334 92.8L1323.6 92.6667C1315.07 92.6667 1313.07 93.0667 1312.4 94.9333Z" fill="white"/>
</svg>
