<svg width="100" height="90" viewBox="0 0 1650 80" fill="none" xmlns="http://www.w3.org/2000/svg">
<path d="M98.6667 3.6C95.4667 6.26667 82.9333 30.1333 47.2 101.467C21.2 153.467 0 197.2 0 198.667C0 201.067 0.933333 201.333 11.3333 201.333H22.8L25.2 195.6C26.5333 192.533 32.4 180.133 38.2667 168C44.1333 155.867 61.0667 120.4 76 88.9333C90.9333 57.6 103.6 32.4 104.133 32.9333C107.733 37.0667 149.333 114.533 149.067 116.667C148.8 118.8 147.867 119.2 144 118.933C141.467 118.667 130.667 118.4 120 118.267C104.133 118 99.7333 118.4 95.6 120.267C92 121.867 90.5333 123.333 90.9333 124.933C91.3333 126.933 93.7333 127.6 105.333 128.8C131.333 131.733 148 139.733 166.8 158.533C176.8 168.533 188.667 184.667 196.267 198.533L198.533 202.8L216.267 202.4C232.933 202 234 201.867 234.4 199.333C234.933 195.733 128 8.53333 122.667 3.6C119.2 0.533333 117.467 0 110.8 0C104.133 0 102.133 0.533333 98.6667 3.6Z" fill="white"/>
<path d="M913.067 8.00001L897.333 16V89.3333C897.333 159.2 897.467 162.933 900 169.6C903.867 179.733 911.467 189.2 921.067 195.6C933.867 204.133 936.533 204.667 972 204.667H1003.33V196.667L984.667 195.867C959.733 194.8 949.2 191.733 941.067 183.067C933.867 175.467 934 177.6 933.333 86C932.8 11.6 932.4 0.666676 930.667 0.40001C929.6 0.266676 921.6 3.73334 913.067 8.00001Z" fill="white"/>
<path d="M326 61.8667C293.2 68.2667 271.867 84.9333 264 110.533C260.4 121.867 260.133 141.867 263.333 152.933C272.8 185.6 306.4 205.333 352.4 205.333C364.8 205.333 384.533 202.133 394 198.533C405.733 194.133 405.2 192.4 405.6 239.867C406 279.6 406.133 280.667 408.667 280.933C410.133 281.067 418.267 277.733 426.667 273.6L442 266L442.4 194.933C442.667 128.533 442.533 123.2 440.133 113.867C433.867 89.2 415.6 72.4 386.4 63.8667C373.867 60.2667 340.133 59.0667 326 61.8667ZM366.667 70.1333C390.933 77.3333 403.333 98.8 403.2 133.333C403.2 150.533 401.067 159.733 394.267 172.4C384.8 190.4 364 200 343.2 196.133C323.467 192.533 310.267 180.533 303.2 160C299.467 149.2 299.6 116 303.333 104.667C308.667 88.1333 321.6 74.5333 335.867 70.1333C344.133 67.4667 358 67.6 366.667 70.1333Z" fill="white"/>
<path d="M747.333 60.9333C700.4 68.4 673.6 101.2 680 143.467C684.4 173.333 706 194.933 738.667 202.267C754.267 205.867 784 205.467 799.2 201.467L810.933 198.4L819.6 206.8L855.333 206V160.667C855.333 116.8 855.2 115.067 852.267 107.333C844.133 85.7333 827.467 71.4667 800.933 63.8667C793.6 61.7333 786.667 60.9333 771.333 60.6667C760.4 60.4 749.6 60.5333 747.333 60.9333ZM786.933 72.4C805.733 81.6 815.867 102.4 816 132.133C816 162.533 806.267 182.8 786.933 192.267C779.067 196.133 776.8 196.667 767.333 196.667C752.933 196.533 744.533 193.467 735.333 185.2C724.133 174.8 718.133 160.4 716.533 139.333C715.067 120.4 719.2 101.867 727.867 88.4C736.933 74.4 750.667 67.6 768.8 68.4C777.2 68.8 781.2 69.6 786.933 72.4Z" fill="white"/>
<path d="M1498 61.3333C1475.73 64.8 1456.67 74 1444.13 87.3333C1432.27 100.133 1426.67 114.667 1426.67 132.267C1426.67 166.533 1448.13 192 1486.27 202.933C1494.8 205.467 1500 206 1515.33 206C1532.27 206 1535.07 205.6 1545.47 202.267C1558.13 198.133 1569.73 191.333 1570.4 187.6C1571.07 184.4 1568.53 184.667 1556.4 188.933C1547.33 192.133 1543.87 192.533 1530 192.667C1515.2 192.667 1513.47 192.4 1506.53 188.933C1498.13 184.8 1488.4 175.2 1484 166.8C1471.33 141.733 1474.53 106.667 1491.47 85.7333C1494.4 82.1333 1499.33 78.5333 1505.07 75.7333C1513.33 71.6 1514.93 71.3333 1527.33 71.3333C1538.4 71.3333 1541.73 71.8667 1547.33 74.4C1560.13 80.2667 1568.67 91.2 1573.33 108.133C1576.27 119.067 1575.87 122.667 1571.6 122.667C1570 122.8 1558.4 122.667 1546 122.667C1527.87 122.533 1522.8 122.933 1520.67 124.533C1518.53 126.133 1518.27 126.933 1519.47 128.933C1520.8 131.2 1524 131.333 1568.13 131.333H1615.33L1615.73 126C1616.4 118.667 1613.73 107.467 1609.2 98.4C1601.07 82.1333 1583.87 69.8667 1560.67 63.8667C1548.53 60.6667 1512 59.2 1498 61.3333Z" fill="white"/>
<path d="M487.6 63.6C487.067 64 486.667 85.3333 486.667 110.8C486.667 151.867 486.933 158 489.067 164.933C494.667 182.933 506.267 194.4 524 199.733C551.2 208 592.4 206.533 614.667 196.533C628.4 190.4 639.2 176 642.667 159.333C643.467 155.333 643.867 135.067 643.733 108L643.333 63.3333L626.133 62.9333C613.2 62.6667 608.667 63.0667 607.733 64.2667C607.2 65.2 606.667 87.3333 606.667 113.333C606.667 151.467 606.267 162.4 604.667 168.667C601.733 180.133 596.8 186.533 587.6 191.2C580.667 194.667 578.4 195.067 566.933 195.2C559.6 195.333 551.333 194.533 547.733 193.467C539.333 191.067 531.733 184.267 527.867 175.733C524.667 168.667 524.667 168.267 524.267 117.333C524 83.3333 523.333 65.6 522.4 64.4C521.467 63.2 516.4 62.6667 504.667 62.6667C495.733 62.6667 488 63.0667 487.6 63.6Z" fill="white"/>
<path d="M1026.93 64.2667C1024.93 66.2667 1024.67 138.933 1026.67 154.267C1030.13 180.267 1045.33 196.267 1072.4 202.267C1086 205.333 1123.73 205.333 1137.33 202.267C1162.67 196.533 1176.8 183.467 1182 160.8C1183.6 153.733 1184 143.467 1183.73 107.733L1183.33 63.3333H1147.33L1146.53 113.333C1146.13 143.2 1145.33 164.933 1144.4 167.333C1141.47 175.733 1137.2 182.667 1132.93 185.867C1122 194.267 1096.13 195.6 1081.87 188.667C1073.73 184.667 1070.27 180.533 1066.27 169.6C1063.6 162.533 1063.33 158.667 1062.67 112.667L1062 63.3333L1045.33 62.9333C1033.47 62.6667 1028.13 63.0667 1026.93 64.2667Z" fill="white"/>
<path d="M1232.4 64.9333C1231.73 66.6667 1238.8 74.1333 1261.2 96C1280.53 114.667 1290.8 125.467 1290.53 126.933C1290.27 128.133 1275.87 144 1258.53 162.267C1241.33 180.4 1226.67 196.133 1226.13 197.067C1225.6 198 1225.87 199.6 1226.67 200.667C1228 202.267 1232.67 202.667 1250.67 202.667H1272.93L1282 192.933C1305.2 168.533 1319.2 154.667 1320.8 154.667C1321.87 154.667 1333.87 165.467 1347.6 178.667L1372.67 202.667H1382.8C1393.33 202.667 1397.47 200.8 1395.07 197.067C1394.53 196.133 1380.93 182.8 1364.93 167.467C1348.93 152.133 1336 138.8 1336.27 137.733C1336.53 136.8 1351.07 120.933 1368.67 102.4C1389.6 80.5333 1400.67 68 1400.67 66.1333C1400.67 63.4667 1400 63.3333 1376.67 63.0667L1352.67 62.6667L1330.27 86.6667C1318 99.8667 1307.2 110.667 1306.27 110.667C1305.33 110.667 1293.33 99.8667 1279.33 86.6667L1254 62.8L1243.6 62.6667C1235.07 62.6667 1233.07 63.0667 1232.4 64.9333Z" fill="white"/>
<path d="M361.254 365.937L375.448 298.821H392.838C396.974 298.821 400.515 299.385 403.46 300.513C406.468 301.579 408.756 303.239 410.322 305.495C411.952 307.751 412.766 310.665 412.766 314.237C412.766 317.308 412.14 320.003 410.886 322.321C409.633 324.577 407.878 326.457 405.622 327.961C403.366 329.403 400.703 330.405 397.632 330.969V331.439C400.703 332.254 403.272 333.789 405.34 336.045C407.408 338.301 408.442 341.309 408.442 345.069C408.442 349.644 407.314 353.498 405.058 356.631C402.865 359.702 399.826 362.021 395.94 363.587C392.118 365.154 387.7 365.937 382.686 365.937H361.254ZM382.968 358.793C386.54 358.793 389.548 358.261 391.992 357.195C394.499 356.13 396.379 354.563 397.632 352.495C398.948 350.427 399.606 347.952 399.606 345.069C399.606 342.061 398.635 339.523 396.692 337.455C394.75 335.387 391.46 334.353 386.822 334.353H376.294L371.124 358.793H382.968ZM388.796 327.397C391.616 327.397 394.154 326.959 396.41 326.081C398.729 325.204 400.578 323.888 401.956 322.133C403.335 320.316 404.024 318.029 404.024 315.271C404.024 312.326 403.084 310.07 401.204 308.503C399.324 306.874 396.191 306.059 391.804 306.059H382.31L377.798 327.397H388.796Z" fill="white"/>
<path d="M443.656 366.689C439.77 366.689 436.418 365.906 433.598 364.339C430.778 362.773 428.616 360.548 427.112 357.665C425.608 354.72 424.856 351.273 424.856 347.325C424.856 344.255 425.2 341.184 425.89 338.113C426.579 334.98 427.582 332.035 428.898 329.277C430.276 326.52 431.968 324.076 433.974 321.945C435.979 319.752 438.329 318.029 441.024 316.775C443.718 315.522 446.726 314.895 450.048 314.895C453.996 314.895 457.348 315.679 460.106 317.245C462.926 318.812 465.088 321.068 466.592 324.013C468.096 326.896 468.848 330.343 468.848 334.353C468.848 337.424 468.503 340.495 467.814 343.565C467.124 346.636 466.09 349.581 464.712 352.401C463.396 355.159 461.735 357.603 459.73 359.733C457.724 361.864 455.374 363.556 452.68 364.809C449.985 366.063 446.977 366.689 443.656 366.689ZM444.126 359.827C445.943 359.827 447.635 359.451 449.202 358.699C450.831 357.947 452.335 356.851 453.714 355.409C455.092 353.905 456.252 352.088 457.192 349.957C458.194 347.764 458.978 345.289 459.542 342.531C460.106 339.774 460.388 336.735 460.388 333.413C460.388 331.533 460.043 329.716 459.354 327.961C458.727 326.144 457.662 324.671 456.158 323.543C454.654 322.353 452.648 321.757 450.142 321.757C448.074 321.757 446.162 322.196 444.408 323.073C442.653 323.951 441.086 325.204 439.708 326.833C438.329 328.4 437.138 330.28 436.136 332.473C435.196 334.604 434.475 336.954 433.974 339.523C433.472 342.093 433.222 344.787 433.222 347.607C433.222 351.493 434.162 354.501 436.042 356.631C437.984 358.762 440.679 359.827 444.126 359.827Z" fill="white"/>
<path d="M501.04 366.877C497.406 366.877 494.335 366.125 491.828 364.621C489.384 363.055 487.536 360.893 486.282 358.135C485.029 355.378 484.402 352.182 484.402 348.547C484.402 345.665 484.716 342.782 485.342 339.899C485.969 336.954 486.909 334.165 488.162 331.533C489.478 328.839 491.076 326.457 492.956 324.389C494.836 322.321 496.998 320.692 499.442 319.501C501.949 318.311 504.738 317.715 507.808 317.715C510.315 317.715 512.414 318.091 514.106 318.843C515.798 319.533 517.177 320.504 518.242 321.757C519.37 322.948 520.279 324.264 520.968 325.705H521.25C521.313 325.204 521.344 324.734 521.344 324.295C521.344 323.794 521.344 323.387 521.344 323.073C521.344 315.365 520.31 309.663 518.242 305.965C516.174 302.268 513.01 300.419 508.748 300.419C507.182 300.419 505.49 300.607 503.672 300.983C501.918 301.359 500.32 301.861 498.878 302.487L496.81 296.377C498.314 295.625 500.288 294.967 502.732 294.403C505.176 293.839 507.526 293.557 509.782 293.557C514.42 293.557 518.18 294.685 521.062 296.941C524.008 299.135 526.17 302.393 527.548 306.717C528.99 310.979 529.71 316.243 529.71 322.509C529.71 325.643 529.46 328.933 528.958 332.379C528.457 335.763 527.705 339.116 526.702 342.437C525.7 345.759 524.415 348.892 522.848 351.837C521.344 354.783 519.527 357.383 517.396 359.639C515.266 361.895 512.853 363.681 510.158 364.997C507.464 366.251 504.424 366.877 501.04 366.877ZM501.886 359.921C503.766 359.921 505.49 359.483 507.056 358.605C508.686 357.665 510.158 356.412 511.474 354.845C512.853 353.216 514.075 351.336 515.141 349.205C516.206 347.075 517.114 344.787 517.866 342.343C518.681 339.899 519.339 337.361 519.84 334.729C519.276 332.724 518.462 330.938 517.396 329.371C516.394 327.742 515.141 326.457 513.636 325.517C512.195 324.577 510.503 324.107 508.56 324.107C506.868 324.107 505.239 324.515 503.672 325.329C502.106 326.144 500.664 327.303 499.348 328.807C498.032 330.311 496.873 332.066 495.87 334.071C494.868 336.077 494.084 338.301 493.52 340.745C493.019 343.189 492.768 345.759 492.768 348.453C492.768 351.712 493.458 354.438 494.836 356.631C496.278 358.825 498.628 359.921 501.886 359.921Z" fill="white"/>
<path d="M563.025 366.689C559.139 366.689 555.787 365.906 552.967 364.339C550.147 362.773 547.985 360.548 546.481 357.665C544.977 354.72 544.225 351.273 544.225 347.325C544.225 344.255 544.569 341.184 545.259 338.113C545.948 334.98 546.951 332.035 548.267 329.277C549.645 326.52 551.337 324.076 553.343 321.945C555.348 319.752 557.698 318.029 560.393 316.775C563.087 315.522 566.095 314.895 569.417 314.895C573.365 314.895 576.717 315.679 579.475 317.245C582.295 318.812 584.457 321.068 585.961 324.013C587.465 326.896 588.217 330.343 588.217 334.353C588.217 337.424 587.872 340.495 587.183 343.565C586.493 346.636 585.459 349.581 584.081 352.401C582.765 355.159 581.104 357.603 579.099 359.733C577.093 361.864 574.743 363.556 572.049 364.809C569.354 366.063 566.346 366.689 563.025 366.689ZM563.495 359.827C565.312 359.827 567.004 359.451 568.571 358.699C570.2 357.947 571.704 356.851 573.083 355.409C574.461 353.905 575.621 352.088 576.561 349.957C577.563 347.764 578.347 345.289 578.911 342.531C579.475 339.774 579.757 336.735 579.757 333.413C579.757 331.533 579.412 329.716 578.723 327.961C578.096 326.144 577.031 324.671 575.527 323.543C574.023 322.353 572.017 321.757 569.511 321.757C567.443 321.757 565.531 322.196 563.777 323.073C562.022 323.951 560.455 325.204 559.077 326.833C557.698 328.4 556.507 330.28 555.505 332.473C554.565 334.604 553.844 336.954 553.343 339.523C552.841 342.093 552.591 344.787 552.591 347.607C552.591 351.493 553.531 354.501 555.411 356.631C557.353 358.762 560.048 359.827 563.495 359.827Z" fill="white"/>
<path d="M601.891 365.937L612.607 315.553H620.785L616.461 336.515H640.149L644.661 315.553H652.933L642.311 365.937H633.945L638.645 343.377H614.957L610.163 365.937H601.891Z" fill="white"/>
<path d="M680.437 366.877C677.742 366.877 675.361 366.251 673.293 364.997C671.287 363.681 669.689 361.739 668.499 359.169C667.371 356.6 666.807 353.435 666.807 349.675C666.807 345.915 667.183 342.312 667.935 338.865C668.749 335.356 669.877 332.129 671.319 329.183C672.76 326.238 674.483 323.7 676.489 321.569C678.557 319.376 680.844 317.684 683.351 316.493C685.92 315.24 688.646 314.613 691.529 314.613C693.722 314.613 695.633 315.021 697.263 315.835C698.955 316.65 700.365 317.715 701.493 319.031C702.621 320.347 703.529 321.789 704.219 323.355H704.689L707.697 315.553H713.995L703.279 365.937H696.699L697.921 356.631H697.545C696.103 358.449 694.505 360.141 692.751 361.707C690.996 363.274 689.085 364.527 687.017 365.467C685.011 366.407 682.818 366.877 680.437 366.877ZM683.163 360.015C685.481 360.015 687.737 359.169 689.931 357.477C692.187 355.785 694.223 353.498 696.041 350.615C697.858 347.733 699.237 344.505 700.177 340.933C700.678 339.116 700.991 337.455 701.117 335.951C701.305 334.385 701.399 332.943 701.399 331.627C701.399 328.682 700.584 326.269 698.955 324.389C697.325 322.509 695.132 321.569 692.375 321.569C690.432 321.569 688.583 322.071 686.829 323.073C685.137 324.076 683.57 325.486 682.129 327.303C680.687 329.058 679.465 331.126 678.463 333.507C677.46 335.889 676.677 338.489 676.113 341.309C675.549 344.067 675.267 346.918 675.267 349.863C675.267 353.247 675.956 355.785 677.335 357.477C678.713 359.169 680.656 360.015 683.163 360.015Z" fill="white"/>
<path d="M740.912 366.877C738.03 366.877 735.335 366.439 732.828 365.561C730.384 364.684 728.41 363.305 726.906 361.425C725.402 359.545 724.65 357.101 724.65 354.093C724.65 351.649 725.12 349.519 726.06 347.701C727.063 345.884 728.379 344.349 730.008 343.095C731.638 341.779 733.455 340.683 735.46 339.805C737.466 338.865 739.471 338.019 741.476 337.267C743.983 336.265 746.208 335.325 748.15 334.447C750.093 333.507 751.597 332.442 752.662 331.251C753.79 329.998 754.354 328.525 754.354 326.833C754.354 325.267 753.853 324.013 752.85 323.073C751.848 322.071 750.062 321.569 747.492 321.569C745.048 321.569 742.636 321.914 740.254 322.603C737.873 323.23 735.68 323.982 733.674 324.859L731.418 318.279C733.612 317.465 736.118 316.681 738.938 315.929C741.758 315.115 744.892 314.707 748.338 314.707C751.158 314.707 753.634 315.115 755.764 315.929C757.958 316.681 759.65 317.903 760.84 319.595C762.094 321.287 762.72 323.543 762.72 326.363C762.72 328.557 762.282 330.499 761.404 332.191C760.527 333.821 759.336 335.262 757.832 336.515C756.328 337.706 754.636 338.771 752.756 339.711C750.876 340.589 748.934 341.403 746.928 342.155C744.108 343.221 741.633 344.255 739.502 345.257C737.434 346.197 735.836 347.294 734.708 348.547C733.58 349.801 733.016 351.43 733.016 353.435C733.016 355.441 733.737 357.039 735.178 358.229C736.682 359.42 739.001 360.015 742.134 360.015C743.826 360.015 745.487 359.859 747.116 359.545C748.746 359.169 750.344 358.699 751.91 358.135C753.477 357.509 755.012 356.851 756.516 356.161V363.399C754.323 364.402 751.973 365.248 749.466 365.937C746.96 366.564 744.108 366.877 740.912 366.877Z" fill="white"/>
<path d="M769.957 388.497L785.373 315.553H792.141L791.013 324.953H791.389C792.893 323.073 794.491 321.381 796.183 319.877C797.875 318.311 799.724 317.057 801.729 316.117C803.734 315.177 805.896 314.707 808.215 314.707C810.909 314.707 813.26 315.365 815.265 316.681C817.333 317.935 818.931 319.846 820.059 322.415C821.25 324.922 821.845 328.087 821.845 331.909C821.845 335.607 821.469 339.179 820.717 342.625C820.028 346.072 818.962 349.268 817.521 352.213C816.142 355.096 814.45 357.665 812.445 359.921C810.502 362.115 808.246 363.838 805.677 365.091C803.107 366.282 800.319 366.877 797.311 366.877C795.055 366.877 793.081 366.47 791.389 365.655C789.76 364.841 788.381 363.775 787.253 362.459C786.125 361.143 785.185 359.733 784.433 358.229H783.963C783.9 359.232 783.744 360.642 783.493 362.459C783.242 364.214 782.992 365.655 782.741 366.783L778.135 388.497H769.957ZM796.653 360.015C798.658 360.015 800.507 359.514 802.199 358.511C803.953 357.446 805.52 356.005 806.899 354.187C808.278 352.307 809.437 350.177 810.377 347.795C811.38 345.351 812.131 342.782 812.633 340.087C813.134 337.33 813.385 334.541 813.385 331.721C813.385 328.337 812.695 325.799 811.317 324.107C810.001 322.415 808.027 321.569 805.395 321.569C804.016 321.569 802.606 321.914 801.165 322.603C799.724 323.293 798.313 324.295 796.935 325.611C795.556 326.865 794.272 328.369 793.081 330.123C791.89 331.878 790.825 333.821 789.885 335.951C789.008 338.019 788.318 340.244 787.817 342.625C787.315 344.944 787.065 347.357 787.065 349.863C787.065 352.871 787.848 355.315 789.415 357.195C790.982 359.075 793.394 360.015 796.653 360.015Z" fill="white"/>
<path d="M855.788 366.877C851.903 366.877 848.582 366.125 845.824 364.621C843.13 363.055 841.062 360.861 839.62 358.041C838.242 355.159 837.552 351.775 837.552 347.889C837.552 343.879 838.116 339.931 839.244 336.045C840.435 332.097 842.127 328.525 844.32 325.329C846.514 322.071 849.146 319.47 852.216 317.527C855.35 315.585 858.859 314.613 862.744 314.613C867.507 314.613 871.079 315.647 873.46 317.715C875.904 319.783 877.126 322.666 877.126 326.363C877.126 328.807 876.562 331.126 875.434 333.319C874.306 335.45 872.552 337.33 870.17 338.959C867.789 340.589 864.75 341.873 861.052 342.813C857.355 343.691 852.906 344.129 847.704 344.129H846.106C846.044 344.693 845.981 345.289 845.918 345.915C845.918 346.542 845.918 347.106 845.918 347.607C845.918 351.43 846.858 354.469 848.738 356.725C850.618 358.919 853.47 360.015 857.292 360.015C859.674 360.015 861.93 359.671 864.06 358.981C866.191 358.292 868.51 357.352 871.016 356.161V363.211C868.635 364.277 866.285 365.154 863.966 365.843C861.71 366.533 858.984 366.877 855.788 366.877ZM847.986 337.455C851.746 337.455 855.224 337.142 858.42 336.515C861.616 335.826 864.186 334.729 866.128 333.225C868.071 331.659 869.042 329.591 869.042 327.021C869.042 325.392 868.478 324.076 867.35 323.073C866.285 322.008 864.593 321.475 862.274 321.475C860.269 321.475 858.295 322.102 856.352 323.355C854.41 324.609 852.655 326.426 851.088 328.807C849.522 331.189 848.268 334.071 847.328 337.455H847.986Z" fill="white"/>
<path d="M910.875 366.877C906.3 366.877 902.54 366.031 899.595 364.339C896.649 362.585 894.487 360.172 893.109 357.101C891.73 353.968 891.041 350.302 891.041 346.103C891.041 342.594 891.417 339.273 892.169 336.139C892.921 332.943 894.049 330.061 895.553 327.491C897.057 324.859 898.874 322.603 901.005 320.723C903.198 318.781 905.673 317.308 908.431 316.305C911.251 315.24 914.353 314.707 917.737 314.707C921.309 314.707 924.348 315.177 926.855 316.117C929.424 317.057 931.367 318.499 932.683 320.441C933.999 322.321 934.657 324.671 934.657 327.491C934.657 329.935 934.093 332.035 932.965 333.789C931.899 335.544 930.427 336.954 928.547 338.019C926.667 339.085 924.473 339.899 921.967 340.463V340.651C924.724 341.341 926.98 342.5 928.735 344.129C930.489 345.696 931.367 348.109 931.367 351.367C931.367 353.686 930.709 356.067 929.393 358.511C928.139 360.893 926.009 362.898 923.001 364.527C919.993 366.094 915.951 366.877 910.875 366.877ZM911.439 360.109C914.196 360.109 916.452 359.702 918.207 358.887C919.961 358.073 921.246 357.007 922.061 355.691C922.938 354.313 923.377 352.84 923.377 351.273C923.377 349.644 922.938 348.328 922.061 347.325C921.246 346.26 919.93 345.477 918.113 344.975C916.358 344.411 914.071 344.129 911.251 344.129H899.407C899.407 344.443 899.407 344.819 899.407 345.257C899.407 345.633 899.407 346.009 899.407 346.385C899.407 351.211 900.503 354.72 902.697 356.913C904.89 359.044 907.804 360.109 911.439 360.109ZM910.593 337.455C913.35 337.455 915.919 337.173 918.301 336.609C920.745 336.045 922.687 335.105 924.129 333.789C925.633 332.411 926.385 330.593 926.385 328.337C926.385 326.457 925.727 324.859 924.411 323.543C923.095 322.227 920.901 321.569 917.831 321.569C914.885 321.569 912.222 322.196 909.841 323.449C907.522 324.64 905.548 326.426 903.919 328.807C902.352 331.189 901.161 334.071 900.347 337.455H910.593Z" fill="white"/>
<path d="M962.106 366.877C959.411 366.877 957.03 366.251 954.962 364.997C952.957 363.681 951.359 361.739 950.168 359.169C949.04 356.6 948.476 353.435 948.476 349.675C948.476 345.915 948.852 342.312 949.604 338.865C950.419 335.356 951.547 332.129 952.988 329.183C954.429 326.238 956.153 323.7 958.158 321.569C960.226 319.376 962.513 317.684 965.02 316.493C967.589 315.24 970.315 314.613 973.198 314.613C975.391 314.613 977.303 315.021 978.932 315.835C980.624 316.65 982.034 317.715 983.162 319.031C984.29 320.347 985.199 321.789 985.888 323.355H986.358L989.366 315.553H995.664L984.948 365.937H978.368L979.59 356.631H979.214C977.773 358.449 976.175 360.141 974.42 361.707C972.665 363.274 970.754 364.527 968.686 365.467C966.681 366.407 964.487 366.877 962.106 366.877ZM964.832 360.015C967.151 360.015 969.407 359.169 971.6 357.477C973.856 355.785 975.893 353.498 977.71 350.615C979.527 347.733 980.906 344.505 981.846 340.933C982.347 339.116 982.661 337.455 982.786 335.951C982.974 334.385 983.068 332.943 983.068 331.627C983.068 328.682 982.253 326.269 980.624 324.389C978.995 322.509 976.801 321.569 974.044 321.569C972.101 321.569 970.253 322.071 968.498 323.073C966.806 324.076 965.239 325.486 963.798 327.303C962.357 329.058 961.135 331.126 960.132 333.507C959.129 335.889 958.346 338.489 957.782 341.309C957.218 344.067 956.936 346.918 956.936 349.863C956.936 353.247 957.625 355.785 959.004 357.477C960.383 359.169 962.325 360.015 964.832 360.015Z" fill="white"/>
<path d="M1006.6 365.937L1017.32 315.553H1024.09L1023.05 324.859H1023.52C1024.65 323.293 1025.97 321.726 1027.47 320.159C1029.04 318.592 1030.82 317.277 1032.83 316.211C1034.9 315.146 1037.21 314.613 1039.78 314.613C1043.23 314.613 1045.86 315.616 1047.68 317.621C1049.56 319.564 1050.69 322.29 1051.06 325.799H1051.44C1052.69 323.919 1054.17 322.133 1055.86 320.441C1057.61 318.749 1059.56 317.371 1061.69 316.305C1063.82 315.177 1066.17 314.613 1068.74 314.613C1072.62 314.613 1075.63 315.679 1077.76 317.809C1079.89 319.94 1080.96 323.011 1080.96 327.021C1080.96 328.525 1080.86 329.935 1080.67 331.251C1080.49 332.505 1080.24 333.852 1079.92 335.293L1073.44 365.937H1065.07L1071.84 334.353C1072.15 332.912 1072.37 331.69 1072.5 330.687C1072.62 329.685 1072.68 328.713 1072.68 327.773C1072.68 325.893 1072.15 324.389 1071.09 323.261C1070.08 322.133 1068.49 321.569 1066.29 321.569C1064.79 321.569 1063.19 322.008 1061.5 322.885C1059.81 323.7 1058.15 324.985 1056.52 326.739C1054.89 328.494 1053.41 330.75 1052.1 333.507C1050.78 336.202 1049.72 339.429 1048.9 343.189L1044.11 365.937H1035.84L1042.51 334.353C1042.82 332.912 1043.04 331.721 1043.17 330.781C1043.29 329.779 1043.36 328.901 1043.36 328.149C1043.36 326.081 1042.89 324.483 1041.95 323.355C1041.01 322.165 1039.44 321.569 1037.25 321.569C1035.74 321.569 1034.11 321.977 1032.36 322.791C1030.67 323.606 1029.01 324.922 1027.38 326.739C1025.75 328.494 1024.24 330.813 1022.86 333.695C1021.49 336.578 1020.36 340.087 1019.48 344.223L1014.87 365.937H1006.6Z" fill="white"/>
<path d="M1115.55 366.877C1111.66 366.877 1108.34 366.125 1105.58 364.621C1102.89 363.055 1100.82 360.861 1099.38 358.041C1098 355.159 1097.31 351.775 1097.31 347.889C1097.31 343.879 1097.88 339.931 1099 336.045C1100.19 332.097 1101.89 328.525 1104.08 325.329C1106.27 322.071 1108.91 319.47 1111.98 317.527C1115.11 315.585 1118.62 314.613 1122.5 314.613C1127.27 314.613 1130.84 315.647 1133.22 317.715C1135.66 319.783 1136.89 322.666 1136.89 326.363C1136.89 328.807 1136.32 331.126 1135.19 333.319C1134.07 335.45 1132.31 337.33 1129.93 338.959C1127.55 340.589 1124.51 341.873 1120.81 342.813C1117.11 343.691 1112.67 344.129 1107.46 344.129H1105.87C1105.8 344.693 1105.74 345.289 1105.68 345.915C1105.68 346.542 1105.68 347.106 1105.68 347.607C1105.68 351.43 1106.62 354.469 1108.5 356.725C1110.38 358.919 1113.23 360.015 1117.05 360.015C1119.43 360.015 1121.69 359.671 1123.82 358.981C1125.95 358.292 1128.27 357.352 1130.78 356.161V363.211C1128.39 364.277 1126.04 365.154 1123.73 365.843C1121.47 366.533 1118.74 366.877 1115.55 366.877ZM1107.75 337.455C1111.51 337.455 1114.98 337.142 1118.18 336.515C1121.38 335.826 1123.95 334.729 1125.89 333.225C1127.83 331.659 1128.8 329.591 1128.8 327.021C1128.8 325.392 1128.24 324.076 1127.11 323.073C1126.04 322.008 1124.35 321.475 1122.03 321.475C1120.03 321.475 1118.05 322.102 1116.11 323.355C1114.17 324.609 1112.41 326.426 1110.85 328.807C1109.28 331.189 1108.03 334.071 1107.09 337.455H1107.75Z" fill="white"/>
<path d="M1146.01 366.595C1145.19 366.595 1144.44 366.501 1143.75 366.313C1143.06 366.188 1142.53 366.063 1142.15 365.937V358.793C1142.59 358.981 1143.06 359.138 1143.56 359.263C1144.06 359.326 1144.63 359.357 1145.25 359.357C1146.76 359.357 1148.07 359.013 1149.2 358.323C1150.39 357.571 1151.49 356.412 1152.49 354.845C1153.49 353.279 1154.5 351.242 1155.5 348.735C1156.57 346.229 1157.69 343.221 1158.88 339.711C1160.33 335.513 1161.7 331.878 1163.02 328.807C1164.34 325.737 1165.81 323.199 1167.44 321.193C1169.13 319.125 1171.2 317.59 1173.64 316.587C1176.09 315.585 1179.13 315.083 1182.76 315.083C1184.89 315.083 1186.96 315.24 1188.96 315.553C1190.97 315.804 1192.79 316.18 1194.42 316.681L1183.89 365.937H1175.52L1185.02 322.415C1184.58 322.29 1184.04 322.196 1183.42 322.133C1182.79 322.071 1182.13 322.039 1181.44 322.039C1178.87 322.039 1176.78 322.666 1175.15 323.919C1173.58 325.11 1172.14 327.178 1170.82 330.123C1169.51 333.069 1167.94 337.205 1166.12 342.531C1164.74 346.417 1163.43 349.863 1162.17 352.871C1160.92 355.817 1159.57 358.323 1158.13 360.391C1156.69 362.397 1155 363.932 1153.06 364.997C1151.11 366.063 1148.76 366.595 1146.01 366.595Z" fill="white"/>
<path d="M1221.76 366.877C1219.26 366.877 1217.03 366.407 1215.09 365.467C1213.21 364.527 1211.74 363.117 1210.67 361.237C1209.67 359.357 1209.17 357.07 1209.17 354.375C1209.17 352.934 1209.26 351.587 1209.45 350.333C1209.7 349.017 1209.95 347.67 1210.2 346.291L1216.78 315.553H1225.15L1218.38 347.231C1218.13 348.61 1217.91 349.801 1217.72 350.803C1217.6 351.806 1217.53 352.715 1217.53 353.529C1217.53 355.535 1218.04 357.133 1219.04 358.323C1220.1 359.451 1221.8 360.015 1224.11 360.015C1226.25 360.015 1228.53 359.263 1230.98 357.759C1233.48 356.255 1235.8 353.842 1237.93 350.521C1240.06 347.2 1241.72 342.782 1242.91 337.267L1247.52 315.553H1255.7L1244.98 365.937H1238.21L1239.25 356.631H1238.78C1237.59 358.135 1236.18 359.702 1234.55 361.331C1232.98 362.898 1231.13 364.214 1229 365.279C1226.93 366.345 1224.52 366.877 1221.76 366.877Z" fill="white"/>
</svg>
