<?xml version="1.0" encoding="UTF-8"?>
<svg version="1.1" viewBox="0 0 2048 570" width="1242" height="346" xmlns="http://www.w3.org/2000/svg">
    <path transform="translate(0)" d="m0 0h2048v570h-2048z" fill="none"/>
    <path transform="translate(752,82)" d="m0 0h178l21 3 15 5 13 7 9 7 7 8 6 12 3 14v10l-3 14-6 11-9 10-14 9-14 6-9 2 11 14 13 16 20 25 11 14 9 11 1 2h-55l-7-8-12-16-16-21-8-10-5-6-11-8-10-5-14-4-54-1-1-1v-36l104-1 14-2 9-4 6-5 3-8v-8l-3-7-5-5-9-4-17-2-125-1v163h-46z" fill="#fff"/>
    <path transform="translate(1350,82)" d="m0 0h45l17 17 8 7 35 35 8 7 32 32 8 7 21 21 8 7 2 2v-84l1-51h49v200h-46l-8-7-16-15-18-18-8-7-18-18-8-7-17-17-8-7-12-12-8-7-13-13-4-3-1 131h-49z" fill="#fff"/>
    <path transform="translate(292,68)" d="m0 0h41l19 3 21 6 19 8 14 8 11 8v3l-14 12-13 12-5 1-10-7-16-8-16-5-21-3h-20l-17 2-21 6-16 8-10 7-10 10-9 16-3 13v14l4 13 8 13 6 7 13 10 19 9 13 4 14 3 7 1h24l19-3 21-7 10-5 1-29h-61l8-16 10-18 2-3h88v83l-17 12-17 9-21 8-25 6-25 2h-11l-23-2-22-5-18-6-17-8-12-8-11-9-13-13-10-15-7-16-3-12-1-7v-15l3-16 5-13 8-13 11-13 10-9 15-10 17-9 19-7 21-5z" fill="#fff"/>
    <path transform="translate(560,82)" d="m0 0h48l6 9 13 23 32 56 15 26 12 21 15 27 13 23 8 13v2h-49l-3-3-16-29-13-23-28-50-15-27-11-19h-2l-10 15-25 37-17 25-1 1 72 1 8 13 13 23v1l-86 1-14 3-16 8-10 9-10 13-1 1h-54l1-4 14-22 11-17 14-22 16-25 11-17 15-24 16-25 14-22z" fill="#fff"/>
    <path transform="translate(1150,82)" d="m0 0h48l15 23 12 19 13 21 11 17 14 22 10 15 15 24 11 17 16 25 10 15-1 2h-54l-8-10-7-8-9-7-13-6-14-3-85-1 2-5 10-18 8-14h73l-12-17-10-15-17-25-8-12-7-10h-2l-12 22-13 23-25 45-14 25-13 23-7 12-2 1h-48l1-4 16-29 14-24 14-25 14-24 13-23 16-28 13-23z" fill="#fff"/>
    <path transform="translate(1613,82)" d="m0 0h224v37l-89 1v161l-1 1h-44l-1-65v-97l-89-1-1-4v-32z" fill="#fff"/>
    <path transform="translate(1149,368)" d="m0 0h7l1 45 8-11 22-33 1-1h9v59h-7l-1-1v-41l1-5h-2l-2 5-25 37-4 5h-7l-1-1z" fill="#fff"/>
    <path transform="translate(1319,367)" d="m0 0h6l3 4 18 47 3 9-9-1-6-15v-2h-23l-7 17-1 1h-7l1-5 11-29 10-25z" fill="#fff"/>
    <path transform="translate(729,367)" d="m0 0h5l3 4 20 52v4h-6l-3-3-5-14-1-1h-23l-1 5-6 13h-7l3-10 8-21 11-28z" fill="#fff"/>
    <path transform="translate(785,368)" d="m0 0h9v25l29-1v-24h9l-1 59h-7v-28h-31v28h-7l-1-1z" fill="#fff"/>
    <path transform="translate(1067,368)" d="m0 0h8l1 24h29v-24h8v59h-7v-28h-31v28h-7l-1-1z" fill="#fff"/>
    <path transform="translate(1233,368)" d="m0 0h7v26l8-7 14-15 4-4h8v2l-13 13-7 8-4 6 7 7 9 11 9 10v2h-8l-8-8-9-11-9-9-1 28h-7z" fill="#fff"/>
    <path transform="translate(933,368)" d="m0 0h34v6h-26v19h24v6h-24v21h25l1 1v5l-1 1h-32l-1-1z" fill="#fff"/>
    <path transform="translate(993,368)" d="m0 0h9l13 21 8-11 6-9 1-1h8l-6 10-11 17 2 5 14 22 2 5h-8l-6-9-9-14v-2h-2l-2 5-11 18-3 2h-6l1-4 14-22 3-5-7-12-10-14z" fill="#fff"/>
    <path transform="translate(658,367)" d="m0 0h17l8 4-2 4-4 1-3-1h-15l-8 5-4 9v17l4 8 5 4 7 2h8l9-1v6l-9 3h-10l-11-3-7-6-5-11-1-6v-9l2-9 6-10 7-5z" fill="#fff"/>
    <path transform="translate(860,368)" d="m0 0h45v6h-19v53h-7l-1-1v-45l1-7h-19z" fill="#fff"/>
    <path transform="translate(1322,378)" d="m0 0 2 2 7 21-2 1-15-1 1-6 6-16z" fill="#FEFEFE"/>
    <path transform="translate(730,378)" d="m0 0 3 3 7 18v2h-17l1-5z" fill="#FEFEFE"/>
</svg>
