<?xml version="1.0" standalone="no"?>
<!DOCTYPE svg PUBLIC "-//W3C//DTD SVG 20010904//EN"
 "http://www.w3.org/TR/2001/REC-SVG-20010904/DTD/svg10.dtd">
<svg version="1.0" xmlns="http://www.w3.org/2000/svg"
 width="1242.000000pt" height="346.000000pt" viewBox="0 0 1242.000000 346.000000"
 preserveAspectRatio="xMidYMid meet">

<g transform="translate(0.000000,346.000000) scale(0.100000,-0.100000)"
fill="#000000" stroke="none">
<path d="M1715 3031 c-11 -5 -45 -12 -75 -16 -30 -4 -59 -10 -65 -14 -5 -4
-35 -15 -65 -25 -30 -10 -59 -23 -65 -27 -5 -5 -17 -9 -27 -9 -10 0 -18 -4
-18 -10 0 -5 -6 -10 -14 -10 -21 0 -161 -103 -198 -146 -18 -21 -39 -43 -45
-50 -7 -7 -13 -17 -13 -23 0 -6 -4 -11 -8 -11 -14 0 -54 -89 -73 -164 -23 -87
-24 -136 -4 -218 52 -213 226 -391 465 -477 19 -7 44 -17 55 -21 21 -9 45 -14
135 -31 75 -15 426 -7 442 9 7 7 27 12 45 12 18 0 33 5 33 10 0 6 7 10 16 10
24 0 114 33 114 42 0 5 7 8 15 8 16 0 118 59 123 72 2 4 8 8 13 8 5 0 18 8 29
17 19 17 20 29 20 260 l0 243 -263 0 -262 0 -18 -37 c-9 -21 -33 -66 -52 -100
l-35 -63 171 0 c134 0 173 -3 185 -14 9 -10 14 -38 14 -87 0 -66 -2 -74 -27
-95 -16 -13 -36 -24 -45 -24 -10 0 -18 -4 -18 -8 0 -9 -84 -37 -140 -48 -70
-13 -246 -16 -300 -4 -134 28 -259 82 -323 141 -23 21 -45 39 -49 39 -5 0 -8
7 -8 15 0 8 -4 15 -8 15 -4 0 -21 25 -37 57 -27 50 -30 66 -30 143 0 54 5 98
14 116 38 80 46 94 53 94 5 0 8 7 8 15 0 8 3 15 8 15 4 0 24 16 45 36 40 38
183 114 214 114 11 0 23 4 29 9 11 10 161 31 221 31 55 0 183 -19 205 -31 10
-5 25 -9 35 -9 23 0 183 -79 183 -91 0 -11 47 -12 52 -1 2 4 36 36 76 71 l74
64 -31 29 c-16 15 -34 28 -40 28 -5 0 -11 3 -13 8 -1 4 -34 22 -73 40 -38 19
-78 38 -87 43 -10 5 -26 9 -36 9 -10 0 -22 3 -26 8 -28 28 -447 56 -501 33z"/>
<path d="M3386 2927 c-14 -19 -26 -37 -26 -41 0 -4 -10 -22 -23 -39 -12 -18
-28 -41 -34 -52 -68 -110 -127 -201 -134 -203 -5 -2 -9 -8 -9 -14 0 -6 -11
-26 -25 -44 -14 -18 -25 -35 -25 -39 0 -9 -84 -140 -92 -143 -4 -2 -8 -10 -8
-17 0 -7 -4 -15 -8 -17 -10 -4 -162 -246 -162 -258 0 -4 -4 -10 -8 -12 -5 -1
-34 -46 -67 -98 -32 -52 -62 -96 -66 -98 -5 -2 -9 -8 -9 -14 0 -5 -11 -24 -25
-42 -14 -18 -25 -36 -25 -39 0 -4 71 -7 158 -7 l159 0 31 43 c39 55 92 107
109 107 7 0 13 4 13 8 0 11 55 31 130 48 46 10 134 14 304 14 227 0 238 1 224
18 -8 9 -21 32 -29 50 -8 17 -17 32 -21 32 -5 0 -8 5 -8 11 0 7 -12 31 -27 55
l-28 44 -212 0 c-116 0 -214 4 -217 9 -3 5 3 20 14 34 11 14 20 30 20 35 0 6
3 12 8 14 4 2 39 50 77 108 39 58 72 107 75 110 8 8 84 124 89 135 10 22 41
47 54 42 7 -3 27 -31 43 -64 16 -32 31 -60 34 -63 8 -8 28 -43 47 -80 9 -19
33 -62 53 -95 19 -33 42 -73 50 -90 8 -16 18 -32 21 -35 3 -3 14 -23 25 -45
10 -22 20 -42 23 -45 7 -6 56 -93 79 -140 9 -19 23 -41 30 -48 6 -7 12 -20 12
-28 0 -8 5 -14 10 -14 6 0 10 -9 10 -20 0 -11 5 -20 10 -20 6 0 10 -4 10 -9 0
-5 15 -34 33 -65 l32 -56 143 0 c88 0 142 4 142 10 0 6 -3 10 -8 10 -4 0 -13
14 -20 30 -8 17 -19 36 -25 43 -7 7 -24 35 -38 62 -47 93 -84 160 -90 165 -3
3 -20 34 -39 70 -44 86 -54 104 -61 110 -6 5 -37 59 -75 130 -11 19 -22 37
-26 38 -5 2 -8 10 -8 17 0 8 -6 20 -12 27 -13 13 -44 69 -97 173 -14 28 -29
52 -32 55 -15 12 -59 91 -59 105 0 8 -4 15 -10 15 -5 0 -12 11 -16 25 -3 14
-10 25 -15 25 -5 0 -9 6 -9 14 0 8 -3 16 -7 18 -5 2 -15 17 -23 33 l-16 30
-136 3 -137 3 -25 -34z"/>
<path d="M4577 2954 c-4 -4 -7 -277 -7 -606 l0 -598 135 0 135 0 0 495 0 495
415 0 c450 0 463 -1 526 -58 49 -43 45 -133 -9 -180 -54 -48 -85 -52 -447 -52
l-335 0 0 -105 0 -104 153 -4 c83 -2 172 -8 197 -14 102 -21 189 -84 274 -198
25 -33 49 -65 53 -70 5 -6 28 -37 52 -70 25 -33 47 -62 51 -65 3 -3 16 -20 29
-37 l22 -33 155 0 c85 0 154 3 154 8 0 4 -13 21 -28 38 -60 69 -72 84 -72 90
0 3 -6 11 -12 18 -7 7 -24 27 -38 45 -14 18 -30 38 -35 44 -6 7 -30 37 -55 67
-25 30 -48 57 -52 58 -5 2 -8 10 -8 17 0 7 -4 15 -8 17 -5 2 -23 23 -41 47
l-32 45 38 14 c148 55 219 109 265 202 35 68 33 195 -4 270 -28 59 -87 125
-119 135 -10 4 -19 11 -19 16 0 5 -8 9 -18 9 -10 0 -22 4 -27 9 -15 13 -75 33
-135 44 -62 11 -1142 21 -1153 11z"/>
<path d="M6930 2867 c-30 -50 -64 -110 -75 -132 -11 -22 -22 -42 -25 -45 -3
-3 -13 -21 -24 -40 -10 -19 -27 -50 -37 -68 -77 -135 -99 -175 -99 -182 0 -5
-4 -10 -9 -12 -7 -3 -26 -35 -85 -143 -6 -11 -13 -22 -16 -25 -3 -3 -14 -24
-25 -47 -11 -24 -23 -43 -27 -43 -5 0 -8 -5 -8 -11 0 -7 -17 -39 -38 -73 -20
-34 -44 -74 -52 -91 -8 -16 -21 -36 -27 -43 -7 -7 -13 -20 -13 -28 0 -8 -4
-14 -10 -14 -5 0 -10 -7 -10 -15 0 -9 -11 -33 -25 -55 -14 -22 -25 -42 -25
-45 0 -3 64 -4 141 -3 130 3 143 5 153 23 6 11 13 22 16 25 3 3 17 28 31 55
42 81 64 120 69 125 3 3 14 23 25 45 11 22 22 42 25 45 5 5 27 45 69 125 14
28 29 52 32 55 3 3 14 24 24 48 11 23 22 42 26 42 4 0 9 8 12 18 3 9 24 49 46
87 22 39 54 97 71 130 45 86 55 98 79 90 12 -3 21 -12 21 -18 0 -7 11 -24 25
-39 14 -15 25 -30 25 -33 0 -5 80 -126 90 -135 3 -3 10 -13 15 -22 6 -9 40
-62 78 -116 37 -55 67 -105 67 -113 0 -12 -35 -13 -204 -11 -208 4 -246 -2
-246 -33 0 -8 -4 -15 -8 -15 -4 0 -13 -12 -19 -27 -7 -16 -25 -50 -42 -78
l-29 -50 256 -6 c269 -6 319 -13 391 -51 51 -26 121 -88 121 -106 0 -7 4 -12
8 -12 5 0 15 -11 22 -25 l13 -25 159 0 c87 0 158 2 158 4 0 8 -95 161 -102
164 -4 2 -8 10 -8 18 0 8 -4 14 -9 14 -5 0 -13 10 -17 23 -4 12 -10 24 -14 27
-4 3 -27 37 -51 75 -24 39 -47 72 -51 73 -4 2 -8 8 -8 14 0 6 -11 26 -25 44
-14 18 -25 35 -25 39 0 6 -51 87 -61 95 -3 3 -8 12 -12 20 -8 18 -30 53 -37
60 -3 3 -26 37 -49 75 -24 39 -48 72 -53 73 -4 2 -8 8 -8 13 0 12 -182 303
-192 307 -4 2 -8 9 -8 15 -1 7 -9 22 -19 35 -18 21 -26 22 -153 22 l-133 0
-55 -93z"/>
<path d="M8195 2943 c-3 -10 -3 -282 1 -605 l7 -588 139 0 138 0 0 400 c0 249
4 400 10 400 5 0 39 -29 76 -65 37 -36 71 -65 76 -65 4 0 8 -5 8 -11 0 -11 25
-39 35 -39 3 0 46 -39 95 -87 49 -49 146 -142 216 -208 70 -66 174 -166 231
-222 l104 -103 135 0 c132 0 134 0 134 23 2 506 -1 1158 -6 1170 -5 15 -24 17
-140 17 l-134 0 0 -394 c0 -217 -3 -401 -6 -410 -3 -9 -10 -16 -15 -16 -5 0
-64 54 -131 120 -68 66 -178 173 -245 237 -67 65 -201 196 -298 291 l-176 172
-124 0 c-108 0 -124 -2 -130 -17z"/>
<path d="M9797 2953 c-4 -3 -7 -53 -7 -110 l0 -103 270 0 270 0 0 -495 0 -495
130 0 130 0 2 493 3 492 268 3 268 2 -3 108 -3 107 -661 3 c-363 1 -664 -1
-667 -5z"/>
<path d="M3946 1202 c-91 -64 -100 -234 -15 -301 45 -35 189 -39 189 -6 0 11
-17 14 -69 13 -104 -1 -141 36 -141 140 0 95 50 152 134 152 15 0 37 -5 48
-11 15 -8 23 -8 32 1 20 20 -22 40 -83 40 -44 -1 -64 -6 -95 -28z"/>
<path d="M4414 1208 c-3 -13 -14 -41 -24 -63 -10 -22 -30 -71 -45 -110 -15
-38 -34 -84 -41 -102 -17 -39 -18 -53 -1 -53 12 1 47 66 47 88 0 8 27 12 85
12 58 0 85 -4 85 -12 0 -29 35 -88 52 -88 14 0 16 4 9 18 -5 9 -21 49 -36 87
-15 39 -33 84 -40 100 -6 17 -18 46 -25 65 -21 59 -33 80 -46 80 -7 0 -16 -10
-20 -22z m44 -75 c6 -15 12 -33 12 -40 0 -7 5 -22 12 -32 19 -31 3 -51 -40
-51 -59 0 -66 15 -39 92 23 69 34 75 55 31z"/>
<path d="M4770 1055 c0 -147 2 -175 15 -175 11 0 15 18 17 78 l3 77 89 3 c55
2 93 -1 100 -8 6 -6 11 -41 11 -78 0 -56 3 -67 18 -70 16 -3 17 10 17 172 0
146 -2 176 -14 176 -20 0 -26 -25 -22 -92 l3 -58 -104 0 -103 0 0 75 c0 60 -3
75 -15 75 -13 0 -15 -26 -15 -175z"/>
<path d="M5227 1223 c-17 -16 -4 -23 42 -23 28 0 52 -4 55 -8 3 -5 6 -77 7
-160 1 -138 2 -152 18 -152 16 0 18 14 18 151 1 169 1 169 71 169 31 0 42 4
42 15 0 13 -20 15 -123 15 -68 0 -127 -3 -130 -7z"/>
<path d="M5667 1224 c-4 -4 -7 -83 -7 -176 l0 -168 100 0 c84 0 98 2 94 15 -5
11 -24 15 -81 15 l-74 0 3 63 3 62 70 5 c53 4 70 9 70 20 0 12 -16 16 -72 18
l-73 3 0 47 c0 27 5 53 12 60 7 7 41 12 81 12 50 0 68 3 65 13 -5 13 -178 23
-191 11z"/>
<path d="M6035 1220 c-3 -5 -1 -10 4 -10 6 0 11 -6 11 -14 0 -8 3 -16 8 -18
15 -6 72 -105 72 -126 0 -11 -7 -27 -15 -36 -8 -8 -15 -19 -15 -24 0 -6 -3
-12 -7 -14 -14 -6 -65 -90 -58 -96 15 -15 72 54 91 110 8 24 31 30 48 12 9 -8
30 -39 48 -69 18 -30 38 -55 45 -55 18 0 16 25 -2 40 -8 7 -15 19 -15 26 0 8
-3 14 -8 14 -4 0 -16 17 -27 38 -11 20 -24 40 -29 44 -9 6 8 53 24 68 10 9 70
107 70 113 0 20 -29 2 -46 -28 -10 -19 -22 -35 -26 -35 -5 0 -8 -5 -8 -12 0
-6 -10 -22 -21 -34 -25 -27 -27 -26 -82 59 -37 56 -50 66 -62 47z"/>
<path d="M6487 1224 c-4 -4 -7 -83 -7 -176 0 -161 1 -168 20 -168 18 0 20 7
20 80 l0 80 94 0 c66 0 95 -4 98 -12 2 -7 4 -43 3 -80 0 -48 4 -68 13 -68 9 0
12 42 12 176 0 136 -3 175 -12 171 -9 -2 -13 -27 -13 -75 l0 -72 -97 0 -97 0
-3 72 c-3 65 -13 89 -31 72z"/>
<path d="M6976 1222 c-2 -4 -4 -83 -4 -175 l1 -167 23 0 c15 0 30 10 41 28 10
15 21 32 26 37 25 31 127 188 127 195 0 4 7 10 15 14 18 6 17 11 15 -151 -1
-106 1 -123 14 -123 14 0 16 23 16 175 0 145 -2 175 -14 175 -8 0 -24 -12 -35
-27 -12 -16 -25 -33 -31 -40 -5 -7 -10 -17 -10 -23 0 -5 -3 -10 -8 -10 -4 0
-16 -16 -26 -35 -11 -19 -23 -35 -28 -35 -4 0 -8 -5 -8 -11 0 -19 -71 -109
-82 -103 -5 3 -9 18 -8 32 1 15 2 78 1 140 -1 99 -8 131 -25 104z"/>
<path d="M7485 1221 c-3 -6 -5 -84 -4 -175 1 -135 4 -166 15 -166 11 0 14 18
14 80 0 112 4 111 114 -13 52 -60 86 -83 86 -59 0 5 -23 33 -51 63 -28 30 -59
66 -69 80 l-19 26 47 53 c99 111 105 120 83 120 -9 0 -22 -13 -125 -122 -25
-27 -50 -48 -56 -48 -6 0 -10 33 -10 85 0 77 -8 102 -25 76z"/>
<path d="M7993 1193 c-34 -79 -71 -174 -83 -213 -4 -14 -15 -42 -24 -62 -16
-37 -16 -38 4 -38 11 0 20 7 20 15 0 8 4 23 9 33 5 9 12 25 15 35 5 14 18 17
84 17 l78 0 17 -38 c9 -21 17 -44 17 -50 0 -7 7 -12 15 -12 8 0 15 5 15 10 0
6 -7 27 -15 47 -8 19 -15 44 -15 54 0 11 -4 19 -9 19 -5 0 -12 13 -16 30 -4
16 -11 32 -16 35 -5 4 -9 17 -9 30 0 13 -4 26 -9 29 -4 3 -11 20 -15 37 -6 34
-23 59 -37 59 -5 0 -17 -17 -26 -37z m64 -97 c28 -72 20 -88 -40 -84 -42 3
-73 31 -51 46 6 4 16 29 24 55 17 64 37 59 67 -17z"/>
</g>
</svg>
