<svg width="100" height="100" viewBox="0 0 428 100" fill="none" xmlns="http://www.w3.org/2000/svg">
<path d="M37.1907 33.48H52.9053V40.8533C50.876 42.1187 48.4987 43.148 45.832 43.912C39.8307 45.5853 33.1493 45.56 27.044 43.744C24.0147 42.8693 21.3533 41.628 19.1173 40.0453C16.792 38.4587 15.0147 36.6347 13.6693 34.4547C12.3733 32.424 11.716 30.112 11.716 27.5787C11.716 25.012 12.336 22.612 13.5653 20.444C14.7693 18.2973 16.456 16.4187 18.6933 14.716C20.9467 13.0867 23.5387 11.848 26.616 10.9333C29.7133 10.0267 32.9827 9.58666 36.6133 9.58666C40.3133 9.58666 43.772 10.0933 46.8733 11.0907C50.152 12.2 52.944 13.6387 55.1733 15.3653L55.9013 15.9307L63.7787 8.90667L62.704 8.092C59.4093 5.6 55.5987 3.64667 51.0347 2.11467C46.5747 0.693336 41.8867 0 36.7 0C31.7853 0 27.244 0.639997 22.7987 1.95866C18.264 3.38 14.3467 5.24534 11.156 7.50267C7.71733 9.92134 4.984 12.7693 3.02933 15.9773C1.01867 19.2973 0 22.924 0 26.7547C0 30.7027 0.990667 34.4307 2.93067 37.8107C4.72933 41.14 7.35733 44.1267 10.736 46.68C13.9813 49.1907 17.8667 51.164 22.276 52.5453C26.7653 53.9827 31.588 54.7107 36.6133 54.7107C42.0613 54.7107 47.2413 53.8693 51.9973 52.2133C56.6053 50.6653 60.768 48.3867 64.3693 45.4413L64.776 45.1093V24.0827H42.2733L37.1907 33.48Z" fill="white"/>
<path d="M115.601 1.64067L144.865 53.07H132.081L110.043 13.6033L95.708 34.9113C97.7133 34.4673 99.9053 34.5167 101.733 34.558L114.473 34.6033L119.959 44.2127L99.28 44.1993C94.0293 44.1993 89.136 46.7953 86.1933 51.1433L84.8907 53.07H70.776L103.541 1.64067H115.601Z" fill="white"/>
<path d="M210.932 27.2233C213.832 24.6753 215.301 21.3127 215.301 17.226C215.301 14.7487 214.736 12.4833 213.62 10.494C212.504 8.506 210.992 6.89 208.989 5.54734C207.112 4.30067 204.835 3.31267 202.189 2.60067C199.475 1.95534 196.708 1.64067 193.729 1.64067H150.865V52.9527H162.587V11.0953H193.661C195.248 11.0953 196.595 11.2153 197.833 11.4713C199.112 11.6767 200.124 12.0073 200.971 12.5033C201.827 12.9607 202.476 13.5367 202.976 14.302C203.416 14.9167 203.647 15.7993 203.647 16.8527C203.647 19.0593 202.835 20.5927 201.147 21.5487C199.343 22.6167 196.893 23.1353 193.661 23.1353H168.56V32.6073H180.019C185.263 32.6073 190.293 35.098 193.472 39.27L203.988 53.07H217.927L201.156 31.99C205.231 31.0087 208.516 29.4073 210.932 27.2233Z" fill="white"/>
<path d="M253.193 1.64067L223.927 53.07H236.712L258.755 13.6007L273.269 35.09C271.728 34.6487 270.132 34.5847 268.665 34.5767L254.321 34.602L248.835 44.2127L269.512 44.1993C274.763 44.1993 279.656 46.7953 282.599 51.1433L283.901 53.07H298.016L265.251 1.64067H253.193Z" fill="white"/>
<path d="M351.555 36.7913L315.624 1.69933H304.016L304.155 53.0113H316.703V18.7087L352.285 53.0113H364.404V1.69933H351.555V36.7913Z" fill="white"/>
<path d="M370.404 1.69933V11.154H393.539V53.0113H404.975V11.154H427.888V1.69933H370.404Z" fill="white"/>
<path d="M141.03 92.7107H137.79L128.1 81.8507V92.7107H125.4V71.2907H128.1V81.6707L137.55 71.2907H140.61L131.31 81.7007L141.03 92.7107Z" fill="white"/>
<path d="M155.195 76.3307C156.575 76.3307 157.755 76.6307 158.735 77.2307C159.735 77.8307 160.495 78.6807 161.015 79.7807C161.555 80.8607 161.825 82.1307 161.825 83.5907V85.1807H150.815C150.855 87.0007 151.315 88.3907 152.195 89.3507C153.095 90.2907 154.345 90.7607 155.945 90.7607C156.965 90.7607 157.865 90.6707 158.645 90.4907C159.445 90.2907 160.265 90.0107 161.105 89.6507V91.9607C160.285 92.3207 159.475 92.5807 158.675 92.7407C157.875 92.9207 156.925 93.0107 155.825 93.0107C154.305 93.0107 152.955 92.7007 151.775 92.0807C150.615 91.4607 149.705 90.5407 149.045 89.3207C148.405 88.0807 148.085 86.5707 148.085 84.7907C148.085 83.0307 148.375 81.5207 148.955 80.2607C149.555 79.0007 150.385 78.0307 151.445 77.3507C152.525 76.6707 153.775 76.3307 155.195 76.3307ZM155.165 78.4907C153.905 78.4907 152.905 78.9007 152.165 79.7207C151.445 80.5207 151.015 81.6407 150.875 83.0807H159.065C159.065 82.1607 158.925 81.3607 158.645 80.6807C158.365 80.0007 157.935 79.4707 157.355 79.0907C156.795 78.6907 156.065 78.4907 155.165 78.4907Z" fill="white"/>
<path d="M178.969 76.3307C180.949 76.3307 182.539 77.0207 183.739 78.4007C184.959 79.7807 185.569 81.8607 185.569 84.6407C185.569 86.4607 185.289 88.0007 184.729 89.2607C184.189 90.5007 183.419 91.4407 182.419 92.0807C181.439 92.7007 180.279 93.0107 178.939 93.0107C178.119 93.0107 177.389 92.9007 176.749 92.6807C176.109 92.4607 175.559 92.1807 175.099 91.8407C174.659 91.4807 174.279 91.0907 173.959 90.6707H173.779C173.819 91.0107 173.859 91.4407 173.899 91.9607C173.939 92.4807 173.959 92.9307 173.959 93.3107V99.9107H171.319V76.6307H173.479L173.839 78.8207H173.959C174.279 78.3607 174.659 77.9407 175.099 77.5607C175.559 77.1807 176.099 76.8807 176.719 76.6607C177.359 76.4407 178.109 76.3307 178.969 76.3307ZM178.489 78.5507C177.409 78.5507 176.539 78.7607 175.879 79.1807C175.219 79.5807 174.739 80.1907 174.439 81.0107C174.139 81.8307 173.979 82.8707 173.959 84.1307V84.6407C173.959 85.9607 174.099 87.0807 174.379 88.0007C174.659 88.9207 175.129 89.6207 175.789 90.1007C176.469 90.5807 177.389 90.8207 178.549 90.8207C179.529 90.8207 180.329 90.5507 180.949 90.0107C181.589 89.4707 182.059 88.7407 182.359 87.8207C182.679 86.8807 182.839 85.8107 182.839 84.6107C182.839 82.7707 182.479 81.3007 181.759 80.2007C181.059 79.1007 179.969 78.5507 178.489 78.5507Z" fill="white"/>
<path d="M201.266 76.3607C203.226 76.3607 204.676 76.7907 205.616 77.6507C206.556 78.5107 207.026 79.8807 207.026 81.7607V92.7107H205.106L204.596 90.4307H204.476C204.016 91.0107 203.536 91.5007 203.036 91.9007C202.556 92.2807 201.996 92.5607 201.356 92.7407C200.736 92.9207 199.976 93.0107 199.076 93.0107C198.116 93.0107 197.246 92.8407 196.466 92.5007C195.706 92.1607 195.106 91.6407 194.666 90.9407C194.226 90.2207 194.006 89.3207 194.006 88.2407C194.006 86.6407 194.636 85.4107 195.896 84.5507C197.156 83.6707 199.096 83.1907 201.716 83.1107L204.446 83.0207V82.0607C204.446 80.7207 204.156 79.7907 203.576 79.2707C202.996 78.7507 202.176 78.4907 201.116 78.4907C200.276 78.4907 199.476 78.6207 198.716 78.8807C197.956 79.1207 197.246 79.4007 196.586 79.7207L195.776 77.7407C196.476 77.3607 197.306 77.0407 198.266 76.7807C199.226 76.5007 200.226 76.3607 201.266 76.3607ZM202.046 84.9407C200.046 85.0207 198.656 85.3407 197.876 85.9007C197.116 86.4607 196.736 87.2507 196.736 88.2707C196.736 89.1707 197.006 89.8307 197.546 90.2507C198.106 90.6707 198.816 90.8807 199.676 90.8807C201.036 90.8807 202.166 90.5107 203.066 89.7707C203.966 89.0107 204.416 87.8507 204.416 86.2907V84.8507L202.046 84.9407Z" fill="white"/>
<path d="M234.642 76.6307V92.7107H232.272V82.4507C232.272 82.0307 232.282 81.5907 232.302 81.1307C232.342 80.6707 232.382 80.2207 232.422 79.7807H232.332L227.082 92.7107H224.862L219.762 79.7807H219.672C219.712 80.2207 219.732 80.6707 219.732 81.1307C219.752 81.5907 219.762 82.0607 219.762 82.5407V92.7107H217.392V76.6307H220.902L225.972 89.5607L231.132 76.6307H234.642Z" fill="white"/>
<path d="M247.665 86.4407C247.665 86.6207 247.655 86.8807 247.635 87.2207C247.635 87.5407 247.625 87.8907 247.605 88.2707C247.585 88.6307 247.565 88.9807 247.545 89.3207C247.525 89.6407 247.505 89.9007 247.485 90.1007L256.095 76.6307H259.335V92.7107H256.875V83.2307C256.875 82.9107 256.875 82.4907 256.875 81.9707C256.895 81.4507 256.915 80.9407 256.935 80.4407C256.955 79.9207 256.975 79.5307 256.995 79.2707L248.445 92.7107H245.175V76.6307H247.665V86.4407Z" fill="white"/>
<path d="M279.362 76.6307H282.242L275.372 84.3707L282.812 92.7107H279.752L272.492 84.5507V92.7107H269.852V76.6307H272.492V84.4307L279.362 76.6307Z" fill="white"/>
<path d="M297.221 76.3607C299.181 76.3607 300.631 76.7907 301.571 77.6507C302.511 78.5107 302.981 79.8807 302.981 81.7607V92.7107H301.061L300.551 90.4307H300.431C299.971 91.0107 299.491 91.5007 298.991 91.9007C298.511 92.2807 297.951 92.5607 297.311 92.7407C296.691 92.9207 295.931 93.0107 295.031 93.0107C294.071 93.0107 293.201 92.8407 292.421 92.5007C291.661 92.1607 291.061 91.6407 290.621 90.9407C290.181 90.2207 289.961 89.3207 289.961 88.2407C289.961 86.6407 290.591 85.4107 291.851 84.5507C293.111 83.6707 295.051 83.1907 297.671 83.1107L300.401 83.0207V82.0607C300.401 80.7207 300.111 79.7907 299.531 79.2707C298.951 78.7507 298.131 78.4907 297.071 78.4907C296.231 78.4907 295.431 78.6207 294.671 78.8807C293.911 79.1207 293.201 79.4007 292.541 79.7207L291.731 77.7407C292.431 77.3607 293.261 77.0407 294.221 76.7807C295.181 76.5007 296.181 76.3607 297.221 76.3607ZM298.001 84.9407C296.001 85.0207 294.611 85.3407 293.831 85.9007C293.071 86.4607 292.691 87.2507 292.691 88.2707C292.691 89.1707 292.961 89.8307 293.501 90.2507C294.061 90.6707 294.771 90.8807 295.631 90.8807C296.991 90.8807 298.121 90.5107 299.021 89.7707C299.921 89.0107 300.371 87.8507 300.371 86.2907V84.8507L298.001 84.9407Z" fill="white"/>
</svg>
