<svg width="100" height="51" viewBox="0 0 448 120" fill="none" xmlns="http://www.w3.org/2000/svg">
      <path d="M47.1907 43.48H62.9053V50.8533C60.876 52.1187 58.4987 53.148 55.832 53.912C49.8307 55.5853 43.1493 55.56 37.044 53.744C34.0147 52.8693 31.3533 51.628 29.1173 50.0453C26.792 48.4587 25.0147 46.6347 23.6693 44.4547C22.3733 42.424 21.716 40.112 21.716 37.5787C21.716 35.012 22.336 32.612 23.5653 30.444C24.7693 28.2973 26.456 26.4187 28.6933 24.716C30.9467 23.0867 33.5387 21.848 36.616 20.9333C39.7133 20.0267 42.9827 19.5867 46.6133 19.5867C50.3133 19.5867 53.772 20.0933 56.8733 21.0907C60.152 22.2 62.944 23.6387 65.1733 25.3653L65.9013 25.9307L73.7787 18.9067L72.704 18.092C69.4093 15.6 65.5987 13.6467 61.0347 12.1147C56.5747 10.6933 51.8867 10 46.7 10C41.7853 10 37.244 10.64 32.7987 11.9587C28.264 13.38 24.3467 15.2453 21.156 17.5027C17.7173 19.9213 14.984 22.7693 13.0293 25.9773C11.0187 29.2973 10 32.924 10 36.7547C10 40.7027 10.9907 44.4307 12.9307 47.8107C14.7293 51.14 17.3573 54.1267 20.736 56.68C23.9813 59.1907 27.8667 61.164 32.276 62.5453C36.7653 63.9827 41.588 64.7107 46.6133 64.7107C52.0613 64.7107 57.2413 63.8693 61.9973 62.2133C66.6053 60.6653 70.768 58.3867 74.3693 55.4413L74.776 55.1093V34.0827H52.2733L47.1907 43.48Z" fill="#4F4C4D"/>
      <path d="M125.601 11.6407L154.865 63.07H142.081L120.043 23.6033L105.708 44.9113C107.713 44.4673 109.905 44.5167 111.733 44.558L124.473 44.6033L129.959 54.2127L109.28 54.1993C104.029 54.1993 99.136 56.7953 96.1933 61.1433L94.8907 63.07H80.776L113.541 11.6407H125.601Z" fill="#4F4C4D"/>
      <path d="M220.932 37.2233C223.832 34.6753 225.301 31.3127 225.301 27.226C225.301 24.7487 224.736 22.4833 223.62 20.494C222.504 18.506 220.992 16.89 218.989 15.5473C217.112 14.3007 214.835 13.3127 212.189 12.6007C209.475 11.9553 206.708 11.6407 203.729 11.6407H160.865V62.9527H172.587V21.0953H203.661C205.248 21.0953 206.595 21.2153 207.833 21.4713C209.112 21.6767 210.124 22.0073 210.971 22.5033C211.827 22.9607 212.476 23.5367 212.976 24.302C213.416 24.9167 213.647 25.7993 213.647 26.8527C213.647 29.0593 212.835 30.5927 211.147 31.5487C209.343 32.6167 206.893 33.1353 203.661 33.1353H178.56V42.6073H190.019C195.263 42.6073 200.293 45.098 203.472 49.27L213.988 63.07H227.927L211.156 41.99C215.231 41.0087 218.516 39.4073 220.932 37.2233Z" fill="#4F4C4D"/>
      <path d="M263.193 11.6407L233.927 63.07H246.712L268.755 23.6007L283.269 45.09C281.728 44.6487 280.132 44.5847 278.665 44.5767L264.321 44.602L258.835 54.2127L279.512 54.1993C284.763 54.1993 289.656 56.7953 292.599 61.1433L293.901 63.07H308.016L275.251 11.6407H263.193Z" fill="#4F4C4D"/>
      <path d="M361.555 46.7913L325.624 11.6993H314.016L314.155 63.0113H326.703V28.7087L362.285 63.0113H374.404V11.6993H361.555V46.7913Z" fill="#4F4C4D"/>
      <path d="M380.404 11.6993V21.154H403.539V63.0113H414.975V21.154H437.888V11.6993H380.404Z" fill="#4F4C4D"/>
      <path d="M151.03 102.711H147.79L138.1 91.8507V102.711H135.4V81.2907H138.1V91.6707L147.55 81.2907H150.61L141.31 91.7007L151.03 102.711Z" fill="#4F4C4D"/>
      <path d="M165.195 86.3307C166.575 86.3307 167.755 86.6307 168.735 87.2307C169.735 87.8307 170.495 88.6807 171.015 89.7807C171.555 90.8607 171.825 92.1307 171.825 93.5907V95.1807H160.815C160.855 97.0007 161.315 98.3907 162.195 99.3507C163.095 100.291 164.345 100.761 165.945 100.761C166.965 100.761 167.865 100.671 168.645 100.491C169.445 100.291 170.265 100.011 171.105 99.6507V101.961C170.285 102.321 169.475 102.581 168.675 102.741C167.875 102.921 166.925 103.011 165.825 103.011C164.305 103.011 162.955 102.701 161.775 102.081C160.615 101.461 159.705 100.541 159.045 99.3207C158.405 98.0807 158.085 96.5707 158.085 94.7907C158.085 93.0307 158.375 91.5207 158.955 90.2607C159.555 89.0007 160.385 88.0307 161.445 87.3507C162.525 86.6707 163.775 86.3307 165.195 86.3307ZM165.165 88.4907C163.905 88.4907 162.905 88.9007 162.165 89.7207C161.445 90.5207 161.015 91.6407 160.875 93.0807H169.065C169.065 92.1607 168.925 91.3607 168.645 90.6807C168.365 90.0007 167.935 89.4707 167.355 89.0907C166.795 88.6907 166.065 88.4907 165.165 88.4907Z" fill="#4F4C4D"/>
      <path d="M188.969 86.3307C190.949 86.3307 192.539 87.0207 193.739 88.4007C194.959 89.7807 195.569 91.8607 195.569 94.6407C195.569 96.4607 195.289 98.0007 194.729 99.2607C194.189 100.501 193.419 101.441 192.419 102.081C191.439 102.701 190.279 103.011 188.939 103.011C188.119 103.011 187.389 102.901 186.749 102.681C186.109 102.461 185.559 102.181 185.099 101.841C184.659 101.481 184.279 101.091 183.959 100.671H183.779C183.819 101.011 183.859 101.441 183.899 101.961C183.939 102.481 183.959 102.931 183.959 103.311V109.911H181.319V86.6307H183.479L183.839 88.8207H183.959C184.279 88.3607 184.659 87.9407 185.099 87.5607C185.559 87.1807 186.099 86.8807 186.719 86.6607C187.359 86.4407 188.109 86.3307 188.969 86.3307ZM188.489 88.5507C187.409 88.5507 186.539 88.7607 185.879 89.1807C185.219 89.5807 184.739 90.1907 184.439 91.0107C184.139 91.8307 183.979 92.8707 183.959 94.1307V94.6407C183.959 95.9607 184.099 97.0807 184.379 98.0007C184.659 98.9207 185.129 99.6207 185.789 100.101C186.469 100.581 187.389 100.821 188.549 100.821C189.529 100.821 190.329 100.551 190.949 100.011C191.589 99.4707 192.059 98.7407 192.359 97.8207C192.679 96.8807 192.839 95.8107 192.839 94.6107C192.839 92.7707 192.479 91.3007 191.759 90.2007C191.059 89.1007 189.969 88.5507 188.489 88.5507Z" fill="#4F4C4D"/>
      <path d="M211.266 86.3607C213.226 86.3607 214.676 86.7907 215.616 87.6507C216.556 88.5107 217.026 89.8807 217.026 91.7607V102.711H215.106L214.596 100.431H214.476C214.016 101.011 213.536 101.501 213.036 101.901C212.556 102.281 211.996 102.561 211.356 102.741C210.736 102.921 209.976 103.011 209.076 103.011C208.116 103.011 207.246 102.841 206.466 102.501C205.706 102.161 205.106 101.641 204.666 100.941C204.226 100.221 204.006 99.3207 204.006 98.2407C204.006 96.6407 204.636 95.4107 205.896 94.5507C207.156 93.6707 209.096 93.1907 211.716 93.1107L214.446 93.0207V92.0607C214.446 90.7207 214.156 89.7907 213.576 89.2707C212.996 88.7507 212.176 88.4907 211.116 88.4907C210.276 88.4907 209.476 88.6207 208.716 88.8807C207.956 89.1207 207.246 89.4007 206.586 89.7207L205.776 87.7407C206.476 87.3607 207.306 87.0407 208.266 86.7807C209.226 86.5007 210.226 86.3607 211.266 86.3607ZM212.046 94.9407C210.046 95.0207 208.656 95.3407 207.876 95.9007C207.116 96.4607 206.736 97.2507 206.736 98.2707C206.736 99.1707 207.006 99.8307 207.546 100.251C208.106 100.671 208.816 100.881 209.676 100.881C211.036 100.881 212.166 100.511 213.066 99.7707C213.966 99.0107 214.416 97.8507 214.416 96.2907V94.8507L212.046 94.9407Z" fill="#4F4C4D"/>
      <path d="M244.642 86.6307V102.711H242.272V92.4507C242.272 92.0307 242.282 91.5907 242.302 91.1307C242.342 90.6707 242.382 90.2207 242.422 89.7807H242.332L237.082 102.711H234.862L229.762 89.7807H229.672C229.712 90.2207 229.732 90.6707 229.732 91.1307C229.752 91.5907 229.762 92.0607 229.762 92.5407V102.711H227.392V86.6307H230.902L235.972 99.5607L241.132 86.6307H244.642Z" fill="#4F4C4D"/>
      <path d="M257.665 96.4407C257.665 96.6207 257.655 96.8807 257.635 97.2207C257.635 97.5407 257.625 97.8907 257.605 98.2707C257.585 98.6307 257.565 98.9807 257.545 99.3207C257.525 99.6407 257.505 99.9007 257.485 100.101L266.095 86.6307H269.335V102.711H266.875V93.2307C266.875 92.9107 266.875 92.4907 266.875 91.9707C266.895 91.4507 266.915 90.9407 266.935 90.4407C266.955 89.9207 266.975 89.5307 266.995 89.2707L258.445 102.711H255.175V86.6307H257.665V96.4407Z" fill="#4F4C4D"/>
      <path d="M289.362 86.6307H292.242L285.372 94.3707L292.812 102.711H289.752L282.492 94.5507V102.711H279.852V86.6307H282.492V94.4307L289.362 86.6307Z" fill="#4F4C4D"/>
      <path d="M307.221 86.3607C309.181 86.3607 310.631 86.7907 311.571 87.6507C312.511 88.5107 312.981 89.8807 312.981 91.7607V102.711H311.061L310.551 100.431H310.431C309.971 101.011 309.491 101.501 308.991 101.901C308.511 102.281 307.951 102.561 307.311 102.741C306.691 102.921 305.931 103.011 305.031 103.011C304.071 103.011 303.201 102.841 302.421 102.501C301.661 102.161 301.061 101.641 300.621 100.941C300.181 100.221 299.961 99.3207 299.961 98.2407C299.961 96.6407 300.591 95.4107 301.851 94.5507C303.111 93.6707 305.051 93.1907 307.671 93.1107L310.401 93.0207V92.0607C310.401 90.7207 310.111 89.7907 309.531 89.2707C308.951 88.7507 308.131 88.4907 307.071 88.4907C306.231 88.4907 305.431 88.6207 304.671 88.8807C303.911 89.1207 303.201 89.4007 302.541 89.7207L301.731 87.7407C302.431 87.3607 303.261 87.0407 304.221 86.7807C305.181 86.5007 306.181 86.3607 307.221 86.3607ZM308.001 94.9407C306.001 95.0207 304.611 95.3407 303.831 95.9007C303.071 96.4607 302.691 97.2507 302.691 98.2707C302.691 99.1707 302.961 99.8307 303.501 100.251C304.061 100.671 304.771 100.881 305.631 100.881C306.991 100.881 308.121 100.511 309.021 99.7707C309.921 99.0107 310.371 97.8507 310.371 96.2907V94.8507L308.001 94.9407Z" fill="#4F4C4D"/>
</svg>