<svg width="100" height="50" viewBox="0 0 676 50" fill="none" xmlns="http://www.w3.org/2000/svg">
<path d="M37.1334 26.5C37.1334 26.5 38.9151 13.1376 38.3593 6.32145C38.1356 3.57781 36.0283 1.53244 33.3543 0.879053C32.0943 0.571206 31.1334 0.500027 31.1334 0.500027L9.13342 0L37.1334 26.5Z" fill="#ED3237"/>
<path d="M128.133 21.6L110.133 130H130.633L148.667 20.9333L128.133 21.6Z" fill="white"/>
<path d="M484.8 29.6C483.867 34.9333 480 57.8667 476.267 80.6667L469.467 122L461.067 122.4C444.667 123.2 431.2 116.4 426 104.667C422.8 97.8667 422.667 84 425.6 75.3333C428.8 66 438.267 56.8 447.333 54.1333C451.333 52.9333 457.467 52 460.933 52L469.133 52.5C469.133 52.5 470.133 46.5333 470.133 46.1333C470.133 45.7333 465.733 45.3333 460.533 45.3333C427.2 45.3333 407.333 58.8 402 84.6667C400.667 91.4667 400.667 93.7333 402.533 100C407.333 116.667 419.6 125.6 440.8 128C453.067 129.467 489.133 128 489.133 128L498.133 73.6L506.933 20H486.4L484.8 29.6Z" fill="white"/>
<path d="M18.1333 26.5L0 129.333H20.6333L34.6667 43.2L18.1333 26.5Z" fill="white"/>
<path d="M352.133 44.8C350.667 45.0667 346.133 46 342.133 46.8C338.133 47.6 332.133 49.7333 328.933 51.6L323.2 54.9333L324.267 45.3333L305.133 46L289.467 129.333H308.633C308.633 129.333 320.667 77.2 322.267 73.3333C334 46.1333 375.467 44.8 377.733 71.6C378 75.3333 376.4 88.8 373.867 103.733L369.333 129.333H390.633C390.633 129.333 393.2 114.667 395.6 99.2C399.333 74.6667 399.6 70.6667 398.133 65.3333C396 57.3333 388.267 50.1333 379.067 47.3333C371.867 45.0667 356.8 43.7333 352.133 44.8Z" fill="white"/>
<path d="M60 47.3333C50 49.4667 45.3333 51.8667 40.2667 57.2C36.9333 60.6667 36.2667 62.4 36.2667 68C36.2667 73.3333 37.0667 75.6 40.2667 79.6C44.2667 84.5333 46.5333 86 69.4667 99.2C82.4 106.667 87.2 112.267 84.2667 116.667C78.8 125.067 59.0667 123.733 36.8 113.467L31.6333 110.5L29.6333 121.5L37.7333 125.333C55.6 130.8 79.7333 131.333 94.1333 126.533C105.867 122.533 111.733 113.733 108.8 104.667C106.667 98.1333 96.8 89.8667 80.4 80.9333C62.5333 71.2 58.1333 67.6 58.1333 62.6667C58.1333 50.6667 80.1333 48.2667 100.4 58L110.133 62L115.133 54.5L107.867 50.9333C94.6667 45.3333 75.7333 43.8667 60 47.3333Z" fill="white"/>
<path d="M231.867 47.3333C215.733 50.8 199.6 62.9333 193.867 75.6C189.867 84.5333 189.733 99.8667 193.733 107.467C201.867 122.933 217.867 129.2 249.2 129.333C262 129.333 262.133 129.333 262.133 129.333L263.633 122H246.133C231.2 121.867 222.533 118.667 217.2 110.533C210.133 99.8667 211.6 81.4667 220.533 68.1333C230.267 53.7333 250.133 48.1333 262.4 56.5333C269.333 61.2 272.467 65.7 273.133 74.5V84H237.633L235.733 90.9333L291.633 91C291.633 84.8667 294.567 72.6 285.633 61C276.7 49.4 253.6 42.6667 231.867 47.3333Z" fill="white"/>
<path d="M542.267 46.8C518.533 50.9333 499.067 70.9333 498.933 91.3333C498.933 102 501.2 108.133 507.867 115.067C518.133 125.6 533.733 130 558.133 129.067H567.633L569.867 121.333H553.733C538.667 121.333 533.867 119.733 527.867 112.933C520.8 104.933 519.333 95.7333 522.8 82.2667C528 62 545.067 49.6 562.267 53.2C574.933 56 580.8 63.2 580.8 75.8667V82.6667L547.133 83.5L544.8 90.6667H601.2L600.4 80.9333C600 75.7333 598.667 68.8 597.467 65.6C594.533 58.4 586.133 51.2 577.467 48.5333C568.933 46 551.6 45.0667 542.267 46.8Z" fill="white"/>
<path d="M630.133 46.5333C622.4 47.7333 619.333 49.4667 613.733 56.1333C608.133 62.5333 606.4 69.0667 601.467 102C599.467 114.4 597.133 129.067 597.133 129.067H618.633L623.6 99.3333C626.267 83.2 629.6 67.4667 630.8 64.2667C634.133 56 638.267 54.2667 657.067 53.3333L673.133 52.5L675.133 45.4667H655.867C645.067 45.6 633.467 46.1333 630.133 46.5333Z" fill="white"/>
<path d="M196.133 47C168.933 64.4666 144 79.7333 142.933 86.6667C141.2 97.8667 142.667 100.933 156.933 114.933L171.633 130H197.633L178.533 109.2C167.867 98.1333 159.2 88.1333 158.667 86.1333C158.133 84 158.533 81.6 159.867 79.6C160.933 78 182.267 62.8 182.267 62.8L204.633 47H196.133Z" fill="white"/>
<path d="M220.25 199L229.763 154.018H237.701L242.048 190.747H242.3L262.271 154.018H270.902L261.578 199H255.908L261.578 172.288C261.998 170.44 262.376 168.718 262.712 167.122C263.09 165.526 263.426 164.077 263.72 162.775C264.056 161.473 264.35 160.381 264.602 159.499H264.476L242.804 199H238.331L233.543 159.562H233.291C233.207 160.402 233.06 161.536 232.85 162.964C232.64 164.35 232.388 165.841 232.094 167.437C231.842 168.991 231.569 170.503 231.275 171.973L225.542 199H220.25Z" fill="white"/>
<path d="M290.357 199.63C287.753 199.63 285.527 199.126 283.679 198.118C281.873 197.068 280.487 195.598 279.521 193.708C278.597 191.776 278.135 189.508 278.135 186.904C278.135 184.216 278.513 181.57 279.269 178.966C280.067 176.32 281.201 173.926 282.671 171.784C284.141 169.6 285.905 167.857 287.963 166.555C290.063 165.253 292.415 164.602 295.019 164.602C298.211 164.602 300.605 165.295 302.201 166.681C303.839 168.067 304.658 169.999 304.658 172.477C304.658 174.115 304.28 175.669 303.524 177.139C302.768 178.567 301.592 179.827 299.996 180.919C298.4 182.011 296.363 182.872 293.885 183.502C291.407 184.09 288.425 184.384 284.939 184.384H283.868C283.826 184.762 283.784 185.161 283.742 185.581C283.742 186.001 283.742 186.379 283.742 186.715C283.742 189.277 284.372 191.314 285.632 192.826C286.892 194.296 288.803 195.031 291.365 195.031C292.961 195.031 294.473 194.8 295.901 194.338C297.329 193.876 298.883 193.246 300.563 192.448V197.173C298.967 197.887 297.392 198.475 295.838 198.937C294.326 199.399 292.499 199.63 290.357 199.63ZM285.128 179.911C287.648 179.911 289.979 179.701 292.121 179.281C294.263 178.819 295.985 178.084 297.287 177.076C298.589 176.026 299.24 174.64 299.24 172.918C299.24 171.826 298.862 170.944 298.106 170.272C297.392 169.558 296.258 169.201 294.704 169.201C293.36 169.201 292.037 169.621 290.735 170.461C289.433 171.301 288.257 172.519 287.207 174.115C286.157 175.711 285.317 177.643 284.687 179.911H285.128Z" fill="white"/>
<path d="M326.08 199.63C323.518 199.63 321.334 199.105 319.528 198.055C317.764 196.963 316.399 195.367 315.433 193.267C314.509 191.125 314.047 188.5 314.047 185.392C314.047 183.796 314.173 182.011 314.425 180.037C314.677 178.063 315.055 176.005 315.559 173.863C316.105 171.721 316.798 169.621 317.638 167.563C318.478 165.463 319.486 163.51 320.662 161.704C321.838 159.898 323.203 158.344 324.757 157.042C326.353 155.698 328.138 154.732 330.112 154.144C330.868 153.892 331.96 153.619 333.388 153.325C334.858 152.989 336.454 152.653 338.176 152.317C339.898 151.939 341.536 151.624 343.09 151.372C344.644 151.12 345.883 150.931 346.807 150.805L347.437 155.341C346.261 155.509 344.749 155.761 342.901 156.097C341.053 156.433 339.184 156.811 337.294 157.231C335.446 157.609 333.871 158.008 332.569 158.428C330.805 158.974 329.188 159.919 327.718 161.263C326.29 162.565 325.03 164.224 323.938 166.24C322.846 168.214 321.943 170.545 321.229 173.233L321.418 173.296C322.552 171.952 324.085 170.671 326.017 169.453C327.949 168.235 330.154 167.626 332.632 167.626C335.824 167.626 338.197 168.634 339.751 170.65C341.347 172.624 342.145 175.396 342.145 178.966C342.145 181.024 341.956 183.061 341.578 185.077C341.2 187.051 340.591 188.92 339.751 190.684C338.953 192.448 337.924 194.002 336.664 195.346C335.404 196.69 333.892 197.74 332.128 198.496C330.406 199.252 328.39 199.63 326.08 199.63ZM326.584 195.031C328.054 195.031 329.335 194.695 330.427 194.023C331.561 193.351 332.506 192.448 333.262 191.314C334.018 190.18 334.627 188.941 335.089 187.597C335.593 186.211 335.95 184.825 336.16 183.439C336.37 182.011 336.475 180.709 336.475 179.533C336.475 177.013 336.034 175.165 335.152 173.989C334.27 172.813 332.947 172.225 331.183 172.225C329.629 172.225 328.138 172.603 326.71 173.359C325.324 174.115 324.085 175.018 322.993 176.068C321.901 177.076 321.019 178.042 320.347 178.966C320.179 180.1 320.011 181.234 319.843 182.368C319.717 183.502 319.654 184.573 319.654 185.581C319.654 187.471 319.885 189.13 320.347 190.558C320.809 191.944 321.544 193.036 322.552 193.834C323.56 194.632 324.904 195.031 326.584 195.031Z" fill="white"/>
<path d="M364.946 199.63C362.342 199.63 360.116 199.126 358.268 198.118C356.462 197.068 355.076 195.598 354.11 193.708C353.186 191.776 352.724 189.508 352.724 186.904C352.724 184.216 353.102 181.57 353.858 178.966C354.656 176.32 355.79 173.926 357.26 171.784C358.73 169.6 360.494 167.857 362.552 166.555C364.652 165.253 367.004 164.602 369.608 164.602C372.8 164.602 375.194 165.295 376.79 166.681C378.428 168.067 379.247 169.999 379.247 172.477C379.247 174.115 378.869 175.669 378.113 177.139C377.357 178.567 376.181 179.827 374.585 180.919C372.989 182.011 370.952 182.872 368.474 183.502C365.996 184.09 363.014 184.384 359.528 184.384H358.457C358.415 184.762 358.373 185.161 358.331 185.581C358.331 186.001 358.331 186.379 358.331 186.715C358.331 189.277 358.961 191.314 360.221 192.826C361.481 194.296 363.392 195.031 365.954 195.031C367.55 195.031 369.062 194.8 370.49 194.338C371.918 193.876 373.472 193.246 375.152 192.448V197.173C373.556 197.887 371.981 198.475 370.427 198.937C368.915 199.399 367.088 199.63 364.946 199.63ZM359.717 179.911C362.237 179.911 364.568 179.701 366.71 179.281C368.852 178.819 370.574 178.084 371.876 177.076C373.178 176.026 373.829 174.64 373.829 172.918C373.829 171.826 373.451 170.944 372.695 170.272C371.981 169.558 370.847 169.201 369.293 169.201C367.949 169.201 366.626 169.621 365.324 170.461C364.022 171.301 362.846 172.519 361.796 174.115C360.746 175.711 359.906 177.643 359.276 179.911H359.717Z" fill="white"/>
<path d="M385.359 199.441C384.814 199.441 384.31 199.378 383.848 199.252C383.385 199.168 383.029 199.084 382.776 199V194.212C383.07 194.338 383.385 194.443 383.721 194.527C384.057 194.569 384.435 194.59 384.855 194.59C385.863 194.59 386.745 194.359 387.501 193.897C388.299 193.393 389.035 192.616 389.707 191.566C390.379 190.516 391.051 189.151 391.723 187.471C392.436 185.791 393.193 183.775 393.991 181.423C394.957 178.609 395.881 176.173 396.763 174.115C397.645 172.057 398.632 170.356 399.724 169.012C400.858 167.626 402.243 166.597 403.882 165.925C405.52 165.253 407.556 164.917 409.992 164.917C411.421 164.917 412.807 165.022 414.151 165.232C415.495 165.4 416.712 165.652 417.805 165.988L410.749 199H405.142L411.505 169.831C411.211 169.747 410.854 169.684 410.434 169.642C410.013 169.6 409.573 169.579 409.111 169.579C407.388 169.579 405.982 169.999 404.889 170.839C403.84 171.637 402.874 173.023 401.992 174.997C401.11 176.971 400.059 179.743 398.841 183.313C397.917 185.917 397.035 188.227 396.195 190.243C395.355 192.217 394.453 193.897 393.487 195.283C392.521 196.627 391.387 197.656 390.085 198.37C388.783 199.084 387.207 199.441 385.359 199.441Z" fill="white"/>
<path d="M439.41 199.63C437.058 199.63 435.021 199.294 433.299 198.622C431.619 197.908 430.338 196.837 429.456 195.409C428.574 193.939 428.133 192.091 428.133 189.865C428.133 189.025 428.196 188.08 428.322 187.03C428.49 185.938 428.658 184.93 428.826 184.006L432.795 165.232H438.402L435.189 179.911C436.281 179.701 437.457 179.533 438.717 179.407C439.977 179.239 441.279 179.155 442.623 179.155C445.185 179.155 447.243 179.533 448.797 180.289C450.351 181.045 451.485 182.095 452.199 183.439C452.913 184.783 453.27 186.337 453.27 188.101C453.27 190.159 452.745 192.07 451.695 193.834C450.687 195.556 449.154 196.963 447.096 198.055C445.08 199.105 442.518 199.63 439.41 199.63ZM439.914 195.094C441.3 195.094 442.476 194.926 443.442 194.59C444.45 194.212 445.269 193.729 445.899 193.141C446.571 192.553 447.054 191.86 447.348 191.062C447.642 190.264 447.789 189.424 447.789 188.542C447.789 187.534 447.579 186.673 447.159 185.959C446.739 185.203 446.046 184.636 445.08 184.258C444.156 183.88 442.896 183.691 441.3 183.691C439.998 183.691 438.759 183.754 437.583 183.88C436.407 183.964 435.315 184.111 434.307 184.321C434.055 185.497 433.866 186.505 433.74 187.345C433.656 188.143 433.614 188.836 433.614 189.424C433.614 191.02 434.055 192.364 434.937 193.456C435.819 194.548 437.478 195.094 439.914 195.094Z" fill="white"/>
</svg>
