<svg width="100" height="51" viewBox="0 0 686 50" fill="none" xmlns="http://www.w3.org/2000/svg">
<path d="M48.0001 36.5C48.0001 36.5 49.7817 23.1376 49.226 16.3214C49.0023 13.5778 46.895 11.5324 44.2209 10.8791C42.961 10.5712 42.0001 10.5 42.0001 10.5L20.0001 10L48.0001 36.5Z" fill="#ED3237"/>
<path d="M139 31.6L121 140H141.5L159.533 30.9333L139 31.6Z" fill="white"/>
<path d="M495.667 39.6C494.733 44.9333 490.867 67.8667 487.133 90.6667L480.333 132L471.933 132.4C455.533 133.2 442.067 126.4 436.867 114.667C433.667 107.867 433.533 94 436.467 85.3333C439.667 76 449.133 66.8 458.2 64.1333C462.2 62.9333 468.333 62 471.8 62L480 62.5C480 62.5 481 56.5333 481 56.1333C481 55.7333 476.6 55.3333 471.4 55.3333C438.067 55.3333 418.2 68.8 412.867 94.6667C411.533 101.467 411.533 103.733 413.4 110C418.2 126.667 430.467 135.6 451.667 138C463.933 139.467 500 138 500 138L509 83.6L517.8 30H497.267L495.667 39.6Z" fill="white"/>
<path d="M29 36.5L10.8667 139.333H31.5L45.5333 53.2L29 36.5Z" fill="white"/>
<path d="M363 54.8C361.533 55.0667 357 56 353 56.8C349 57.6 343 59.7333 339.8 61.6L334.067 64.9333L335.133 55.3333L316 56L300.333 139.333H319.5C319.5 139.333 331.533 87.2 333.133 83.3333C344.867 56.1333 386.333 54.8 388.6 81.6C388.867 85.3333 387.267 98.8 384.733 113.733L380.2 139.333H401.5C401.5 139.333 404.067 124.667 406.467 109.2C410.2 84.6667 410.467 80.6667 409 75.3333C406.867 67.3333 399.133 60.1333 389.933 57.3333C382.733 55.0667 367.667 53.7333 363 54.8Z" fill="white"/>
<path d="M70.8667 57.3333C60.8667 59.4667 56.2 61.8667 51.1333 67.2C47.8 70.6667 47.1333 72.4 47.1333 78C47.1333 83.3333 47.9333 85.6 51.1333 89.6C55.1333 94.5333 57.4 96 80.3333 109.2C93.2667 116.667 98.0667 122.267 95.1333 126.667C89.6667 135.067 69.9333 133.733 47.6667 123.467L42.5 120.5L40.5 131.5L48.6 135.333C66.4667 140.8 90.6 141.333 105 136.533C116.733 132.533 122.6 123.733 119.667 114.667C117.533 108.133 107.667 99.8667 91.2667 90.9333C73.4 81.2 69 77.6 69 72.6667C69 60.6667 91 58.2667 111.267 68L121 72L126 64.5L118.733 60.9333C105.533 55.3333 86.6 53.8667 70.8667 57.3333Z" fill="white"/>
<path d="M242.733 57.3333C226.6 60.8 210.467 72.9333 204.733 85.6C200.733 94.5333 200.6 109.867 204.6 117.467C212.733 132.933 228.733 139.2 260.067 139.333C272.867 139.333 273 139.333 273 139.333L274.5 132H257C242.067 131.867 233.4 128.667 228.067 120.533C221 109.867 222.467 91.4667 231.4 78.1333C241.133 63.7333 261 58.1333 273.267 66.5333C280.2 71.2 283.333 75.7 284 84.5V94H248.5L246.6 100.933L302.5 101C302.5 94.8667 305.433 82.6 296.5 71C287.567 59.4 264.467 52.6667 242.733 57.3333Z" fill="white"/>
<path d="M553.133 56.8C529.4 60.9333 509.933 80.9333 509.8 101.333C509.8 112 512.067 118.133 518.733 125.067C529 135.6 544.6 140 569 139.067H578.5L580.733 131.333H564.6C549.533 131.333 544.733 129.733 538.733 122.933C531.667 114.933 530.2 105.733 533.667 92.2667C538.867 72 555.933 59.6 573.133 63.2C585.8 66 591.667 73.2 591.667 85.8667V92.6667L558 93.5L555.667 100.667H612.067L611.267 90.9333C610.867 85.7333 609.533 78.8 608.333 75.6C605.4 68.4 597 61.2 588.333 58.5333C579.8 56 562.467 55.0667 553.133 56.8Z" fill="white"/>
<path d="M641 56.5333C633.267 57.7333 630.2 59.4667 624.6 66.1333C619 72.5333 617.267 79.0667 612.333 112C610.333 124.4 608 139.067 608 139.067H629.5L634.467 109.333C637.133 93.2 640.467 77.4667 641.667 74.2667C645 66 649.133 64.2667 667.933 63.3333L684 62.5L686 55.4667H666.733C655.933 55.6 644.333 56.1333 641 56.5333Z" fill="white"/>
<path d="M207 57C179.8 74.4666 154.867 89.7333 153.8 96.6667C152.067 107.867 153.533 110.933 167.8 124.933L182.5 140H208.5L189.4 119.2C178.733 108.133 170.067 98.1333 169.533 96.1333C169 94 169.4 91.6 170.733 89.6C171.8 88 193.133 72.8 193.133 72.8L215.5 57H207Z" fill="white"/>
<path d="M231.116 209L240.629 164.018H248.567L252.914 200.747H253.166L273.137 164.018H281.768L272.444 209H266.774L272.444 182.288C272.864 180.44 273.242 178.718 273.578 177.122C273.956 175.526 274.292 174.077 274.586 172.775C274.922 171.473 275.216 170.381 275.468 169.499H275.342L253.67 209H249.197L244.409 169.562H244.157C244.073 170.402 243.926 171.536 243.716 172.964C243.506 174.35 243.254 175.841 242.96 177.437C242.708 178.991 242.435 180.503 242.141 181.973L236.408 209H231.116Z" fill="white"/>
<path d="M301.224 209.63C298.62 209.63 296.394 209.126 294.546 208.118C292.74 207.068 291.354 205.598 290.388 203.708C289.464 201.776 289.002 199.508 289.002 196.904C289.002 194.216 289.38 191.57 290.136 188.966C290.934 186.32 292.068 183.926 293.538 181.784C295.008 179.6 296.772 177.857 298.83 176.555C300.93 175.253 303.282 174.602 305.886 174.602C309.078 174.602 311.472 175.295 313.068 176.681C314.706 178.067 315.525 179.999 315.525 182.477C315.525 184.115 315.147 185.669 314.391 187.139C313.635 188.567 312.459 189.827 310.863 190.919C309.267 192.011 307.23 192.872 304.752 193.502C302.274 194.09 299.292 194.384 295.806 194.384H294.735C294.693 194.762 294.651 195.161 294.609 195.581C294.609 196.001 294.609 196.379 294.609 196.715C294.609 199.277 295.239 201.314 296.499 202.826C297.759 204.296 299.67 205.031 302.232 205.031C303.828 205.031 305.34 204.8 306.768 204.338C308.196 203.876 309.75 203.246 311.43 202.448V207.173C309.834 207.887 308.259 208.475 306.705 208.937C305.193 209.399 303.366 209.63 301.224 209.63ZM295.995 189.911C298.515 189.911 300.846 189.701 302.988 189.281C305.13 188.819 306.852 188.084 308.154 187.076C309.456 186.026 310.107 184.64 310.107 182.918C310.107 181.826 309.729 180.944 308.973 180.272C308.259 179.558 307.125 179.201 305.571 179.201C304.227 179.201 302.904 179.621 301.602 180.461C300.3 181.301 299.124 182.519 298.074 184.115C297.024 185.711 296.184 187.643 295.554 189.911H295.995Z" fill="white"/>
<path d="M336.947 209.63C334.385 209.63 332.201 209.105 330.395 208.055C328.631 206.963 327.266 205.367 326.3 203.267C325.376 201.125 324.914 198.5 324.914 195.392C324.914 193.796 325.04 192.011 325.292 190.037C325.544 188.063 325.922 186.005 326.426 183.863C326.972 181.721 327.665 179.621 328.505 177.563C329.345 175.463 330.353 173.51 331.529 171.704C332.705 169.898 334.07 168.344 335.624 167.042C337.22 165.698 339.005 164.732 340.979 164.144C341.735 163.892 342.827 163.619 344.255 163.325C345.725 162.989 347.321 162.653 349.043 162.317C350.765 161.939 352.403 161.624 353.957 161.372C355.511 161.12 356.75 160.931 357.674 160.805L358.304 165.341C357.128 165.509 355.616 165.761 353.768 166.097C351.92 166.433 350.051 166.811 348.161 167.231C346.313 167.609 344.738 168.008 343.436 168.428C341.672 168.974 340.055 169.919 338.585 171.263C337.157 172.565 335.897 174.224 334.805 176.24C333.713 178.214 332.81 180.545 332.096 183.233L332.285 183.296C333.419 181.952 334.952 180.671 336.884 179.453C338.816 178.235 341.021 177.626 343.499 177.626C346.691 177.626 349.064 178.634 350.618 180.65C352.214 182.624 353.012 185.396 353.012 188.966C353.012 191.024 352.823 193.061 352.445 195.077C352.067 197.051 351.458 198.92 350.618 200.684C349.82 202.448 348.791 204.002 347.531 205.346C346.271 206.69 344.759 207.74 342.995 208.496C341.273 209.252 339.257 209.63 336.947 209.63ZM337.451 205.031C338.921 205.031 340.202 204.695 341.294 204.023C342.428 203.351 343.373 202.448 344.129 201.314C344.885 200.18 345.494 198.941 345.956 197.597C346.46 196.211 346.817 194.825 347.027 193.439C347.237 192.011 347.342 190.709 347.342 189.533C347.342 187.013 346.901 185.165 346.019 183.989C345.137 182.813 343.814 182.225 342.05 182.225C340.496 182.225 339.005 182.603 337.577 183.359C336.191 184.115 334.952 185.018 333.86 186.068C332.768 187.076 331.886 188.042 331.214 188.966C331.046 190.1 330.878 191.234 330.71 192.368C330.584 193.502 330.521 194.573 330.521 195.581C330.521 197.471 330.752 199.13 331.214 200.558C331.676 201.944 332.411 203.036 333.419 203.834C334.427 204.632 335.771 205.031 337.451 205.031Z" fill="white"/>
<path d="M375.813 209.63C373.209 209.63 370.983 209.126 369.135 208.118C367.329 207.068 365.943 205.598 364.977 203.708C364.053 201.776 363.591 199.508 363.591 196.904C363.591 194.216 363.969 191.57 364.725 188.966C365.523 186.32 366.657 183.926 368.127 181.784C369.597 179.6 371.361 177.857 373.419 176.555C375.519 175.253 377.871 174.602 380.475 174.602C383.667 174.602 386.061 175.295 387.657 176.681C389.295 178.067 390.114 179.999 390.114 182.477C390.114 184.115 389.736 185.669 388.98 187.139C388.224 188.567 387.048 189.827 385.452 190.919C383.856 192.011 381.819 192.872 379.341 193.502C376.863 194.09 373.881 194.384 370.395 194.384H369.324C369.282 194.762 369.24 195.161 369.198 195.581C369.198 196.001 369.198 196.379 369.198 196.715C369.198 199.277 369.828 201.314 371.088 202.826C372.348 204.296 374.259 205.031 376.821 205.031C378.417 205.031 379.929 204.8 381.357 204.338C382.785 203.876 384.339 203.246 386.019 202.448V207.173C384.423 207.887 382.848 208.475 381.294 208.937C379.782 209.399 377.955 209.63 375.813 209.63ZM370.584 189.911C373.104 189.911 375.435 189.701 377.577 189.281C379.719 188.819 381.441 188.084 382.743 187.076C384.045 186.026 384.696 184.64 384.696 182.918C384.696 181.826 384.318 180.944 383.562 180.272C382.848 179.558 381.714 179.201 380.16 179.201C378.816 179.201 377.493 179.621 376.191 180.461C374.889 181.301 373.713 182.519 372.663 184.115C371.613 185.711 370.773 187.643 370.143 189.911H370.584Z" fill="white"/>
<path d="M396.226 209.441C395.68 209.441 395.176 209.378 394.714 209.252C394.252 209.168 393.895 209.084 393.643 209V204.212C393.937 204.338 394.252 204.443 394.588 204.527C394.924 204.569 395.302 204.59 395.722 204.59C396.73 204.59 397.612 204.359 398.368 203.897C399.166 203.393 399.901 202.616 400.573 201.566C401.245 200.516 401.917 199.151 402.589 197.471C403.303 195.791 404.059 193.775 404.857 191.423C405.823 188.609 406.747 186.173 407.629 184.115C408.511 182.057 409.498 180.356 410.59 179.012C411.724 177.626 413.11 176.597 414.748 175.925C416.386 175.253 418.423 174.917 420.859 174.917C422.287 174.917 423.673 175.022 425.017 175.232C426.361 175.4 427.579 175.652 428.671 175.988L421.615 209H416.008L422.371 179.831C422.077 179.747 421.72 179.684 421.3 179.642C420.88 179.6 420.439 179.579 419.977 179.579C418.255 179.579 416.848 179.999 415.756 180.839C414.706 181.637 413.74 183.023 412.858 184.997C411.976 186.971 410.926 189.743 409.708 193.313C408.784 195.917 407.902 198.227 407.062 200.243C406.222 202.217 405.319 203.897 404.353 205.283C403.387 206.627 402.253 207.656 400.951 208.37C399.649 209.084 398.074 209.441 396.226 209.441Z" fill="white"/>
<path d="M450.277 209.63C447.925 209.63 445.888 209.294 444.166 208.622C442.486 207.908 441.205 206.837 440.323 205.409C439.441 203.939 439 202.091 439 199.865C439 199.025 439.063 198.08 439.189 197.03C439.357 195.938 439.525 194.93 439.693 194.006L443.662 175.232H449.269L446.056 189.911C447.148 189.701 448.324 189.533 449.584 189.407C450.844 189.239 452.146 189.155 453.49 189.155C456.052 189.155 458.11 189.533 459.664 190.289C461.218 191.045 462.352 192.095 463.066 193.439C463.78 194.783 464.137 196.337 464.137 198.101C464.137 200.159 463.612 202.07 462.562 203.834C461.554 205.556 460.021 206.963 457.963 208.055C455.947 209.105 453.385 209.63 450.277 209.63ZM450.781 205.094C452.167 205.094 453.343 204.926 454.309 204.59C455.317 204.212 456.136 203.729 456.766 203.141C457.438 202.553 457.921 201.86 458.215 201.062C458.509 200.264 458.656 199.424 458.656 198.542C458.656 197.534 458.446 196.673 458.026 195.959C457.606 195.203 456.913 194.636 455.947 194.258C455.023 193.88 453.763 193.691 452.167 193.691C450.865 193.691 449.626 193.754 448.45 193.88C447.274 193.964 446.182 194.111 445.174 194.321C444.922 195.497 444.733 196.505 444.607 197.345C444.523 198.143 444.481 198.836 444.481 199.424C444.481 201.02 444.922 202.364 445.804 203.456C446.686 204.548 448.345 205.094 450.781 205.094Z" fill="white"/>
</svg>
