<?xml version="1.0" standalone="no"?>

<svg version="1.0" xmlns="http://www.w3.org/2000/svg"
     width="1242.000000pt" height="346.000000pt" viewBox="0 0 1242.000000 346.000000"
     preserveAspectRatio="xMidYMid meet">

    <g transform="translate(0.000000,346.000000) scale(0.100000,-0.100000)"
       fill="#000000" stroke="none">
        <path d="M1714 3030 c-11 -4 -46 -11 -78 -15 -31 -4 -59 -11 -62 -16 -3 -5
-14 -9 -25 -9 -10 0 -27 -4 -37 -10 -15 -8 -49 -23 -102 -44 -16 -6 -31 -15
-95 -57 -73 -49 -185 -155 -185 -176 0 -7 -4 -13 -10 -13 -5 0 -12 -11 -16
-25 -3 -14 -10 -25 -15 -25 -5 0 -9 -7 -9 -15 0 -8 -4 -23 -10 -33 -17 -32
-40 -130 -40 -175 0 -48 24 -160 40 -189 6 -10 10 -23 10 -29 0 -20 90 -146
133 -186 53 -48 130 -103 182 -128 22 -11 42 -22 45 -26 3 -3 28 -13 55 -23
28 -10 59 -21 70 -26 11 -5 34 -11 50 -14 17 -3 53 -11 80 -16 62 -13 333 -14
400 -1 90 18 110 22 130 31 11 5 43 16 70 26 28 10 52 20 55 23 3 4 35 22 73
40 37 19 67 39 67 43 0 4 5 8 10 8 6 0 19 8 30 18 18 16 20 36 22 260 l3 242
-266 0 c-245 0 -267 -1 -272 -17 -3 -10 -26 -55 -51 -100 l-44 -83 170 0 c133
0 172 -3 184 -14 9 -10 14 -37 14 -85 0 -92 -18 -111 -145 -153 -100 -33 -293
-47 -385 -28 -147 31 -255 79 -330 147 -19 18 -38 33 -42 33 -5 0 -8 7 -8 15
0 8 -4 15 -8 15 -4 0 -21 25 -37 57 -27 50 -30 66 -30 143 0 84 4 98 43 175
28 56 115 133 197 174 44 23 89 41 100 41 12 0 25 4 31 9 11 10 161 31 223 31
49 0 155 -16 216 -32 54 -15 205 -87 205 -99 0 -22 45 -6 83 30 23 21 59 54
81 73 35 32 37 36 22 49 -9 8 -23 20 -31 27 -7 6 -16 12 -19 12 -4 0 -24 11
-46 25 -22 14 -46 25 -55 25 -8 0 -15 4 -15 8 0 4 -26 16 -57 27 -32 10 -62
21 -68 24 -5 3 -48 14 -95 23 -91 19 -366 24 -406 8z"/>
        <path d="M3386 2927 c-15 -19 -26 -37 -26 -41 0 -4 -10 -22 -23 -39 -12 -18
-28 -41 -34 -52 -68 -110 -127 -201 -134 -203 -5 -2 -9 -8 -9 -14 0 -5 -10
-24 -22 -41 -13 -18 -31 -48 -42 -67 -10 -19 -21 -37 -25 -40 -3 -3 -15 -21
-25 -40 -11 -19 -22 -37 -25 -40 -3 -3 -11 -14 -18 -25 -70 -115 -299 -471
-305 -473 -4 -2 -8 -8 -8 -14 0 -5 -11 -24 -25 -42 -14 -18 -25 -36 -25 -39 0
-4 71 -7 159 -7 l159 0 17 26 c38 58 103 124 122 124 7 0 13 4 13 8 0 11 55
31 130 48 46 10 134 14 304 14 209 0 237 2 226 15 -7 8 -24 38 -40 68 -42 82
-54 101 -70 114 -11 9 -73 12 -222 13 -114 0 -209 3 -211 8 -3 4 19 43 49 87
30 44 68 100 84 125 16 25 36 54 44 65 26 37 106 158 106 162 0 13 47 51 55
45 6 -4 24 -34 40 -67 17 -33 32 -62 35 -65 8 -8 28 -43 47 -80 9 -19 27 -51
38 -70 21 -34 42 -71 113 -200 20 -36 46 -83 59 -105 12 -22 30 -56 40 -75 9
-19 20 -37 24 -40 5 -3 16 -23 26 -45 10 -22 36 -70 58 -107 l40 -68 143 0
c79 0 142 3 140 8 -1 4 -22 39 -44 77 -64 107 -92 157 -111 195 -10 19 -20 37
-23 40 -3 3 -14 24 -25 47 -11 24 -23 43 -27 43 -5 0 -8 5 -8 11 0 7 -18 40
-40 75 -22 35 -40 68 -40 74 0 6 -9 21 -20 33 -12 12 -23 32 -26 44 -4 13 -10
23 -15 23 -5 0 -9 6 -9 14 0 8 -6 21 -12 28 -7 7 -20 26 -28 43 -15 29 -58
105 -160 281 -27 48 -50 89 -50 91 0 2 -11 21 -25 43 l-25 40 -135 0 -134 0
-25 -33z"/>
        <path d="M4583 2954 c-10 -5 -13 -135 -13 -605 l0 -599 135 0 135 0 0 495 0
495 412 0 c452 0 469 -2 531 -61 23 -23 27 -34 27 -84 0 -53 -3 -60 -34 -90
-19 -18 -47 -36 -63 -40 -15 -5 -183 -11 -373 -14 l-345 -6 -3 -102 -3 -102
158 -4 c87 -2 176 -8 199 -14 102 -25 188 -90 275 -208 24 -33 49 -65 54 -71
6 -6 42 -53 80 -103 l70 -91 153 0 c83 0 152 3 152 6 0 7 -83 108 -92 112 -5
2 -8 10 -8 17 0 7 -3 15 -8 17 -4 2 -23 23 -42 48 -19 25 -37 47 -40 50 -3 3
-25 30 -50 60 -25 30 -48 57 -52 58 -5 2 -8 8 -8 14 0 6 -8 18 -18 27 -24 21
-52 63 -52 77 0 13 43 34 70 34 11 0 20 5 20 10 0 6 5 10 12 10 19 0 111 62
140 95 54 59 73 112 73 205 0 73 -4 92 -28 140 -31 60 -70 110 -87 110 -5 0
-10 4 -10 8 0 19 -143 81 -220 95 -57 10 -1125 20 -1147 11z"/>
        <path d="M6934 2874 c-27 -47 -60 -106 -74 -132 -14 -26 -27 -49 -30 -52 -3
-3 -13 -21 -24 -40 -23 -44 -47 -86 -97 -172 -22 -36 -39 -70 -39 -74 0 -4 -6
-15 -14 -23 -14 -16 -34 -49 -72 -121 -11 -19 -21 -37 -24 -40 -3 -3 -14 -23
-25 -45 -10 -22 -33 -62 -50 -90 -17 -27 -34 -57 -38 -65 -4 -8 -21 -37 -37
-65 -17 -27 -33 -58 -36 -67 -4 -10 -10 -18 -15 -18 -5 0 -9 -7 -9 -15 0 -9
-11 -33 -25 -55 -14 -22 -25 -42 -25 -45 0 -3 65 -5 144 -5 141 0 145 1 152
23 4 12 9 24 13 27 3 3 18 28 32 55 42 81 64 120 69 125 3 3 14 23 25 45 11
22 22 42 25 45 3 3 11 16 18 30 6 14 27 52 47 85 19 33 45 80 57 105 13 25 25
47 28 50 3 3 12 19 21 35 10 17 31 55 49 85 17 30 34 63 37 73 3 9 9 17 14 17
5 0 9 7 9 15 0 12 38 83 56 103 7 9 44 -11 44 -23 0 -7 3 -15 8 -17 4 -1 34
-43 66 -93 33 -49 62 -92 65 -95 3 -3 11 -13 16 -22 6 -9 40 -62 78 -116 37
-55 67 -105 67 -113 0 -12 -33 -13 -196 -11 -107 2 -206 1 -219 -2 -15 -4 -34
-25 -52 -59 -16 -28 -42 -73 -57 -99 l-27 -48 233 0 c164 0 252 -4 298 -14 73
-16 127 -35 150 -53 60 -47 82 -69 107 -108 l28 -45 158 0 c86 0 157 4 157 9
0 4 -9 20 -20 34 -11 14 -20 30 -20 36 0 6 -4 11 -9 11 -5 0 -11 8 -15 18 -5
17 -26 52 -36 62 -3 3 -10 14 -17 25 -7 11 -60 94 -118 185 -58 91 -111 174
-118 185 -7 11 -15 22 -18 25 -3 3 -14 21 -25 40 -10 19 -21 37 -25 40 -5 5
-116 177 -134 208 -37 66 -160 258 -167 260 -4 2 -8 9 -8 15 -1 7 -9 22 -19
35 -18 21 -26 22 -153 22 l-134 0 -50 -86z"/>
        <path d="M8197 2947 c-8 -22 -9 -297 -1 -764 l7 -433 139 0 138 0 0 400 c0
280 3 400 11 400 6 0 30 -19 54 -42 24 -24 111 -108 195 -188 228 -218 402
-385 502 -482 l89 -88 134 0 134 0 3 508 c2 279 1 550 -2 602 l-5 95 -137 3
-138 3 0 -28 c0 -15 0 -193 0 -394 0 -353 -2 -399 -21 -399 -8 0 -96 83 -369
350 -70 69 -207 203 -304 298 l-177 172 -124 0 c-94 0 -124 -3 -128 -13z"/>
        <path d="M9797 2953 c-4 -3 -7 -53 -7 -110 l0 -103 270 0 270 0 0 -495 0 -495
130 0 130 0 2 493 3 492 268 3 268 2 -3 108 -3 107 -661 3 c-363 1 -664 -1
-667 -5z"/>
        <path d="M3955 1211 c-48 -28 -80 -95 -79 -167 1 -101 37 -151 122 -169 46
-10 122 3 122 20 0 10 -18 13 -70 13 -76 -1 -98 11 -126 64 -33 64 0 208 47
208 10 0 21 5 24 10 8 13 71 13 97 -1 16 -8 22 -8 29 2 23 37 -109 53 -166 20z"/>
        <path d="M4414 1208 c-3 -13 -14 -41 -24 -63 -10 -22 -30 -71 -45 -110 -15
-38 -34 -84 -41 -102 -17 -39 -18 -53 -1 -53 13 1 47 61 47 85 0 10 19 14 73
17 79 4 97 1 97 -15 0 -28 35 -87 52 -87 14 0 16 4 9 18 -5 9 -21 49 -36 87
-15 39 -30 79 -35 90 -4 11 -15 40 -25 65 -28 74 -38 90 -51 90 -7 0 -16 -10
-20 -22z m44 -75 c6 -15 12 -33 12 -40 0 -7 5 -22 12 -32 19 -31 3 -51 -40
-51 -59 0 -66 15 -39 92 23 69 34 75 55 31z"/>
        <path d="M4777 1223 c-4 -3 -7 -82 -7 -175 0 -140 2 -168 15 -168 11 0 15 18
17 78 l3 77 89 3 c54 2 93 -1 100 -8 11 -11 12 -15 14 -97 2 -40 6 -53 17 -53
13 0 15 26 15 175 0 143 -3 175 -14 175 -18 0 -25 -32 -21 -97 l3 -52 -84 -3
c-86 -3 -126 1 -125 15 1 4 1 36 1 72 0 60 -6 75 -23 58z"/>
        <path d="M5227 1224 c-16 -16 -5 -24 36 -24 69 0 68 1 68 -169 0 -138 2 -152
17 -149 15 3 17 20 18 144 0 77 4 148 7 158 5 14 17 17 54 14 37 -2 48 0 48
12 0 12 -21 15 -121 18 -66 1 -123 -1 -127 -4z"/>
        <path d="M5664 1217 c-2 -7 -3 -85 -2 -172 l3 -160 93 0 c114 0 130 19 19 23
l-78 3 3 62 3 62 68 5 c37 3 67 8 67 13 0 4 0 12 0 18 0 6 -21 10 -52 9 -92
-3 -88 -5 -88 50 0 58 9 66 90 69 60 3 73 7 65 22 -10 15 -185 11 -191 -4z"/>
        <path d="M6037 1223 c-4 -3 1 -16 11 -27 31 -35 82 -125 82 -145 0 -10 -7 -24
-15 -31 -8 -7 -15 -17 -15 -22 0 -6 -16 -33 -36 -60 -36 -48 -39 -72 -7 -52
16 10 59 75 69 106 3 9 12 19 20 22 15 6 54 -30 54 -51 0 -7 3 -13 8 -13 4 0
16 -16 26 -35 12 -22 27 -35 39 -35 18 0 19 1 3 23 -9 12 -19 30 -23 40 -3 9
-9 17 -13 17 -4 0 -10 8 -14 18 -7 22 -28 55 -41 64 -6 5 -5 16 4 30 8 13 22
36 30 53 9 16 22 35 29 43 18 20 34 53 28 59 -9 9 -26 -8 -59 -60 -56 -86 -61
-88 -102 -23 -19 30 -35 59 -35 64 0 6 -7 13 -16 16 -19 7 -19 7 -27 -1z"/>
        <path d="M6487 1224 c-4 -4 -7 -83 -7 -176 0 -161 1 -168 20 -168 18 0 20 7
20 79 l0 80 90 3 c104 3 102 5 104 -96 1 -37 6 -61 14 -64 9 -3 12 39 12 173
0 137 -3 176 -12 173 -9 -3 -13 -27 -13 -74 0 -38 -3 -71 -6 -74 -4 -3 -49 -4
-100 -2 l-94 3 0 71 c0 66 -10 90 -28 72z"/>
        <path d="M6979 1223 c-1 -4 -2 -83 -3 -175 -1 -168 -1 -168 21 -168 17 0 40
26 100 116 43 63 83 123 88 132 12 21 28 33 34 26 3 -2 4 -65 2 -139 -2 -117
0 -135 13 -135 14 0 16 22 16 175 0 229 2 228 -134 26 -42 -62 -76 -117 -76
-122 0 -9 -12 -12 -27 -6 -5 1 -8 62 -8 136 0 98 -3 135 -12 138 -7 3 -14 1
-14 -4z"/>
        <path d="M7487 1223 c-4 -3 -7 -82 -6 -175 0 -139 3 -168 15 -168 11 0 14 18
14 85 0 84 0 85 23 74 12 -6 50 -45 85 -85 57 -67 92 -91 92 -64 0 6 -30 42
-67 80 -38 39 -68 75 -68 80 0 5 19 31 42 57 63 73 93 110 93 117 0 17 -26 1
-59 -36 -64 -73 -120 -128 -131 -128 -6 0 -10 33 -10 85 0 78 -5 96 -23 78z"/>
        <path d="M7991 1193 c-7 -21 -25 -69 -41 -108 -16 -38 -40 -100 -54 -137 -24
-66 -24 -68 -6 -68 13 0 20 7 20 19 0 11 5 23 10 26 6 3 10 17 10 30 0 22 4
24 76 27 42 2 79 1 83 -2 11 -7 41 -71 41 -87 0 -7 7 -13 16 -13 12 0 14 7 9
32 -4 18 -11 39 -15 48 -11 20 -34 77 -50 120 -39 110 -58 150 -73 150 -7 0
-19 -17 -26 -37z m47 -55 c40 -83 44 -98 32 -113 -13 -15 -65 -20 -94 -9 -17
7 -22 44 -6 44 6 0 10 9 10 20 0 25 27 80 39 80 4 0 13 -10 19 -22z"/>
    </g>
</svg>
