<?xml version="1.0" encoding="UTF-8"?>
<svg version="1.1" xmlns="http://www.w3.org/2000/svg" width="1242" height="346">
<path d="M0 0 C409.86 0 819.72 0 1242 0 C1242 114.18 1242 228.36 1242 346 C832.14 346 422.28 346 0 346 C0 231.82 0 117.64 0 0 Z " fill="#FEFEFE" transform="translate(0,0)"/>
<path d="M0 0 C9.9 0 19.8 0 30 0 C30 0.66 30 1.32 30 2 C30.66 2 31.32 2 32 2 C32 2.99 32 3.98 32 5 C32.66 5 33.32 5 34 5 C34 5.66 34 6.32 34 7 C34.99 7 35.98 7 37 7 C37 7.99 37 8.98 37 10 C39.475 10.495 39.475 10.495 42 11 C42.495 13.97 42.495 13.97 43 17 C43.66 17 44.32 17 45 17 C45 17.66 45 18.32 45 19 C46.32 19 47.64 19 49 19 C49 19.99 49 20.98 49 22 C49.99 22 50.98 22 52 22 C52 22.66 52 23.32 52 24 C52.99 24.33 53.98 24.66 55 25 C55 25.66 55 26.32 55 27 C55.66 27 56.32 27 57 27 C57 27.66 57 28.32 57 29 C58.32 29.33 59.64 29.66 61 30 C61.495 31.98 61.495 31.98 62 34 C63.32 34.33 64.64 34.66 66 35 C66.495 36.98 66.495 36.98 67 39 C68.98 39.495 68.98 39.495 71 40 C71.495 41.98 71.495 41.98 72 44 C72.66 44 73.32 44 74 44 C74 44.66 74 45.32 74 46 C75.485 46.495 75.485 46.495 77 47 C77 47.66 77 48.32 77 49 C77.66 49 78.32 49 79 49 C79 49.99 79 50.98 79 52 C79.99 52 80.98 52 82 52 C82 52.66 82 53.32 82 54 C82.66 54 83.32 54 84 54 C84 54.66 84 55.32 84 56 C85.485 56.495 85.485 56.495 87 57 C87 57.66 87 58.32 87 59 C87.66 59 88.32 59 89 59 C89 59.66 89 60.32 89 61 C90.485 61.495 90.485 61.495 92 62 C92 62.66 92 63.32 92 64 C92.66 64 93.32 64 94 64 C94 64.66 94 65.32 94 66 C95.485 66.495 95.485 66.495 97 67 C97 67.66 97 68.32 97 69 C97.66 69 98.32 69 99 69 C99 69.66 99 70.32 99 71 C100.485 71.495 100.485 71.495 102 72 C102 72.66 102 73.32 102 74 C103.32 74 104.64 74 106 74 C106 74.66 106 75.32 106 76 C107.485 76.495 107.485 76.495 109 77 C109 77.66 109 78.32 109 79 C109.66 79 110.32 79 111 79 C111.33 52.93 111.66 26.86 112 0 C122.23 0 132.46 0 143 0 C143 39.93 143 79.86 143 121 C133.1 121 123.2 121 113 121 C112.34 120.34 111.68 119.68 111 119 C111 118.01 111 117.02 111 116 C110.34 116 109.68 116 109 116 C107.375 114.625 107.375 114.625 106 113 C106 112.34 106 111.68 106 111 C105.34 111 104.68 111 104 111 C102.375 109.625 102.375 109.625 101 108 C101 107.34 101 106.68 101 106 C99.68 106 98.36 106 97 106 C95.25 104.625 95.25 104.625 94 103 C94 102.34 94 101.68 94 101 C93.34 101 92.68 101 92 101 C91.67 99.35 91.34 97.7 91 96 C90.01 96 89.02 96 88 96 C88 95.34 88 94.68 88 94 C87.34 94 86.68 94 86 94 C86 93.34 86 92.68 86 92 C85.401875 91.896875 84.80375 91.79375 84.1875 91.6875 C81.68741714 90.90175967 80.62464918 90.03081147 79 88 C79 87.34 79 86.68 79 86 C78.34 86 77.68 86 77 86 C76.67 84.68 76.34 83.36 76 82 C75.071875 81.896875 74.14375 81.79375 73.1875 81.6875 C69.96099626 80.99158743 68.80261425 80.70392137 67 78 C67 76.68 67 75.36 67 74 C66.01 74 65.02 74 64 74 C64 73.01 64 72.02 64 71 C63.34 71 62.68 71 62 71 C61.67 69.68 61.34 68.36 61 67 C59.68 66.67 58.36 66.34 57 66 C57 65.34 57 64.68 57 64 C56.01 64 55.02 64 54 64 C54 63.34 54 62.68 54 62 C53.34 62 52.68 62 52 62 C52 61.01 52 60.02 52 59 C51.01 59 50.02 59 49 59 C49 58.34 49 57.68 49 57 C47.68 56.67 46.36 56.34 45 56 C44.505 54.02 44.505 54.02 44 52 C42.68 51.67 41.36 51.34 40 51 C40 50.34 40 49.68 40 49 C39.01 49 38.02 49 37 49 C37 48.34 37 47.68 37 47 C36.01 46.67 35.02 46.34 34 46 C34 44.68 34 43.36 34 42 C32.68 42 31.36 42 30 42 C30 68.07 30 94.14 30 121 C20.1 121 10.2 121 0 121 C0 81.07 0 41.14 0 0 Z " fill="#525252" transform="translate(818,50)"/>
<path d="M0 0 C38.28 0 76.56 0 116 0 C116 0.66 116 1.32 116 2 C116.99 1.938125 117.98 1.87625 119 1.8125 C123.46888211 1.78508355 126.91304608 3.2791773 131 5 C131 5.66 131 6.32 131 7 C131.99 7 132.98 7 134 7 C134 7.66 134 8.32 134 9 C135.98 9.495 135.98 9.495 138 10 C138 10.66 138 11.32 138 12 C139.65 12 141.3 12 143 12 C143.33 13.65 143.66 15.3 144 17 C144.66 17 145.32 17 146 17 C146.64910154 18.58199631 147.29414694 20.16565724 147.9375 21.75 C148.29714844 22.63171875 148.65679688 23.5134375 149.02734375 24.421875 C150.89074479 29.36101028 151.15362618 33.73278314 151.125 39 C151.12886719 39.7115625 151.13273438 40.423125 151.13671875 41.15625 C151.13033978 44.57538017 151.07200732 47.73293006 150 51 C149.34 51 148.68 51 148 51 C148 51.99 148 52.98 148 54 C147.34 54 146.68 54 146 54 C145.67 54.99 145.34 55.98 145 57 C144.34 57 143.68 57 143 57 C143 57.66 143 58.32 143 59 C142.34 59 141.68 59 141 59 C141 59.66 141 60.32 141 61 C139.625 62.625 139.625 62.625 138 64 C137.34 64 136.68 64 136 64 C136 64.66 136 65.32 136 66 C135.01 66 134.02 66 133 66 C133 66.66 133 67.32 133 68 C128.38 68.99 123.76 69.98 119 71 C119 71.99 119 72.98 119 74 C119.66 74 120.32 74 121 74 C121 74.66 121 75.32 121 76 C122.485 76.495 122.485 76.495 124 77 C124 77.66 124 78.32 124 79 C124.66 79 125.32 79 126 79 C126 80.32 126 81.64 126 83 C127.485 83.495 127.485 83.495 129 84 C130.1875 86.5625 130.1875 86.5625 131 89 C131.66 89 132.32 89 133 89 C133.33 90.32 133.66 91.64 134 93 C134.66 93 135.32 93 136 93 C136.268125 93.804375 136.53625 94.60875 136.8125 95.4375 C137.4003125 96.7059375 137.4003125 96.7059375 138 98 C138.99 98.33 139.98 98.66 141 99 C141 100.32 141 101.64 141 103 C141.99 103.33 142.98 103.66 144 104 C144 104.66 144 105.32 144 106 C144.66 106 145.32 106 146 106 C146 106.66 146 107.32 146 108 C147.32 108.33 148.64 108.66 150 109 C150.33 110.98 150.66 112.96 151 115 C152.32 115.33 153.64 115.66 155 116 C155.33 117.65 155.66 119.3 156 121 C151.49767666 121.07417023 146.99570909 121.1286105 142.49291992 121.16479492 C140.96128139 121.17987936 139.42968602 121.20034978 137.89819336 121.22631836 C135.69634346 121.26271847 133.49506467 121.27972913 131.29296875 121.29296875 C130.60849167 121.30845261 129.92401459 121.32393646 129.21879578 121.33988953 C126.31835944 121.34091573 124.44668919 121.31821935 122.04418945 119.60668945 C121 118 121 118 121 116 C120.34 116 119.68 116 119 116 C116 111.61538462 116 111.61538462 116 109 C114.02 108.505 114.02 108.505 112 108 C111.67 106.35 111.34 104.7 111 103 C110.34 103 109.68 103 109 103 C109 101.68 109 100.36 109 99 C108.34 99 107.68 99 107 99 C105.4921875 97.3203125 105.4921875 97.3203125 103.875 95.125 C103.33617187 94.40570313 102.79734375 93.68640625 102.2421875 92.9453125 C101 91 101 91 101 89 C100.34 89 99.68 89 99 89 C97.375 87.625 97.375 87.625 96 86 C96 85.34 96 84.68 96 84 C94.02 83.505 94.02 83.505 92 83 C91.67 81.68 91.34 80.36 91 79 C90.319375 78.87625 89.63875 78.7525 88.9375 78.625 C85.5722588 77.90899123 82.29986575 76.97054875 79 76 C79 75.34 79 74.68 79 74 C77.35 74 75.7 74 74 74 C74 73.34 74 72.68 74 72 C63.44 72 52.88 72 42 72 C42 65.07 42 58.14 42 51 C65.43 51 88.86 51 113 51 C113 50.34 113 49.68 113 49 C113.99 49 114.98 49 116 49 C116 48.34 116 47.68 116 47 C116.99 47 117.98 47 119 47 C119 46.34 119 45.68 119 45 C120.32 44.67 121.64 44.34 123 44 C123 39.05 123 34.1 123 29 C122.34 29 121.68 29 121 29 C121 28.34 121 27.68 121 27 C119.35 26.67 117.7 26.34 116 26 C116 25.01 116 24.02 116 23 C86.63 22.67 57.26 22.34 27 22 C27 54.67 27 87.34 27 121 C18.09 121 9.18 121 0 121 C0 81.07 0 41.14 0 0 Z " fill="#515151" transform="translate(457,50)"/>
<path d="M0 0 C2.71616164 0.01617638 5.43085399 0.00001237 8.14697266 -0.01904297 C17.13790812 -0.02827897 25.42577497 0.15372558 33.95556641 3.39111328 C33.95556641 4.05111328 33.95556641 4.71111328 33.95556641 5.39111328 C35.04869141 5.37048828 36.14181641 5.34986328 37.26806641 5.32861328 C40.95556641 5.39111328 40.95556641 5.39111328 43.95556641 6.39111328 C43.95556641 7.05111328 43.95556641 7.71111328 43.95556641 8.39111328 C45.60556641 8.39111328 47.25556641 8.39111328 48.95556641 8.39111328 C48.95556641 9.05111328 48.95556641 9.71111328 48.95556641 10.39111328 C50.13119141 10.85517578 50.13119141 10.85517578 51.33056641 11.32861328 C53.95556641 12.39111328 53.95556641 12.39111328 55.95556641 13.39111328 C55.95556641 14.05111328 55.95556641 14.71111328 55.95556641 15.39111328 C56.94556641 15.39111328 57.93556641 15.39111328 58.95556641 15.39111328 C58.95556641 16.05111328 58.95556641 16.71111328 58.95556641 17.39111328 C60.60556641 17.72111328 62.25556641 18.05111328 63.95556641 18.39111328 C63.62556641 20.04111328 63.29556641 21.69111328 62.95556641 23.39111328 C62.29556641 23.39111328 61.63556641 23.39111328 60.95556641 23.39111328 C60.95556641 24.05111328 60.95556641 24.71111328 60.95556641 25.39111328 C60.29556641 25.39111328 59.63556641 25.39111328 58.95556641 25.39111328 C58.95556641 26.05111328 58.95556641 26.71111328 58.95556641 27.39111328 C57.27587891 28.89892578 57.27587891 28.89892578 55.08056641 30.51611328 C54.00162109 31.32435547 54.00162109 31.32435547 52.90087891 32.14892578 C50.95556641 33.39111328 50.95556641 33.39111328 48.95556641 33.39111328 C48.95556641 34.05111328 48.95556641 34.71111328 48.95556641 35.39111328 C46.64556641 35.39111328 44.33556641 35.39111328 41.95556641 35.39111328 C41.62556641 34.40111328 41.29556641 33.41111328 40.95556641 32.39111328 C40.29556641 32.39111328 39.63556641 32.39111328 38.95556641 32.39111328 C38.95556641 31.73111328 38.95556641 31.07111328 38.95556641 30.39111328 C37.30556641 30.39111328 35.65556641 30.39111328 33.95556641 30.39111328 C33.95556641 29.73111328 33.95556641 29.07111328 33.95556641 28.39111328 C31.31556641 28.06111328 28.67556641 27.73111328 25.95556641 27.39111328 C25.95556641 26.73111328 25.95556641 26.07111328 25.95556641 25.39111328 C24.30556641 25.39111328 22.65556641 25.39111328 20.95556641 25.39111328 C20.95556641 24.73111328 20.95556641 24.07111328 20.95556641 23.39111328 C8.08556641 23.39111328 -4.78443359 23.39111328 -18.04443359 23.39111328 C-18.04443359 24.05111328 -18.04443359 24.71111328 -18.04443359 25.39111328 C-19.09630859 25.51486328 -20.14818359 25.63861328 -21.23193359 25.76611328 C-24.52464149 26.30590146 -27.00074394 27.12290926 -30.04443359 28.39111328 C-31.03443359 28.39111328 -32.02443359 28.39111328 -33.04443359 28.39111328 C-33.04443359 29.05111328 -33.04443359 29.71111328 -33.04443359 30.39111328 C-33.68251953 30.56126953 -34.32060547 30.73142578 -34.97802734 30.90673828 C-35.80431641 31.14908203 -36.63060547 31.39142578 -37.48193359 31.64111328 C-38.30564453 31.87314453 -39.12935547 32.10517578 -39.97802734 32.34423828 C-42.24438827 33.19882007 -42.24438827 33.19882007 -42.82958984 35.50048828 C-42.9359375 36.43634766 -42.9359375 36.43634766 -43.04443359 37.39111328 C-43.70443359 37.39111328 -44.36443359 37.39111328 -45.04443359 37.39111328 C-45.37443359 38.38111328 -45.70443359 39.37111328 -46.04443359 40.39111328 C-46.70443359 40.39111328 -47.36443359 40.39111328 -48.04443359 40.39111328 C-48.04443359 41.05111328 -48.04443359 41.71111328 -48.04443359 42.39111328 C-48.98416016 42.49359375 -48.98416016 42.49359375 -49.94287109 42.59814453 C-52.24246775 43.18730267 -52.24246775 43.18730267 -53.02099609 45.46533203 C-53.23498047 46.32771484 -53.44896484 47.19009766 -53.66943359 48.07861328 C-54.38747152 50.86206617 -55.09099435 53.51240741 -56.12255859 56.19970703 C-57.2660079 60.15817348 -57.26559015 63.67576114 -57.16943359 67.76611328 C-57.16041016 68.50216797 -57.15138672 69.23822266 -57.14208984 69.99658203 C-57.11873504 71.79490208 -57.08287195 73.59305239 -57.04443359 75.39111328 C-56.38443359 75.39111328 -55.72443359 75.39111328 -55.04443359 75.39111328 C-54.77630859 76.36048828 -54.50818359 77.32986328 -54.23193359 78.32861328 C-53.84005859 79.33923828 -53.44818359 80.34986328 -53.04443359 81.39111328 C-52.05443359 81.72111328 -51.06443359 82.05111328 -50.04443359 82.39111328 C-50.04443359 83.38111328 -50.04443359 84.37111328 -50.04443359 85.39111328 C-49.38443359 85.39111328 -48.72443359 85.39111328 -48.04443359 85.39111328 C-47.71443359 86.71111328 -47.38443359 88.03111328 -47.04443359 89.39111328 C-45.72443359 89.72111328 -44.40443359 90.05111328 -43.04443359 90.39111328 C-43.04443359 91.05111328 -43.04443359 91.71111328 -43.04443359 92.39111328 C-42.05443359 92.39111328 -41.06443359 92.39111328 -40.04443359 92.39111328 C-40.04443359 93.05111328 -40.04443359 93.71111328 -40.04443359 94.39111328 C-39.26068359 94.70048828 -38.47693359 95.00986328 -37.66943359 95.32861328 C-35.04443359 96.39111328 -35.04443359 96.39111328 -33.04443359 97.39111328 C-33.04443359 98.05111328 -33.04443359 98.71111328 -33.04443359 99.39111328 C-31.91005859 99.53548828 -30.77568359 99.67986328 -29.60693359 99.82861328 C-26.04443359 100.39111328 -26.04443359 100.39111328 -25.04443359 101.39111328 C-22.71625396 101.75872059 -20.38259509 102.09352909 -18.04443359 102.39111328 C-18.04443359 103.05111328 -18.04443359 103.71111328 -18.04443359 104.39111328 C-13.77361511 104.42052975 -9.50282325 104.43805044 -5.23193359 104.45361328 C-3.43852539 104.46618164 -3.43852539 104.46618164 -1.60888672 104.47900391 C12.70056479 104.60243387 12.70056479 104.60243387 26.51806641 101.32861328 C31.82033509 99.39111328 31.82033509 99.39111328 33.95556641 99.39111328 C33.95556641 98.73111328 33.95556641 98.07111328 33.95556641 97.39111328 C35.60556641 97.06111328 37.25556641 96.73111328 38.95556641 96.39111328 C38.95556641 90.78111328 38.95556641 85.17111328 38.95556641 79.39111328 C27.40556641 79.39111328 15.85556641 79.39111328 3.95556641 79.39111328 C4.28556641 77.08111328 4.61556641 74.77111328 4.95556641 72.39111328 C5.61556641 72.39111328 6.27556641 72.39111328 6.95556641 72.39111328 C6.95556641 70.74111328 6.95556641 69.09111328 6.95556641 67.39111328 C7.61556641 67.39111328 8.27556641 67.39111328 8.95556641 67.39111328 C9.28556641 65.74111328 9.61556641 64.09111328 9.95556641 62.39111328 C10.61556641 62.39111328 11.27556641 62.39111328 11.95556641 62.39111328 C11.95556641 61.73111328 11.95556641 61.07111328 11.95556641 60.39111328 C12.61556641 60.39111328 13.27556641 60.39111328 13.95556641 60.39111328 C13.95556641 58.74111328 13.95556641 57.09111328 13.95556641 55.39111328 C31.77556641 55.39111328 49.59556641 55.39111328 67.95556641 55.39111328 C67.95556641 72.55111328 67.95556641 89.71111328 67.95556641 107.39111328 C67.29556641 107.39111328 66.63556641 107.39111328 65.95556641 107.39111328 C65.95556641 108.05111328 65.95556641 108.71111328 65.95556641 109.39111328 C64.30556641 109.39111328 62.65556641 109.39111328 60.95556641 109.39111328 C60.95556641 110.71111328 60.95556641 112.03111328 60.95556641 113.39111328 C57.65556641 114.05111328 54.35556641 114.71111328 50.95556641 115.39111328 C50.95556641 116.05111328 50.95556641 116.71111328 50.95556641 117.39111328 C49.63556641 117.39111328 48.31556641 117.39111328 46.95556641 117.39111328 C46.95556641 118.05111328 46.95556641 118.71111328 46.95556641 119.39111328 C44.31556641 119.72111328 41.67556641 120.05111328 38.95556641 120.39111328 C38.95556641 121.05111328 38.95556641 121.71111328 38.95556641 122.39111328 C37.30556641 122.39111328 35.65556641 122.39111328 33.95556641 122.39111328 C33.95556641 123.05111328 33.95556641 123.71111328 33.95556641 124.39111328 C33.25689453 124.52388672 32.55822266 124.65666016 31.83837891 124.79345703 C30.47326172 125.05835938 30.47326172 125.05835938 29.08056641 125.32861328 C27.72318359 125.58964844 27.72318359 125.58964844 26.33837891 125.85595703 C23.95600323 126.29075029 23.95600323 126.29075029 21.95556641 127.39111328 C3.63808521 130.30145304 -17.62819967 130.1914449 -35.04443359 123.39111328 C-35.95966797 123.03404297 -36.87490234 122.67697266 -37.81787109 122.30908203 C-40.23332392 121.35169667 -42.64148372 120.37938285 -45.04443359 119.39111328 C-45.04443359 118.73111328 -45.04443359 118.07111328 -45.04443359 117.39111328 C-47.35443359 117.06111328 -49.66443359 116.73111328 -52.04443359 116.39111328 C-52.04443359 115.73111328 -52.04443359 115.07111328 -52.04443359 114.39111328 C-53.03443359 114.39111328 -54.02443359 114.39111328 -55.04443359 114.39111328 C-55.04443359 113.73111328 -55.04443359 113.07111328 -55.04443359 112.39111328 C-56.69443359 112.06111328 -58.34443359 111.73111328 -60.04443359 111.39111328 C-60.04443359 110.73111328 -60.04443359 110.07111328 -60.04443359 109.39111328 C-60.70443359 109.39111328 -61.36443359 109.39111328 -62.04443359 109.39111328 C-62.37443359 108.07111328 -62.70443359 106.75111328 -63.04443359 105.39111328 C-64.36443359 105.06111328 -65.68443359 104.73111328 -67.04443359 104.39111328 C-67.04443359 103.73111328 -67.04443359 103.07111328 -67.04443359 102.39111328 C-68.03443359 102.39111328 -69.02443359 102.39111328 -70.04443359 102.39111328 C-70.04443359 101.40111328 -70.04443359 100.41111328 -70.04443359 99.39111328 C-70.70443359 99.39111328 -71.36443359 99.39111328 -72.04443359 99.39111328 C-72.04443359 98.73111328 -72.04443359 98.07111328 -72.04443359 97.39111328 C-73.03443359 97.06111328 -74.02443359 96.73111328 -75.04443359 96.39111328 C-75.04443359 95.07111328 -75.04443359 93.75111328 -75.04443359 92.39111328 C-75.70443359 92.39111328 -76.36443359 92.39111328 -77.04443359 92.39111328 C-77.04443359 91.40111328 -77.04443359 90.41111328 -77.04443359 89.39111328 C-77.70443359 89.39111328 -78.36443359 89.39111328 -79.04443359 89.39111328 C-79.53943359 86.91611328 -79.53943359 86.91611328 -80.04443359 84.39111328 C-80.70443359 84.39111328 -81.36443359 84.39111328 -82.04443359 84.39111328 C-85.98790065 73.26490266 -85.34737309 62.03020411 -85.04443359 50.39111328 C-84.38443359 50.39111328 -83.72443359 50.39111328 -83.04443359 50.39111328 C-82.71443359 47.75111328 -82.38443359 45.11111328 -82.04443359 42.39111328 C-81.38443359 42.39111328 -80.72443359 42.39111328 -80.04443359 42.39111328 C-79.71443359 40.08111328 -79.38443359 37.77111328 -79.04443359 35.39111328 C-78.38443359 35.39111328 -77.72443359 35.39111328 -77.04443359 35.39111328 C-77.04443359 34.73111328 -77.04443359 34.07111328 -77.04443359 33.39111328 C-76.42568359 33.32923828 -75.80693359 33.26736328 -75.16943359 33.20361328 C-72.78840514 32.5705964 -72.78840514 32.5705964 -71.85693359 29.95361328 C-71.58880859 29.10798828 -71.32068359 28.26236328 -71.04443359 27.39111328 C-70.71443359 26.73111328 -70.38443359 26.07111328 -70.04443359 25.39111328 C-69.38443359 25.39111328 -68.72443359 25.39111328 -68.04443359 25.39111328 C-67.96193359 24.79298828 -67.87943359 24.19486328 -67.79443359 23.57861328 C-66.82148933 20.74085917 -65.59994046 19.89435262 -63.04443359 18.39111328 C-62.05443359 18.39111328 -61.06443359 18.39111328 -60.04443359 18.39111328 C-60.04443359 17.73111328 -60.04443359 17.07111328 -60.04443359 16.39111328 C-58.39443359 16.06111328 -56.74443359 15.73111328 -55.04443359 15.39111328 C-55.04443359 14.73111328 -55.04443359 14.07111328 -55.04443359 13.39111328 C-54.38443359 13.39111328 -53.72443359 13.39111328 -53.04443359 13.39111328 C-53.04443359 12.73111328 -53.04443359 12.07111328 -53.04443359 11.39111328 C-50.40443359 11.06111328 -47.76443359 10.73111328 -45.04443359 10.39111328 C-45.04443359 9.73111328 -45.04443359 9.07111328 -45.04443359 8.39111328 C-37.75871931 4.96254185 -37.75871931 4.96254185 -33.04443359 5.39111328 C-33.04443359 4.73111328 -33.04443359 4.07111328 -33.04443359 3.39111328 C-21.95026561 0.59528105 -11.4091622 -0.0807985 0 0 Z " fill="#535353" transform="translate(188.04443359375,41.60888671875)"/>
<path d="M0 0 C9.9 0 19.8 0 30 0 C30 0.66 30 1.32 30 2 C30.66 2 31.32 2 32 2 C32 2.99 32 3.98 32 5 C32.66 5 33.32 5 34 5 C34 5.66 34 6.32 34 7 C34.66 7 35.32 7 36 7 C36.495 9.475 36.495 9.475 37 12 C37.66 12 38.32 12 39 12 C39.495 14.475 39.495 14.475 40 17 C40.66 17 41.32 17 42 17 C43.4606285 19.64738916 44 20.89448334 44 24 C44.66 24 45.32 24 46 24 C46.495 26.97 46.495 26.97 47 30 C47.66 30 48.32 30 49 30 C49.495 32.97 49.495 32.97 50 36 C50.60328125 36.07476562 51.2065625 36.14953125 51.828125 36.2265625 C54.77671384 37.27659953 55.31617988 38.64012088 56.75 41.375 C57.17796875 42.16648438 57.6059375 42.95796875 58.046875 43.7734375 C59 46 59 46 59 49 C59.66 49 60.32 49 61 49 C61.33 50.65 61.66 52.3 62 54 C62.66 54 63.32 54 64 54 C64.33 55.65 64.66 57.3 65 59 C65.66 59 66.32 59 67 59 C67 59.66 67 60.32 67 61 C67.66 61 68.32 61 69 61 C69 61.99 69 62.98 69 64 C69.66 64 70.32 64 71 64 C73.5393228 67.41831915 74.3636198 69.75776898 74 74 C74.99 74 75.98 74 77 74 C77 74.66 77 75.32 77 76 C77.66 76 78.32 76 79 76 C79 76.99 79 77.98 79 79 C79.66 79 80.32 79 81 79 C83.04169485 81.90548882 84 83.40142046 84 87 C84.66 87 85.32 87 86 87 C86 87.66 86 88.32 86 89 C86.66 89 87.32 89 88 89 C88.99 93.95 88.99 93.95 90 99 C90.99 99 91.98 99 93 99 C93.33 100.32 93.66 101.64 94 103 C94.66 103 95.32 103 96 103 C99 108.75 99 108.75 99 111 C99.66 111 100.32 111 101 111 C101.33 112.65 101.66 114.3 102 116 C102.66 116 103.32 116 104 116 C104 116.66 104 117.32 104 118 C104.66 118 105.32 118 106 118 C106 118.99 106 119.98 106 121 C94.78 121 83.56 121 72 121 C71.67 119.35 71.34 117.7 71 116 C70.34 116 69.68 116 69 116 C69 115.34 69 114.68 69 114 C68.01 113.67 67.02 113.34 66 113 C66 112.34 66 111.68 66 111 C65.34 111 64.68 111 64 111 C64 110.34 64 109.68 64 109 C62.35 108.67 60.7 108.34 59 108 C59 107.34 59 106.68 59 106 C58.34 106 57.68 106 57 106 C57 105.34 57 104.68 57 104 C55.7934375 103.7834375 55.7934375 103.7834375 54.5625 103.5625 C52 103 52 103 51 102 C49.09839888 101.87649342 47.1922761 101.82206557 45.28686523 101.79467773 C44.0656749 101.77473251 42.84448456 101.75478729 41.58628845 101.73423767 C40.24372487 101.71725209 38.90115993 101.70037333 37.55859375 101.68359375 C36.19238139 101.66303053 34.82617549 101.64203423 33.4599762 101.62062073 C29.85805476 101.56533465 26.25607529 101.51595437 22.65405273 101.46777344 C18.98090428 101.41760597 15.30784045 101.36189515 11.63476562 101.30664062 C4.42324868 101.19897918 -2.78833847 101.09755213 -10 101 C-9.67 99.35 -9.34 97.7 -9 96 C-8.34 96 -7.68 96 -7 96 C-6.8453125 95.195625 -6.8453125 95.195625 -6.6875 94.375 C-5.81907303 91.37497956 -4.44379704 88.7620465 -3 86 C-2.34 86 -1.68 86 -1 86 C-0.67 84.35 -0.34 82.7 0 81 C0.66 81 1.32 81 2 81 C2.99 79.02 2.99 79.02 4 77 C17.53 76.67 31.06 76.34 45 76 C44.67 74.35 44.34 72.7 44 71 C43.34 71 42.68 71 42 71 C42 70.34 42 69.68 42 69 C40.515 68.505 40.515 68.505 39 68 C39 66.68 39 65.36 39 64 C38.34 64 37.68 64 37 64 C37 63.01 37 62.02 37 61 C36.34 61 35.68 61 35 61 C34.505 59.02 34.505 59.02 34 57 C33.34 57 32.68 57 32 57 C32 55.35 32 53.7 32 52 C30.35 51.67 28.7 51.34 27 51 C27 49.68 27 48.36 27 47 C25.02 46.505 25.02 46.505 23 46 C22.505 42.535 22.505 42.535 22 39 C21.34 39 20.68 39 20 39 C17.56839395 35.63316085 17 34.26649636 17 30 C15.35 29.67 13.7 29.34 12 29 C12 29.99 12 30.98 12 32 C11.34 32 10.68 32 10 32 C9.67 34.31 9.34 36.62 9 39 C8.34 39 7.68 39 7 39 C7 40.65 7 42.3 7 44 C5.515 44.495 5.515 44.495 4 45 C2.77030122 48.51190809 2.77030122 48.51190809 2 52 C1.34 52 0.68 52 0 52 C0 52.66 0 53.32 0 54 C-0.66 54 -1.32 54 -2 54 C-2.33 55.65 -2.66 57.3 -3 59 C-3.66 59 -4.32 59 -5 59 C-5 59.99 -5 60.98 -5 62 C-5.66 62 -6.32 62 -7 62 C-7.33 64.31 -7.66 66.62 -8 69 C-8.66 69 -9.32 69 -10 69 C-10 69.66 -10 70.32 -10 71 C-10.66 71 -11.32 71 -12 71 C-12.33 72.98 -12.66 74.96 -13 77 C-13.66 77 -14.32 77 -15 77 C-15 78.32 -15 79.64 -15 81 C-15.66 81 -16.32 81 -17 81 C-17.33 82.65 -17.66 84.3 -18 86 C-18.66 86 -19.32 86 -20 86 C-20 86.99 -20 87.98 -20 89 C-20.66 89 -21.32 89 -22 89 C-22.33 90.65 -22.66 92.3 -23 94 C-23.66 94 -24.32 94 -25 94 C-25 95.65 -25 97.3 -25 99 C-25.66 99 -26.32 99 -27 99 C-27.09410156 99.69480469 -27.18820312 100.38960938 -27.28515625 101.10546875 C-28.14662883 104.59372656 -29.61974887 107.21741023 -31.4375 110.3125 C-32.05496094 111.38113281 -32.67242188 112.44976562 -33.30859375 113.55078125 C-33.86675781 114.35902344 -34.42492187 115.16726562 -35 116 C-35.66 116 -36.32 116 -37 116 C-37 117.65 -37 119.3 -37 121 C-47.56 121 -58.12 121 -69 121 C-69 120.34 -69 119.68 -69 119 C-68.34 119 -67.68 119 -67 119 C-67 118.01 -67 117.02 -67 116 C-66.34 116 -65.68 116 -65 116 C-64.67 114.35 -64.34 112.7 -64 111 C-63.34 111 -62.68 111 -62 111 C-62 110.01 -62 109.02 -62 108 C-61.34 108 -60.68 108 -60 108 C-59.67 105.69 -59.34 103.38 -59 101 C-58.34 101 -57.68 101 -57 101 C-56.731875 100.278125 -56.46375 99.55625 -56.1875 98.8125 C-55.00098638 96.00233617 -53.72514361 93.51583443 -52 91 C-51.34 91 -50.68 91 -50 91 C-49.87625 90.278125 -49.7525 89.55625 -49.625 88.8125 C-49.0095069 86.04278106 -48.11555626 83.6029646 -47 81 C-46.34 81 -45.68 81 -45 81 C-44.67 78.69 -44.34 76.38 -44 74 C-43.34 74 -42.68 74 -42 74 C-42 73.34 -42 72.68 -42 72 C-41.34 72 -40.68 72 -40 72 C-39.87625 71.236875 -39.7525 70.47375 -39.625 69.6875 C-39 67 -39 67 -37 64 C-36.34 64 -35.68 64 -35 64 C-34.67 61.69 -34.34 59.38 -34 57 C-33.34 57 -32.68 57 -32 57 C-32 56.01 -32 55.02 -32 54 C-31.34 54 -30.68 54 -30 54 C-30 53.34 -30 52.68 -30 52 C-29.34 52 -28.68 52 -28 52 C-27.67 49.69 -27.34 47.38 -27 45 C-26.34 45 -25.68 45 -25 45 C-25 44.01 -25 43.02 -25 42 C-24.34 42 -23.68 42 -23 42 C-22.67 40.35 -22.34 38.7 -22 37 C-21.34 37 -20.68 37 -20 37 C-19.87625 36.278125 -19.7525 35.55625 -19.625 34.8125 C-19.0095069 32.04278106 -18.11555626 29.6029646 -17 27 C-16.34 27 -15.68 27 -15 27 C-14.71125 26.21625 -14.4225 25.4325 -14.125 24.625 C-13 22 -13 22 -11 20 C-10.35232207 17.42938689 -10.35232207 17.42938689 -10 15 C-9.34 15 -8.68 15 -8 15 C-7.67 13.35 -7.34 11.7 -7 10 C-6.34 10 -5.68 10 -5 10 C-5 9.01 -5 8.02 -5 7 C-4.34 7 -3.68 7 -3 7 C-2.67 5.35 -2.34 3.7 -2 2 C-1.34 2 -0.68 2 0 2 C0 1.34 0 0.68 0 0 Z " fill="#525252" transform="translate(697,50)"/>
<path d="M0 0 C0.68383255 0.00424484 1.3676651 0.00848969 2.07221985 0.01286316 C4.25297686 0.02963522 6.43280434 0.06728218 8.61328125 0.10546875 C10.0930856 0.12051761 11.57290445 0.13420567 13.05273438 0.14648438 C16.67738461 0.17953306 20.30149219 0.23130429 23.92578125 0.29296875 C23.92578125 0.95296875 23.92578125 1.61296875 23.92578125 2.29296875 C24.58578125 2.29296875 25.24578125 2.29296875 25.92578125 2.29296875 C26.42078125 6.25296875 26.42078125 6.25296875 26.92578125 10.29296875 C27.58578125 10.29296875 28.24578125 10.29296875 28.92578125 10.29296875 C28.92578125 10.95296875 28.92578125 11.61296875 28.92578125 12.29296875 C29.58578125 12.29296875 30.24578125 12.29296875 30.92578125 12.29296875 C31.42078125 14.76796875 31.42078125 14.76796875 31.92578125 17.29296875 C32.58578125 17.29296875 33.24578125 17.29296875 33.92578125 17.29296875 C36.92578125 23.91796875 36.92578125 23.91796875 36.92578125 27.29296875 C37.58578125 27.29296875 38.24578125 27.29296875 38.92578125 27.29296875 C38.92578125 27.95296875 38.92578125 28.61296875 38.92578125 29.29296875 C39.58578125 29.29296875 40.24578125 29.29296875 40.92578125 29.29296875 C40.92578125 30.28296875 40.92578125 31.27296875 40.92578125 32.29296875 C41.58578125 32.29296875 42.24578125 32.29296875 42.92578125 32.29296875 C44.25911458 36.29296875 45.59244792 40.29296875 46.92578125 44.29296875 C47.58578125 44.29296875 48.24578125 44.29296875 48.92578125 44.29296875 C48.92578125 45.28296875 48.92578125 46.27296875 48.92578125 47.29296875 C49.58578125 47.29296875 50.24578125 47.29296875 50.92578125 47.29296875 C53.82686419 51.12239823 54.46258214 54.56833787 54.92578125 59.29296875 C55.58578125 59.29296875 56.24578125 59.29296875 56.92578125 59.29296875 C57.91578125 61.76796875 57.91578125 61.76796875 58.92578125 64.29296875 C59.58578125 64.29296875 60.24578125 64.29296875 60.92578125 64.29296875 C61.25578125 65.94296875 61.58578125 67.59296875 61.92578125 69.29296875 C62.58578125 69.29296875 63.24578125 69.29296875 63.92578125 69.29296875 C63.92578125 70.28296875 63.92578125 71.27296875 63.92578125 72.29296875 C64.58578125 72.29296875 65.24578125 72.29296875 65.92578125 72.29296875 C65.92578125 73.61296875 65.92578125 74.93296875 65.92578125 76.29296875 C66.58578125 76.29296875 67.24578125 76.29296875 67.92578125 76.29296875 C68.25578125 78.27296875 68.58578125 80.25296875 68.92578125 82.29296875 C69.58578125 82.29296875 70.24578125 82.29296875 70.92578125 82.29296875 C71.25578125 84.60296875 71.58578125 86.91296875 71.92578125 89.29296875 C72.58578125 89.29296875 73.24578125 89.29296875 73.92578125 89.29296875 C73.92578125 90.61296875 73.92578125 91.93296875 73.92578125 93.29296875 C74.58578125 93.29296875 75.24578125 93.29296875 75.92578125 93.29296875 C76.25578125 95.27296875 76.58578125 97.25296875 76.92578125 99.29296875 C78.24578125 99.29296875 79.56578125 99.29296875 80.92578125 99.29296875 C81.25578125 101.60296875 81.58578125 103.91296875 81.92578125 106.29296875 C82.58578125 106.29296875 83.24578125 106.29296875 83.92578125 106.29296875 C83.92578125 107.94296875 83.92578125 109.59296875 83.92578125 111.29296875 C84.58578125 111.29296875 85.24578125 111.29296875 85.92578125 111.29296875 C86.25578125 112.94296875 86.58578125 114.59296875 86.92578125 116.29296875 C88.24578125 116.29296875 89.56578125 116.29296875 90.92578125 116.29296875 C90.92578125 117.94296875 90.92578125 119.59296875 90.92578125 121.29296875 C81.02578125 121.29296875 71.12578125 121.29296875 60.92578125 121.29296875 C60.92578125 120.30296875 60.92578125 119.31296875 60.92578125 118.29296875 C60.26578125 118.29296875 59.60578125 118.29296875 58.92578125 118.29296875 C58.59578125 115.98296875 58.26578125 113.67296875 57.92578125 111.29296875 C57.26578125 111.29296875 56.60578125 111.29296875 55.92578125 111.29296875 C55.92578125 110.63296875 55.92578125 109.97296875 55.92578125 109.29296875 C55.26578125 109.29296875 54.60578125 109.29296875 53.92578125 109.29296875 C53.92578125 108.30296875 53.92578125 107.31296875 53.92578125 106.29296875 C53.26578125 106.29296875 52.60578125 106.29296875 51.92578125 106.29296875 C51.59578125 103.98296875 51.26578125 101.67296875 50.92578125 99.29296875 C50.26578125 99.29296875 49.60578125 99.29296875 48.92578125 99.29296875 C48.92578125 98.30296875 48.92578125 97.31296875 48.92578125 96.29296875 C48.26578125 96.29296875 47.60578125 96.29296875 46.92578125 96.29296875 C46.26578125 94.64296875 45.60578125 92.99296875 44.92578125 91.29296875 C44.26578125 91.29296875 43.60578125 91.29296875 42.92578125 91.29296875 C40.92578125 85.29296875 40.92578125 85.29296875 38.92578125 79.29296875 C38.26578125 79.29296875 37.60578125 79.29296875 36.92578125 79.29296875 C36.59578125 77.64296875 36.26578125 75.99296875 35.92578125 74.29296875 C34.44078125 73.79796875 34.44078125 73.79796875 32.92578125 73.29296875 C32.43078125 69.82796875 32.43078125 69.82796875 31.92578125 66.29296875 C31.26578125 66.29296875 30.60578125 66.29296875 29.92578125 66.29296875 C29.59578125 64.64296875 29.26578125 62.99296875 28.92578125 61.29296875 C28.26578125 61.29296875 27.60578125 61.29296875 26.92578125 61.29296875 C26.92578125 60.63296875 26.92578125 59.97296875 26.92578125 59.29296875 C26.26578125 59.29296875 25.60578125 59.29296875 24.92578125 59.29296875 C24.43078125 55.82796875 24.43078125 55.82796875 23.92578125 52.29296875 C23.26578125 52.29296875 22.60578125 52.29296875 21.92578125 52.29296875 C21.92578125 51.30296875 21.92578125 50.31296875 21.92578125 49.29296875 C21.26578125 49.29296875 20.60578125 49.29296875 19.92578125 49.29296875 C19.59578125 47.64296875 19.26578125 45.99296875 18.92578125 44.29296875 C18.26578125 44.29296875 17.60578125 44.29296875 16.92578125 44.29296875 C16.92578125 42.64296875 16.92578125 40.99296875 16.92578125 39.29296875 C16.26578125 39.29296875 15.60578125 39.29296875 14.92578125 39.29296875 C11.92578125 34.90835337 11.92578125 34.90835337 11.92578125 32.29296875 C9.61578125 32.29296875 7.30578125 32.29296875 4.92578125 32.29296875 C4.59578125 34.60296875 4.26578125 36.91296875 3.92578125 39.29296875 C3.26578125 39.29296875 2.60578125 39.29296875 1.92578125 39.29296875 C0.85052931 41.94525687 -0.16878026 44.57665329 -1.07421875 47.29296875 C-1.73421875 47.29296875 -2.39421875 47.29296875 -3.07421875 47.29296875 C-3.07421875 47.95296875 -3.07421875 48.61296875 -3.07421875 49.29296875 C-4.44921875 50.91796875 -4.44921875 50.91796875 -6.07421875 52.29296875 C-6.73421875 52.29296875 -7.39421875 52.29296875 -8.07421875 52.29296875 C-8.07421875 52.95296875 -8.07421875 53.61296875 -8.07421875 54.29296875 C-8.73421875 54.29296875 -9.39421875 54.29296875 -10.07421875 54.29296875 C-10.07421875 55.28296875 -10.07421875 56.27296875 -10.07421875 57.29296875 C-10.73421875 57.29296875 -11.39421875 57.29296875 -12.07421875 57.29296875 C-12.40421875 58.94296875 -12.73421875 60.59296875 -13.07421875 62.29296875 C-13.73421875 62.29296875 -14.39421875 62.29296875 -15.07421875 62.29296875 C-15.07421875 62.95296875 -15.07421875 63.61296875 -15.07421875 64.29296875 C-15.73421875 64.29296875 -16.39421875 64.29296875 -17.07421875 64.29296875 C-17.40421875 65.94296875 -17.73421875 67.59296875 -18.07421875 69.29296875 C-18.73421875 69.29296875 -19.39421875 69.29296875 -20.07421875 69.29296875 C-20.07421875 70.28296875 -20.07421875 71.27296875 -20.07421875 72.29296875 C-20.73421875 72.29296875 -21.39421875 72.29296875 -22.07421875 72.29296875 C-22.07421875 73.61296875 -22.07421875 74.93296875 -22.07421875 76.29296875 C-8.21421875 76.62296875 5.64578125 76.95296875 19.92578125 77.29296875 C19.92578125 77.95296875 19.92578125 78.61296875 19.92578125 79.29296875 C20.58578125 79.29296875 21.24578125 79.29296875 21.92578125 79.29296875 C21.92578125 79.95296875 21.92578125 80.61296875 21.92578125 81.29296875 C22.58578125 81.29296875 23.24578125 81.29296875 23.92578125 81.29296875 C23.92578125 82.28296875 23.92578125 83.27296875 23.92578125 84.29296875 C24.58578125 84.29296875 25.24578125 84.29296875 25.92578125 84.29296875 C26.42078125 87.75796875 26.42078125 87.75796875 26.92578125 91.29296875 C27.58578125 91.29296875 28.24578125 91.29296875 28.92578125 91.29296875 C29.25578125 92.94296875 29.58578125 94.59296875 29.92578125 96.29296875 C30.58578125 96.29296875 31.24578125 96.29296875 31.92578125 96.29296875 C31.92578125 97.94296875 31.92578125 99.59296875 31.92578125 101.29296875 C31.19772781 101.3010556 30.46967438 101.30914246 29.71955872 101.31747437 C22.84853298 101.39550967 15.9776807 101.48282731 9.10690784 101.58049583 C5.57481098 101.63037943 2.04274286 101.67670982 -1.48950195 101.71484375 C-5.55308636 101.75887129 -9.61631347 101.81848982 -13.6796875 101.87890625 C-14.94443405 101.89045746 -16.2091806 101.90200867 -17.51225281 101.91390991 C-18.69309952 101.9337796 -19.87394623 101.95364929 -21.09057617 101.97412109 C-22.12760178 101.98744476 -23.16462738 102.00076843 -24.233078 102.01449585 C-27.1947048 102.30477813 -29.35126996 103.13945237 -32.07421875 104.29296875 C-33.06421875 104.29296875 -34.05421875 104.29296875 -35.07421875 104.29296875 C-35.07421875 104.95296875 -35.07421875 105.61296875 -35.07421875 106.29296875 C-35.73421875 106.29296875 -36.39421875 106.29296875 -37.07421875 106.29296875 C-37.56921875 107.77796875 -37.56921875 107.77796875 -38.07421875 109.29296875 C-39.39421875 109.29296875 -40.71421875 109.29296875 -42.07421875 109.29296875 C-42.56921875 111.27296875 -42.56921875 111.27296875 -43.07421875 113.29296875 C-43.73421875 113.29296875 -44.39421875 113.29296875 -45.07421875 113.29296875 C-45.07421875 114.28296875 -45.07421875 115.27296875 -45.07421875 116.29296875 C-45.73421875 116.29296875 -46.39421875 116.29296875 -47.07421875 116.29296875 C-47.56921875 117.77796875 -47.56921875 117.77796875 -48.07421875 119.29296875 C-48.73421875 119.29296875 -49.39421875 119.29296875 -50.07421875 119.29296875 C-50.07421875 119.95296875 -50.07421875 120.61296875 -50.07421875 121.29296875 C-60.63421875 121.29296875 -71.19421875 121.29296875 -82.07421875 121.29296875 C-82.07421875 120.30296875 -82.07421875 119.31296875 -82.07421875 118.29296875 C-81.41421875 118.29296875 -80.75421875 118.29296875 -80.07421875 118.29296875 C-79.74421875 116.64296875 -79.41421875 114.99296875 -79.07421875 113.29296875 C-78.41421875 113.29296875 -77.75421875 113.29296875 -77.07421875 113.29296875 C-77.07421875 111.97296875 -77.07421875 110.65296875 -77.07421875 109.29296875 C-76.08421875 108.79796875 -76.08421875 108.79796875 -75.07421875 108.29296875 C-74.42208583 106.2683362 -74.42208583 106.2683362 -74.07421875 104.29296875 C-73.41421875 104.29296875 -72.75421875 104.29296875 -72.07421875 104.29296875 C-72.07421875 103.30296875 -72.07421875 102.31296875 -72.07421875 101.29296875 C-71.41421875 101.29296875 -70.75421875 101.29296875 -70.07421875 101.29296875 C-68.86793867 98.96082727 -67.90874495 96.79654736 -67.07421875 94.29296875 C-66.41421875 94.29296875 -65.75421875 94.29296875 -65.07421875 94.29296875 C-64.74421875 92.64296875 -64.41421875 90.99296875 -64.07421875 89.29296875 C-63.41421875 89.29296875 -62.75421875 89.29296875 -62.07421875 89.29296875 C-61.95046875 88.52984375 -61.82671875 87.76671875 -61.69921875 86.98046875 C-61.07421875 84.29296875 -61.07421875 84.29296875 -59.07421875 81.29296875 C-58.41421875 81.29296875 -57.75421875 81.29296875 -57.07421875 81.29296875 C-57.07421875 80.63296875 -57.07421875 79.97296875 -57.07421875 79.29296875 C-56.41421875 79.29296875 -55.75421875 79.29296875 -55.07421875 79.29296875 C-55.07421875 78.30296875 -55.07421875 77.31296875 -55.07421875 76.29296875 C-54.41421875 76.29296875 -53.75421875 76.29296875 -53.07421875 76.29296875 C-52.74421875 74.64296875 -52.41421875 72.99296875 -52.07421875 71.29296875 C-51.41421875 71.29296875 -50.75421875 71.29296875 -50.07421875 71.29296875 C-49.74421875 68.98296875 -49.41421875 66.67296875 -49.07421875 64.29296875 C-48.41421875 64.29296875 -47.75421875 64.29296875 -47.07421875 64.29296875 C-47.07421875 63.63296875 -47.07421875 62.97296875 -47.07421875 62.29296875 C-46.41421875 62.29296875 -45.75421875 62.29296875 -45.07421875 62.29296875 C-45.07421875 61.30296875 -45.07421875 60.31296875 -45.07421875 59.29296875 C-44.41421875 59.29296875 -43.75421875 59.29296875 -43.07421875 59.29296875 C-42.74421875 57.64296875 -42.41421875 55.99296875 -42.07421875 54.29296875 C-41.41421875 54.29296875 -40.75421875 54.29296875 -40.07421875 54.29296875 C-39.74421875 52.64296875 -39.41421875 50.99296875 -39.07421875 49.29296875 C-38.41421875 49.29296875 -37.75421875 49.29296875 -37.07421875 49.29296875 C-37.07421875 48.63296875 -37.07421875 47.97296875 -37.07421875 47.29296875 C-36.41421875 47.29296875 -35.75421875 47.29296875 -35.07421875 47.29296875 C-35.07421875 46.30296875 -35.07421875 45.31296875 -35.07421875 44.29296875 C-34.41421875 44.29296875 -33.75421875 44.29296875 -33.07421875 44.29296875 C-32.74421875 42.64296875 -32.41421875 40.99296875 -32.07421875 39.29296875 C-31.41421875 39.29296875 -30.75421875 39.29296875 -30.07421875 39.29296875 C-30.07421875 38.63296875 -30.07421875 37.97296875 -30.07421875 37.29296875 C-29.41421875 37.29296875 -28.75421875 37.29296875 -28.07421875 37.29296875 C-27.74421875 34.98296875 -27.41421875 32.67296875 -27.07421875 30.29296875 C-26.41421875 30.29296875 -25.75421875 30.29296875 -25.07421875 30.29296875 C-25.07421875 29.30296875 -25.07421875 28.31296875 -25.07421875 27.29296875 C-24.08421875 26.96296875 -23.09421875 26.63296875 -22.07421875 26.29296875 C-20.84901611 23.28449457 -20.84901611 23.28449457 -20.07421875 20.29296875 C-19.41421875 20.29296875 -18.75421875 20.29296875 -18.07421875 20.29296875 C-17.74421875 18.64296875 -17.41421875 16.99296875 -17.07421875 15.29296875 C-16.41421875 15.29296875 -15.75421875 15.29296875 -15.07421875 15.29296875 C-15.07421875 14.30296875 -15.07421875 13.31296875 -15.07421875 12.29296875 C-14.41421875 12.29296875 -13.75421875 12.29296875 -13.07421875 12.29296875 C-12.89246094 11.67808594 -12.71070313 11.06320313 -12.5234375 10.4296875 C-12.27207031 9.62144531 -12.02070313 8.81320313 -11.76171875 7.98046875 C-11.51808594 7.17996094 -11.27445312 6.37945312 -11.0234375 5.5546875 C-8.67654036 -0.03730197 -5.83687919 -0.07147199 0 0 Z " fill="#525252" transform="translate(346.07421875,49.70703125)"/>
<path d="M0 0 C44.55 0 89.1 0 135 0 C135 7.26 135 14.52 135 22 C117.18 22 99.36 22 81 22 C81 54.67 81 87.34 81 121 C72.09 121 63.18 121 54 121 C54 88.33 54 55.66 54 22 C36.18 22 18.36 22 0 22 C0 14.74 0 7.48 0 0 Z " fill="#525252" transform="translate(979,50)"/>
<path d="M0 0 C17.8453085 -0.02332826 35.69061306 -0.04097882 53.53593349 -0.05181217 C61.82124274 -0.05697528 70.10654253 -0.06401827 78.3918457 -0.07543945 C85.61069608 -0.08538583 92.82953961 -0.09185332 100.04839665 -0.09408849 C103.87308255 -0.09539568 107.69774887 -0.09848203 111.52242851 -0.10573006 C115.11825787 -0.11248954 118.71405946 -0.11461711 122.30989456 -0.11310768 C124.26706037 -0.11351636 126.22422312 -0.11891193 128.18138123 -0.12442017 C129.91255188 -0.12235817 129.91255188 -0.12235817 131.67869568 -0.12025452 C132.688059 -0.12117631 133.69742231 -0.1220981 134.7373724 -0.12304783 C137 0 137 0 138 1 C138 9.25 138 17.5 138 26 C120.51 26 103.02 26 85 26 C85 58.01 85 90.02 85 123 C84.34 123 83.68 123 83 123 C83 90.33 83 57.66 83 24 C100.82 24 118.64 24 137 24 C137 16.74 137 9.48 137 2 C92.45 2 47.9 2 2 2 C2 9.26 2 16.52 2 24 C19.82 24 37.64 24 56 24 C56 56.67 56 89.34 56 123 C55.34 123 54.68 123 54 123 C54 90.99 54 58.98 54 26 C36.51 26 19.02 26 1 26 C-0.30475618 23.39048764 -0.11301572 21.47298715 -0.09765625 18.5546875 C-0.09443359 17.47832031 -0.09121094 16.40195313 -0.08789062 15.29296875 C-0.07951172 14.16503906 -0.07113281 13.03710938 -0.0625 11.875 C-0.05798828 10.73933594 -0.05347656 9.60367188 -0.04882812 8.43359375 C-0.03701615 5.62234362 -0.02054507 2.8111977 0 0 Z " fill="#CECECE" transform="translate(977,48)"/>
<path d="M0 0 C1.65 0 3.3 0 5 0 C5 8.25 5 16.5 5 25 C8.78834395 23.73721868 9.22011278 22.47887048 11 19 C11.165 18.29875 11.33 17.5975 11.5 16.875 C12.13091098 14.50908384 13.10592821 13.51525743 15 12 C15.66 12 16.32 12 17 12 C17.33 9.69 17.66 7.38 18 5 C18.66 5 19.32 5 20 5 C20 4.34 20 3.68 20 3 C20.66 3 21.32 3 22 3 C22 2.01 22 1.02 22 0 C24.31 0 26.62 0 29 0 C29 11.88 29 23.76 29 36 C27.35 35.67 25.7 35.34 24 35 C24 26.75 24 18.5 24 10 C23.34 10 22.68 10 22 10 C22 10.66 22 11.32 22 12 C21 13 20 14 19 15 C17.82425289 17.09989652 17.82425289 17.09989652 17 19 C16.34 19 15.68 19 15 19 C14.67 20.65 14.34 22.3 14 24 C13.34 24 12.68 24 12 24 C12 24.99 12 25.98 12 27 C11.34 27 10.68 27 10 27 C9.731875 27.763125 9.46375 28.52625 9.1875 29.3125 C8.02271111 31.94860118 7.34002598 33.35331505 5 35 C3.35 35 1.7 35 0 35 C0 23.45 0 11.9 0 0 Z " fill="#696969" transform="translate(697,223)"/>
<path d="M0 0 C2.31 0 4.62 0 7 0 C7 1.65 7 3.3 7 5 C7.66 5 8.32 5 9 5 C9.81520635 7.72838435 10.62724843 10.45764417 11.4375 13.1875 C11.66759766 13.95642578 11.89769531 14.72535156 12.13476562 15.51757812 C13.26235986 19.32525141 14.3168177 23.08151762 15 27 C15.66 27 16.32 27 17 27 C17 28.65 17 30.3 17 32 C17.66 32 18.32 32 19 32 C19 33.32 19 34.64 19 36 C16.625 35.6875 16.625 35.6875 14 35 C12 32 12 32 12 25 C6.39 25 0.78 25 -5 25 C-5.33 28.63 -5.66 32.26 -6 36 C-8.97 36.495 -8.97 36.495 -12 37 C-11.44687265 32.97007218 -10.8441938 28.97977076 -10 25 C-9.34 25 -8.68 25 -8 25 C-7.814375 24.01 -7.814375 24.01 -7.625 23 C-6.85479462 19.30301417 -5.93049337 15.65994058 -5 12 C-4.34 12 -3.68 12 -3 12 C-3 10.35 -3 8.7 -3 7 C-2.34 7 -1.68 7 -1 7 C-0.67 4.69 -0.34 2.38 0 0 Z " fill="#939393" transform="translate(440,223)"/>
<path d="M0 0 C17.8453085 -0.02332826 35.69061306 -0.04097882 53.53593349 -0.05181217 C61.82124274 -0.05697528 70.10654253 -0.06401827 78.3918457 -0.07543945 C85.61069608 -0.08538583 92.82953961 -0.09185332 100.04839665 -0.09408849 C103.87308255 -0.09539568 107.69774887 -0.09848203 111.52242851 -0.10573006 C115.11825787 -0.11248954 118.71405946 -0.11461711 122.30989456 -0.11310768 C124.26706037 -0.11351636 126.22422312 -0.11891193 128.18138123 -0.12442017 C129.91255188 -0.12235817 129.91255188 -0.12235817 131.67869568 -0.12025452 C132.688059 -0.12117631 133.69742231 -0.1220981 134.7373724 -0.12304783 C137 0 137 0 138 1 C138 9.25 138 17.5 138 26 C120.51 26 103.02 26 85 26 C85 58.01 85 90.02 85 123 C84.34 123 83.68 123 83 123 C83 90.33 83 57.66 83 24 C100.82 24 118.64 24 137 24 C136.67 16.74 136.34 9.48 136 2 C91.12 2 46.24 2 0 2 C0 1.34 0 0.68 0 0 Z " fill="#DEDEDE" transform="translate(977,48)"/>
<path d="M0 0 C1.21538405 0.00138269 1.21538405 0.00138269 2.45532131 0.00279331 C3.38225292 0.00141865 4.30918453 0.00004398 5.26420498 -0.00137234 C6.80168392 0.00402058 6.80168392 0.00402058 8.37022305 0.00952244 C9.97978123 0.0093034 9.97978123 0.0093034 11.62185574 0.00907993 C15.18765656 0.00977959 18.75340589 0.01757445 22.31919765 0.02539158 C24.78399534 0.02725557 27.24879339 0.02867956 29.71359158 0.0296793 C36.21558045 0.03350596 42.71754716 0.0433375 49.21952724 0.05438328 C55.84844957 0.06513035 62.47737833 0.06917624 69.10630703 0.0742197 C82.12389464 0.08495964 95.14146685 0.10184686 108.1590414 0.12304783 C108.1590414 0.78304783 108.1590414 1.44304783 108.1590414 2.12304783 C72.1890414 2.12304783 36.2190414 2.12304783 -0.8409586 2.12304783 C-0.8409586 42.05304783 -0.8409586 81.98304783 -0.8409586 123.12304783 C-1.5009586 123.12304783 -2.1609586 123.12304783 -2.8409586 123.12304783 C-2.86428783 107.23349656 -2.88193789 91.34394989 -2.89277077 75.45438576 C-2.89793367 68.07708827 -2.90497627 60.69980139 -2.91639805 53.32251072 C-2.92634505 46.89472603 -2.93281206 40.46694903 -2.93504709 34.03915685 C-2.93635417 30.63365505 -2.93943984 27.22817525 -2.94668865 23.82268047 C-2.95389465 20.02703742 -2.95494972 16.23144071 -2.95448399 12.43579197 C-2.95807926 11.29859715 -2.96167454 10.16140232 -2.96537876 8.98974705 C-2.9640041 7.96184559 -2.96262943 6.93394413 -2.96121311 5.87489414 C-2.9621349 4.97614598 -2.9630567 4.07739782 -2.96400642 3.15141487 C-2.804894 0.52854545 -2.62697445 0.17558434 0 0 Z " fill="#CCCCCC" transform="translate(457.8409585952759,47.876952171325684)"/>
<path d="M0 0 C1.98 0 3.96 0 6 0 C7.17076699 3.98060777 8.25749403 7.91621717 9 12 C9.66 12 10.32 12 11 12 C11.33 14.64 11.66 17.28 12 20 C12.66 20 13.32 20 14 20 C14 22.31 14 24.62 14 27 C14.66 27 15.32 27 16 27 C16.33 29.64 16.66 32.28 17 35 C15.35 35 13.7 35 12 35 C11.505 30.05 11.505 30.05 11 25 C5.72 25 0.44 25 -5 25 C-5.33 27.31 -5.66 29.62 -6 32 C-6.66 32 -7.32 32 -8 32 C-8 33.32 -8 34.64 -8 36 C-9.65 36 -11.3 36 -13 36 C-13 34.02 -13 32.04 -13 30 C-12.34 30 -11.68 30 -11 30 C-11 29.01 -11 28.02 -11 27 C-10.34 27 -9.68 27 -9 27 C-8.67 24.69 -8.34 22.38 -8 20 C-7.34 20 -6.68 20 -6 20 C-6 18.35 -6 16.7 -6 15 C-5.34 15 -4.68 15 -4 15 C-3.67 11.7 -3.34 8.4 -3 5 C-2.34 5 -1.68 5 -1 5 C-0.67 3.35 -0.34 1.7 0 0 Z " fill="#555555" transform="translate(799,223)"/>
<path d="M0 0 C1.65 0 3.3 0 5 0 C5 4.95 5 9.9 5 15 C10.94 15 16.88 15 23 15 C23 10.05 23 5.1 23 0 C24.65 0 26.3 0 28 0 C28 11.88 28 23.76 28 36 C26.35 36 24.7 36 23 36 C23 30.39 23 24.78 23 19 C17.06 19 11.12 19 5 19 C5 24.61 5 30.22 5 36 C3.35 36 1.7 36 0 36 C0 24.12 0 12.24 0 0 Z " fill="#777777" transform="translate(647,223)"/>
<path d="M0 0 C1.32 0 2.64 0 4 0 C4 4.95 4 9.9 4 15 C9.94 15 15.88 15 22 15 C22 10.05 22 5.1 22 0 C23.65 0 25.3 0 27 0 C27 12.21 27 24.42 27 37 C25.35 37 23.7 37 22 37 C22 31.06 22 25.12 22 19 C16.06 19 10.12 19 4 19 C4 24.61 4 30.22 4 36 C2.68 36 1.36 36 0 36 C0 24.12 0 12.24 0 0 Z " fill="#636363" transform="translate(477,223)"/>
<path d="M0 0 C6.6 0 13.2 0 20 0 C20 1.32 20 2.64 20 4 C15.05 4 10.1 4 5 4 C5 7.63 5 11.26 5 15 C9.62 15 14.24 15 19 15 C19 16.65 19 18.3 19 20 C14.38 20 9.76 20 5 20 C5 23.96 5 27.92 5 32 C9.95 32 14.9 32 20 32 C20 33.32 20 34.64 20 36 C13.4 36 6.8 36 0 36 C0 24.12 0 12.24 0 0 Z " fill="#777777" transform="translate(566,223)"/>
<path d="M0 0 C13.385625 -0.020625 26.77125 -0.04125 40.5625 -0.0625 C44.77974854 -0.071604 48.99699707 -0.08070801 53.34204102 -0.09008789 C58.51550293 -0.09460449 58.51550293 -0.09460449 60.94200134 -0.09544373 C62.62669642 -0.0969733 64.31139044 -0.10047786 65.99607849 -0.10557556 C68.55673101 -0.11293252 71.11731696 -0.11390473 73.67797852 -0.11352539 C74.42099748 -0.1171235 75.16401644 -0.12072161 75.92955112 -0.12442875 C80.39973487 -0.11560888 84.60404274 0.27285916 89 1 C89 1.66 89 2.32 89 3 C60.29 2.67 31.58 2.34 2 2 C2 34.01 2 66.02 2 99 C1.34 99 0.68 99 0 99 C0 66.33 0 33.66 0 0 Z " fill="#D9D9D9" transform="translate(484,72)"/>
<path d="M0 0 C1.65 0 3.3 0 5 0 C5 0.99 5 1.98 5 3 C5.66 3 6.32 3 7 3 C7 3.66 7 4.32 7 5 C7.66 5 8.32 5 9 5 C9.33 7.31 9.66 9.62 10 12 C10.99 12 11.98 12 13 12 C13 11.34 13 10.68 13 10 C13.66 10 14.32 10 15 10 C15 9.34 15 8.68 15 8 C15.66 8 16.32 8 17 8 C17.12375 7.236875 17.2475 6.47375 17.375 5.6875 C18 3 18 3 20 0 C22.625 -0.1875 22.625 -0.1875 25 0 C24.67 1.65 24.34 3.3 24 5 C23.34 5 22.68 5 22 5 C21.87625 5.598125 21.7525 6.19625 21.625 6.8125 C21 9 21 9 19 12 C18.34 12 17.68 12 17 12 C17 15.3 17 18.6 17 22 C17.66 22 18.32 22 19 22 C19.33 23.65 19.66 25.3 20 27 C20.66 27 21.32 27 22 27 C22 27.66 22 28.32 22 29 C22.66 29 23.32 29 24 29 C24.33 30.98 24.66 32.96 25 35 C21.89347355 34.6641593 20.39585697 34.40950721 18.1875 32.125 C17 30 17 30 17 27 C16.34 27 15.68 27 15 27 C15 26.01 15 25.02 15 24 C14.34 24 13.68 24 13 24 C13 23.34 13 22.68 13 22 C12.01 22 11.02 22 10 22 C9.67 23.65 9.34 25.3 9 27 C8.34 27 7.68 27 7 27 C7 28.65 7 30.3 7 32 C6.34 32 5.68 32 5 32 C4.67 32.99 4.34 33.98 4 35 C2.68 35 1.36 35 0 35 C0 34.01 0 33.02 0 32 C0.66 32 1.32 32 2 32 C2.33 30.35 2.66 28.7 3 27 C3.66 27 4.32 27 5 27 C5 26.01 5 25.02 5 24 C5.66 24 6.32 24 7 24 C7 20.04 7 16.08 7 12 C6.34 12 5.68 12 5 12 C3.7109375 10.390625 3.7109375 10.390625 2.375 8.25 C1.92898438 7.55390625 1.48296875 6.8578125 1.0234375 6.140625 C0 4 0 4 0 0 Z " fill="#575757" transform="translate(603,223)"/>
<path d="M0 0 C1.32 0 2.64 0 4 0 C4 4.95 4 9.9 4 15 C4.99 14.67 5.98 14.34 7 14 C7.33 13.34 7.66 12.68 8 12 C8.66 12 9.32 12 10 12 C10.33 10.68 10.66 9.36 11 8 C11.639375 7.896875 12.27875 7.79375 12.9375 7.6875 C13.9584375 7.3471875 13.9584375 7.3471875 15 7 C15.33 6.01 15.66 5.02 16 4 C16.66 4 17.32 4 18 4 C18 2.68 18 1.36 18 0 C20.31 0 22.62 0 25 0 C25 0.66 25 1.32 25 2 C24.34 2 23.68 2 23 2 C22.67 3.65 22.34 5.3 22 7 C20.68 7 19.36 7 18 7 C18 7.66 18 8.32 18 9 C16.625 10.625 16.625 10.625 15 12 C14.34 12 13.68 12 13 12 C13 12.99 13 13.98 13 15 C12.34 15 11.68 15 11 15 C11 16.32 11 17.64 11 19 C11.66 19.33 12.32 19.66 13 20 C13 20.66 13 21.32 13 22 C13.66 22 14.32 22 15 22 C16.625 23.25 16.625 23.25 18 25 C18 26.32 18 27.64 18 29 C18.99 29.33 19.98 29.66 21 30 C21 30.66 21 31.32 21 32 C21.66 32 22.32 32 23 32 C23 32.99 23 33.98 23 35 C21.35 34.67 19.7 34.34 18 34 C18 33.34 18 32.68 18 32 C16.35 31.67 14.7 31.34 13 31 C13 29.68 13 28.36 13 27 C12.34 27 11.68 27 11 27 C9.375 25.625 9.375 25.625 8 24 C8 23.34 8 22.68 8 22 C7.34 22 6.68 22 6 22 C6 21.01 6 20.02 6 19 C5.01 19 4.02 19 3 19 C3 24.28 3 29.56 3 35 C2.01 35 1.02 35 0 35 C0 23.45 0 11.9 0 0 Z " fill="#717171" transform="translate(748,223)"/>
<path d="M0 0 C4.95 0 9.9 0 15 0 C15.33 0.99 15.66 1.98 16 3 C15.67 3.66 15.34 4.32 15 5 C10.05 5 5.1 5 0 5 C0 5.66 0 6.32 0 7 C-0.65484375 7.33644531 -1.3096875 7.67289063 -1.984375 8.01953125 C-4.42589546 10.41846705 -4.30776272 11.12604048 -4.390625 14.44921875 C-4.36406195 16.19573959 -4.31639645 17.94203956 -4.25 19.6875 C-4.23195313 20.58017578 -4.21390625 21.47285156 -4.1953125 22.39257812 C-4.14817759 24.59613504 -4.08240657 26.79752601 -4 29 C-0.12676689 31.13102594 3.39811244 31.42756087 7.75 31.625 C8.44738281 31.66367188 9.14476562 31.70234375 9.86328125 31.7421875 C11.57510818 31.83598624 13.28751682 31.91906174 15 32 C15 32.99 15 33.98 15 35 C14.34 35 13.68 35 13 35 C13 35.66 13 36.32 13 37 C9.04 37 5.08 37 1 37 C1 36.34 1 35.68 1 35 C-0.1446875 34.814375 -0.1446875 34.814375 -1.3125 34.625 C-4 34 -4 34 -7 32 C-7 31.34 -7 30.68 -7 30 C-7.66 30 -8.32 30 -9 30 C-10.65642737 22.54607684 -10.72005735 14.43993062 -9 7 C-8.34 7 -7.68 7 -7 7 C-6.67 5.68 -6.34 4.36 -6 3 C-4.02 2.67 -2.04 2.34 0 2 C0 1.34 0 0.68 0 0 Z " fill="#6D6D6D" transform="translate(397,223)"/>
<path d="M0 0 C8.58 0 17.16 0 26 0 C26 1.32 26 2.64 26 4 C22.7 4 19.4 4 16 4 C16 14.23 16 24.46 16 35 C13.525 35.495 13.525 35.495 11 36 C10.67 25.77 10.34 15.54 10 5 C7.03 4.67 4.06 4.34 1 4 C0.67 2.68 0.34 1.36 0 0 Z " fill="#818181" transform="translate(522,223)"/>
<path d="M0 0 C2.31 0 4.62 0 7 0 C7 1.65 7 3.3 7 5 C7.66 5 8.32 5 9 5 C9.81520635 7.72838435 10.62724843 10.45764417 11.4375 13.1875 C11.66759766 13.95642578 11.89769531 14.72535156 12.13476562 15.51757812 C13.26235986 19.32525141 14.3168177 23.08151762 15 27 C15.66 27 16.32 27 17 27 C17 28.65 17 30.3 17 32 C17.66 32 18.32 32 19 32 C19 33.32 19 34.64 19 36 C16.625 35.6875 16.625 35.6875 14 35 C12 32 12 32 12 25 C6.39 25 0.78 25 -5 25 C-5.33 25.66 -5.66 26.32 -6 27 C-6.1875 24.625 -6.1875 24.625 -6 22 C-5.01 21.34 -4.02 20.68 -3 20 C-3 20.66 -3 21.32 -3 22 C0.96 22 4.92 22 9 22 C9 20.35 9 18.7 9 17 C8.34 17 7.68 17 7 17 C6.34 13.7 5.68 10.4 5 7 C3.35 7.33 1.7 7.66 0 8 C0 5.36 0 2.72 0 0 Z " fill="#626262" transform="translate(440,223)"/>
<path d="M0 0 C1.98 0 3.96 0 6 0 C7.17076699 3.98060777 8.25749403 7.91621717 9 12 C9.66 12 10.32 12 11 12 C11.33 14.31 11.66 16.62 12 19 C11.34 19 10.68 19 10 19 C9.67 19.99 9.34 20.98 9 22 C5.04 22 1.08 22 -3 22 C-3 20.35 -3 18.7 -3 17 C-2.34 17 -1.68 17 -1 17 C-1 14.36 -1 11.72 -1 9 C-1.99 9.495 -1.99 9.495 -3 10 C-3 8.35 -3 6.7 -3 5 C-2.34 5 -1.68 5 -1 5 C-0.67 3.35 -0.34 1.7 0 0 Z " fill="#767676" transform="translate(799,223)"/>
<path d="M0 0 C0.66 0 1.32 0 2 0 C2 32.67 2 65.34 2 99 C1.34 99 0.68 99 0 99 C-0.15363592 86.38737771 -0.30181774 73.77470442 -0.4429636 61.16193581 C-0.50867047 55.30583809 -0.5762828 49.44977509 -0.64819336 43.59375 C-0.71747292 37.94634737 -0.78182102 32.29890842 -0.84269524 26.65140915 C-0.86684081 24.49274008 -0.89278786 22.33409042 -0.92053413 20.17546463 C-0.9589813 17.16078986 -0.99112325 14.14611077 -1.02172852 11.13134766 C-1.03467453 10.23151657 -1.04762054 9.33168549 -1.06095886 8.40458679 C-1.11405216 2.22810432 -1.11405216 2.22810432 0 0 Z " fill="#656565" transform="translate(482,72)"/>
<path d="M0 0 C0 0.66 0 1.32 0 2 C-23.43 2 -46.86 2 -71 2 C-71 8.93 -71 15.86 -71 23 C-60.44 23 -49.88 23 -39 23 C-39 23.66 -39 24.32 -39 25 C-50.22 25 -61.44 25 -73 25 C-73 17.08 -73 9.16 -73 1 C-63.77729308 0.86946707 -54.55458451 0.73905264 -45.33187294 0.60884857 C-41.04969809 0.54838906 -36.76752399 0.487877 -32.48535156 0.42724609 C-28.35512843 0.36876854 -24.22490339 0.31042738 -20.09467697 0.25218201 C-18.51657416 0.22990304 -16.93847204 0.20757439 -15.36037064 0.18519592 C-13.15512521 0.15393254 -10.94987739 0.12284362 -8.74462891 0.09179688 C-7.48776276 0.07403198 -6.23089661 0.05626709 -4.9359436 0.03796387 C-3.29071794 0.01668991 -1.6453632 0 0 0 Z " fill="#ADADAD" transform="translate(570,99)"/>
<path d="M0 0 C0.66 0 1.32 0 2 0 C2 27.06 2 54.12 2 82 C0.35 81.67 -1.3 81.34 -3 81 C-3 80.34 -3 79.68 -3 79 C-2.34 79 -1.68 79 -1 79 C-0.67 52.93 -0.34 26.86 0 0 Z " fill="#9D9D9D" transform="translate(930,50)"/>
<path d="M0 0 C1.98 0 3.96 0 6 0 C6 0.66 6 1.32 6 2 C4.68 2 3.36 2 2 2 C2 28.07 2 54.14 2 81 C1.34 81 0.68 81 0 81 C0 54.27 0 27.54 0 0 Z " fill="#656565" transform="translate(846,90)"/>
<path d="M0 0 C21.45 0 42.9 0 65 0 C60.97867494 2.01066253 59.4623673 2.24556567 55.12988281 2.22705078 C53.35849945 2.22682419 53.35849945 2.22682419 51.55133057 2.22659302 C49.64646881 2.21110916 49.64646881 2.21110916 47.703125 2.1953125 C46.39921814 2.1924826 45.09531128 2.18965271 43.75189209 2.18673706 C40.2929105 2.17911721 36.83409807 2.15948308 33.37518311 2.1373291 C29.84259326 2.11683503 26.30997597 2.10772774 22.77734375 2.09765625 C15.8514862 2.07623546 8.92576864 2.04106686 2 2 C2 8.27 2 14.54 2 21 C1.34 21 0.68 21 0 21 C0 14.07 0 7.14 0 0 Z " fill="#636363" transform="translate(499,101)"/>
<path d="M0 0 C1.32 0 2.64 0 4 0 C4 0.66 4 1.32 4 2 C3.34 2 2.68 2 2 2 C2 27.41 2 52.82 2 79 C1.34 79 0.68 79 0 79 C0 52.93 0 26.86 0 0 Z " fill="#BFBFBF" transform="translate(848,92)"/>
<path d="M0 0 C0.33 0 0.66 0 1 0 C1.3125 2.75 1.3125 2.75 1 6 C-0.62935241 7.37868281 -2.29749607 8.71274093 -4 10 C-4.33 11.65 -4.66 13.3 -5 15 C11.5 15 28 15 45 15 C45 15.66 45 16.32 45 17 C27.18 17 9.36 17 -9 17 C-8.67 15.35 -8.34 13.7 -8 12 C-7.34 12 -6.68 12 -6 12 C-5.896875 11.46375 -5.79375 10.9275 -5.6875 10.375 C-4.81907303 7.37497956 -3.44379704 4.7620465 -2 2 C-1.34 2 -0.68 2 0 2 C0 1.34 0 0.68 0 0 Z " fill="#979797" transform="translate(696,134)"/>
<path d="M0 0 C1.65 0 3.3 0 5 0 C5 12.21 5 24.42 5 37 C3.35 37 1.7 37 0 37 C0 31.06 0 25.12 0 19 C0.66 19 1.32 19 2 19 C2 17.68 2 16.36 2 15 C1.34 15 0.68 15 0 15 C0 10.05 0 5.1 0 0 Z " fill="#727272" transform="translate(499,223)"/>
<path d="M0 0 C4.95 0 9.9 0 15 0 C15.33 0.99 15.66 1.98 16 3 C15.67 3.66 15.34 4.32 15 5 C10.05 5 5.1 5 0 5 C0 5.66 0 6.32 0 7 C-0.65484375 7.35707031 -1.3096875 7.71414062 -1.984375 8.08203125 C-4.3604255 10.34296302 -4.30299052 10.85899749 -4.390625 14.01171875 C-4.36408759 15.57079139 -4.31645599 17.12961831 -4.25 18.6875 C-4.22292969 19.88342773 -4.22292969 19.88342773 -4.1953125 21.10351562 C-4.14822247 23.06952449 -4.07647899 25.03491494 -4 27 C-4.66 27 -5.32 27 -6 27 C-6 21.39 -6 15.78 -6 10 C-6.66 10 -7.32 10 -8 10 C-8.33 10.66 -8.66 11.32 -9 12 C-9 10.35 -9 8.7 -9 7 C-8.34 7 -7.68 7 -7 7 C-6.67 5.68 -6.34 4.36 -6 3 C-4.02 2.67 -2.04 2.34 0 2 C0 1.34 0 0.68 0 0 Z " fill="#666666" transform="translate(397,223)"/>
<path d="M0 0 C0.66 0 1.32 0 2 0 C2 11.55 2 23.1 2 35 C2.99 35 3.98 35 5 35 C5 29.72 5 24.44 5 19 C5.99 19.33 6.98 19.66 8 20 C7.67 25.61 7.34 31.22 7 37 C5.02 37 3.04 37 1 37 C0 36 0 36 -0.11352539 32.58178711 C-0.11336628 31.06363012 -0.10767226 29.54546771 -0.09765625 28.02734375 C-0.0962413 27.22970108 -0.09482635 26.43205841 -0.09336853 25.61024475 C-0.08775316 23.05262565 -0.07519812 20.49509282 -0.0625 17.9375 C-0.05748698 16.20768355 -0.05292373 14.47786574 -0.04882812 12.74804688 C-0.03777875 8.49866447 -0.02050386 4.24934688 0 0 Z " fill="#BFBFBF" transform="translate(746,223)"/>
<path d="M0 0 C1.65 0 3.3 0 5 0 C5 0.99 5 1.98 5 3 C5.66 3 6.32 3 7 3 C7 3.66 7 4.32 7 5 C7.66 5 8.32 5 9 5 C9.33 7.31 9.66 9.62 10 12 C10.99 12 11.98 12 13 12 C13 11.34 13 10.68 13 10 C13.66 10 14.32 10 15 10 C15 9.34 15 8.68 15 8 C15.66 8 16.32 8 17 8 C16.49396008 10.16874252 16.00016187 11.99967627 15 14 C13.35 14 11.7 14 10 14 C10 16.31 10 18.62 10 21 C9.01 21.33 8.02 21.66 7 22 C7 18.7 7 15.4 7 12 C6.34 12 5.68 12 5 12 C3.7109375 10.390625 3.7109375 10.390625 2.375 8.25 C1.92898438 7.55390625 1.48296875 6.8578125 1.0234375 6.140625 C0 4 0 4 0 0 Z " fill="#828282" transform="translate(603,223)"/>
<path d="M0 0 C7.59 0 15.18 0 23 0 C23 0.66 23 1.32 23 2 C19.37 2 15.74 2 12 2 C12 12.56 12 23.12 12 34 C11.34 34 10.68 34 10 34 C10 23.44 10 12.88 10 2 C6.7 2 3.4 2 0 2 C0 1.34 0 0.68 0 0 Z " fill="#505050" transform="translate(524,224)"/>
<path d="M0 0 C2.31 0 4.62 0 7 0 C7 11.88 7 23.76 7 36 C5.35 35.67 3.7 35.34 2 35 C2 26.75 2 18.5 2 10 C1.34 10 0.68 10 0 10 C0 9.34 0 8.68 0 8 C1.32 7.67 2.64 7.34 4 7 C4 16.24 4 25.48 4 35 C4.66 35 5.32 35 6 35 C6 23.78 6 12.56 6 1 C4.02 1.33 2.04 1.66 0 2 C0 1.34 0 0.68 0 0 Z " fill="#919292" transform="translate(719,223)"/>
<path d="M0 0 C12.21 0 24.42 0 37 0 C37 6.27 37 12.54 37 19 C36.34 19 35.68 19 35 19 C35 13.39 35 7.78 35 2 C23.45 2 11.9 2 0 2 C0 1.34 0 0.68 0 0 Z " fill="#959595" transform="translate(192,119)"/>
<path d="M0 0 C0.99 0 1.98 0 3 0 C3 11.55 3 23.1 3 35 C2.01 35 1.02 35 0 35 C0 23.45 0 11.9 0 0 Z " fill="#636363" transform="translate(748,223)"/>
<path d="M0 0 C2.31 0 4.62 0 7 0 C7 1.65 7 3.3 7 5 C7.66 5 8.32 5 9 5 C9.99 8.96 10.98 12.92 12 17 C11.34 17 10.68 17 10 17 C10 18.65 10 20.3 10 22 C9.67 22 9.34 22 9 22 C9 20.35 9 18.7 9 17 C8.34 17 7.68 17 7 17 C6.34 13.7 5.68 10.4 5 7 C3.35 7.33 1.7 7.66 0 8 C0 5.36 0 2.72 0 0 Z " fill="#6C6C6C" transform="translate(440,223)"/>
<path d="M0 0 C0.66 0 1.32 0 2 0 C2 0.66 2 1.32 2 2 C15.86 2.33 29.72 2.66 44 3 C44 3.66 44 4.32 44 5 C29.15 5 14.3 5 -1 5 C-0.67 3.35 -0.34 1.7 0 0 Z " fill="#7F7F7F" transform="translate(322,124)"/>
<path d="M0 0 C0 11.22 0 22.44 0 34 C-0.66 34 -1.32 34 -2 34 C-2 24.76 -2 15.52 -2 6 C-3.32 6.33 -4.64 6.66 -6 7 C-6 7.66 -6 8.32 -6 9 C-6.66 8.67 -7.32 8.34 -8 8 C-7.1875 4.5625 -7.1875 4.5625 -6 1 C-3 0 -3 0 0 0 Z " fill="#656565" transform="translate(725,224)"/>
<path d="M0 0 C0.66 0 1.32 0 2 0 C2 2.31 2 4.62 2 7 C2.66 7 3.32 7 4 7 C4.33 8.65 4.66 10.3 5 12 C5.66 12 6.32 12 7 12 C7 12.66 7 13.32 7 14 C7.66 14 8.32 14 9 14 C9.33 15.98 9.66 17.96 10 20 C6.89347355 19.6641593 5.39585697 19.40950721 3.1875 17.125 C2 15 2 15 2 12 C1.34 12 0.68 12 0 12 C0 11.01 0 10.02 0 9 C-0.66 9 -1.32 9 -2 9 C-2.33 7.68 -2.66 6.36 -3 5 C-2.01 5 -1.02 5 0 5 C0 3.35 0 1.7 0 0 Z " fill="#7B7B7B" transform="translate(618,238)"/>
<path d="M0 0 C5.94 0 11.88 0 18 0 C18 4.95 18 9.9 18 15 C17.67 15 17.34 15 17 15 C17 10.71 17 6.42 17 2 C12.05 2 7.1 2 2 2 C2 7.28 2 12.56 2 18 C-0.31 18 -2.62 18 -5 18 C-5 17.67 -5 17.34 -5 17 C-3.35 17 -1.7 17 0 17 C0 11.39 0 5.78 0 0 Z " fill="#DADADA" transform="translate(652,242)"/>
<path d="M0 0 C0.66 0 1.32 0 2 0 C1.814375 0.928125 1.62875 1.85625 1.4375 2.8125 C0.75876119 6.01343771 0.75876119 6.01343771 2 9 C1.54625 9.4125 1.0925 9.825 0.625 10.25 C-1.05950374 12.06408095 -1.99265971 13.75285627 -3 16 C-3.66 16 -4.32 16 -5 16 C-5.33 17.65 -5.66 19.3 -6 21 C-8 20 -8 20 -9 19 C-9 15.41280123 -8.87802634 13.06890163 -6.5625 10.25 C-5 9 -5 9 -3 9 C-2.67 6.69 -2.34 4.38 -2 2 C-1.34 2 -0.68 2 0 2 C0 1.34 0 0.68 0 0 Z " fill="#7D7C7D" transform="translate(717,226)"/>
<path d="M0 0 C0.66 0 1.32 0 2 0 C2 5.61 2 11.22 2 17 C2.66 17 3.32 17 4 17 C4 17.99 4 18.98 4 20 C2.35 20 0.7 20 -1 20 C-2.32594359 14.03325384 -2.0884587 8.07416385 -2 2 C-1.34 2 -0.68 2 0 2 C0 1.34 0 0.68 0 0 Z " fill="#5A5A5A" transform="translate(389,233)"/>
<path d="M0 0 C0.66 0 1.32 0 2 0 C2 2.31 2 4.62 2 7 C2.66 7 3.32 7 4 7 C4.33 9.64 4.66 12.28 5 15 C3.35 15 1.7 15 0 15 C-0.33 11.7 -0.66 8.4 -1 5 C-5.95 5 -10.9 5 -16 5 C-16 4.67 -16 4.34 -16 4 C-10.72 4 -5.44 4 0 4 C0 2.68 0 1.36 0 0 Z " fill="#747474" transform="translate(811,243)"/>
<path d="M0 0 C0.66 0 1.32 0 2 0 C2 1.32 2 2.64 2 4 C-9.22 4 -20.44 4 -32 4 C-32 3.34 -32 2.68 -32 2 C-21.44 2 -10.88 2 0 2 C0 1.34 0 0.68 0 0 Z " fill="#DDDDDD" transform="translate(613,169)"/>
<path d="M0 0 C0.33 0 0.66 0 1 0 C1 11.55 1 23.1 1 35 C4.465 34.505 4.465 34.505 8 34 C8 34.66 8 35.32 8 36 C5.26752652 37.36623674 3.01801098 37.128426 0 37 C-1.78904586 35.21095414 -1.13225563 32.80430118 -1.13867188 30.42333984 C-1.13416016 29.6442627 -1.12964844 28.86518555 -1.125 28.0625 C-1.12306641 27.2679541 -1.12113281 26.4734082 -1.11914062 25.65478516 C-1.0585703 17.08576656 -0.56584777 8.54834305 0 0 Z " fill="#D4D4D4" transform="translate(696,223)"/>
<path d="M0 0 C0.66 0 1.32 0 2 0 C5.42857143 7.28571429 5.42857143 7.28571429 5 12 C2.36 12 -0.28 12 -3 12 C-3 9.36 -3 6.72 -3 4 C-2.34 4 -1.68 4 -1 4 C-0.67 2.68 -0.34 1.36 0 0 Z " fill="#F6F6F6" transform="translate(801,231)"/>
<path d="M0 0 C1.32 0 2.64 0 4 0 C4.66 3.3 5.32 6.6 6 10 C3.03 10 0.06 10 -3 10 C-2.67 7.36 -2.34 4.72 -2 2 C-1.34 2 -0.68 2 0 2 C0 1.34 0 0.68 0 0 Z " fill="#EAEAEA" transform="translate(442,233)"/>
<path d="M0 0 C0.33 0 0.66 0 1 0 C1 11.22 1 22.44 1 34 C0.67 34 0.34 34 0 34 C0 28.72 0 23.44 0 18 C-3.61328125 17.8046875 -7.2265625 17.609375 -10.83984375 17.4140625 C-11.88269531 17.27742188 -12.92554688 17.14078125 -14 17 C-14.33 16.34 -14.66 15.68 -15 15 C-10.05 14.67 -5.1 14.34 0 14 C0 9.38 0 4.76 0 0 Z " fill="#4F4F4F" transform="translate(672,224)"/>
<path d="M0 0 C0.66 0 1.32 0 2 0 C2 8.25 2 16.5 2 25 C2.66 25 3.32 25 4 25 C4 26.32 4 27.64 4 29 C2.68 29 1.36 29 0 29 C0 19.43 0 9.86 0 0 Z " fill="#9C9C9C" transform="translate(700,223)"/>
<path d="M0 0 C0.33 0 0.66 0 1 0 C1 4.29 1 8.58 1 13 C6.28 13 11.56 13 17 13 C17 13.99 17 14.98 17 16 C11.39 16 5.78 16 0 16 C0 10.72 0 5.44 0 0 Z " fill="#4E4E4E" transform="translate(568,242)"/>
<path d="M0 0 C0 0.66 0 1.32 0 2 C0.66 2.33 1.32 2.66 2 3 C2 3.66 2 4.32 2 5 C1.34515625 5.35707031 0.6903125 5.71414062 0.015625 6.08203125 C-2.3604255 8.34296302 -2.30299052 8.85899749 -2.390625 12.01171875 C-2.36408759 13.57079139 -2.31645599 15.12961831 -2.25 16.6875 C-2.22292969 17.88342773 -2.22292969 17.88342773 -2.1953125 19.10351562 C-2.14822247 21.06952449 -2.07647899 23.03491494 -2 25 C-2.66 25 -3.32 25 -4 25 C-4 19.39 -4 13.78 -4 8 C-4.66 8 -5.32 8 -6 8 C-6.33 8.66 -6.66 9.32 -7 10 C-7 8.35 -7 6.7 -7 5 C-6.34 5 -5.68 5 -5 5 C-4.87625 4.360625 -4.7525 3.72125 -4.625 3.0625 C-4.41875 2.381875 -4.2125 1.70125 -4 1 C-2 0 -2 0 0 0 Z " fill="#7F7F7F" transform="translate(395,225)"/>
<path d="M0 0 C0.66 0 1.32 0 2 0 C2 1.65 2 3.3 2 5 C1.34 5 0.68 5 0 5 C0 5.66 0 6.32 0 7 C13.2 7 26.4 7 40 7 C40 7.33 40 7.66 40 8 C25.81 8 11.62 8 -3 8 C-2.67 6.35 -2.34 4.7 -2 3 C-1.34 3 -0.68 3 0 3 C0 2.01 0 1.02 0 0 Z " fill="#D8D8D8" transform="translate(326,119)"/>
<path d="M0 0 C1.04449911 3.13349732 0.93423645 3.98968256 0 7 C-0.66 7 -1.32 7 -2 7 C-2.4021875 8.1446875 -2.4021875 8.1446875 -2.8125 9.3125 C-3.95795247 11.90483979 -4.76415181 13.30075537 -7 15 C-7.99 15 -8.98 15 -10 15 C-10 13.35 -10 11.7 -10 10 C-8.35 9.67 -6.7 9.34 -5 9 C-4.9175 8.2575 -4.835 7.515 -4.75 6.75 C-3.8603054 3.48778646 -2.51496251 2.19045122 0 0 Z " fill="#585858" transform="translate(709,243)"/>
<path d="M0 0 C-0.33 0.66 -0.66 1.32 -1 2 C-2.32 2 -3.64 2 -5 2 C-5 2.66 -5 3.32 -5 4 C-13.18646731 5.15136362 -21.31509354 5.11414983 -29.5625 5.0625 C-30.96679527 5.05747366 -32.3710923 5.05291276 -33.77539062 5.04882812 C-37.18363903 5.03711593 -40.5917964 5.02071372 -44 5 C-44 4.67 -44 4.34 -44 4 C-43.29504395 3.97494385 -42.59008789 3.9498877 -41.86376953 3.92407227 C-38.61738553 3.80681958 -35.37120183 3.6846885 -32.125 3.5625 C-31.01640625 3.52318359 -29.9078125 3.48386719 -28.765625 3.44335938 C-19.32144649 3.08225843 -8.87130451 -0.49285025 0 0 Z " fill="#BABABA" transform="translate(219,166)"/>
<path d="M0 0 C0.66 0 1.32 0 2 0 C2.33 1.65 2.66 3.3 3 5 C3.66 5 4.32 5 5 5 C5.08728882 8.24983 5.14048658 11.4993575 5.1875 14.75 C5.22520508 16.13058594 5.22520508 16.13058594 5.26367188 17.5390625 C5.27333984 18.42851563 5.28300781 19.31796875 5.29296875 20.234375 C5.3086792 21.05131836 5.32438965 21.86826172 5.34057617 22.70996094 C4.92379459 25.51240627 3.83804852 26.88847021 2 29 C2.01047363 28.44127197 2.02094727 27.88254395 2.03173828 27.30688477 C2.07383379 24.7254707 2.09949343 22.14412924 2.125 19.5625 C2.14175781 18.68400391 2.15851562 17.80550781 2.17578125 16.90039062 C2.21967784 10.95240262 1.48881322 5.7618244 0 0 Z " fill="#C9C9C9" transform="translate(605,72)"/>
<path d="M0 0 C2 2 2 2 2 5 C2.66 5 3.32 5 4 5 C4 6.65 4 8.3 4 10 C4.66 10 5.32 10 6 10 C6 11.32 6 12.64 6 14 C3.625 13.6875 3.625 13.6875 1 13 C-1.30143236 9.54785147 -1.13833854 8.76520676 -0.625 4.8125 C-0.51414062 3.91144531 -0.40328125 3.01039063 -0.2890625 2.08203125 C-0.19367188 1.39496094 -0.09828125 0.70789063 0 0 Z " fill="#747474" transform="translate(453,245)"/>
<path d="M0 0 C0.66 0 1.32 0 2 0 C2.33 2.31 2.66 4.62 3 7 C2.34 7 1.68 7 1 7 C0.67 7.99 0.34 8.98 0 10 C-3.96 10 -7.92 10 -12 10 C-12 8.35 -12 6.7 -12 5 C-11.34 5 -10.68 5 -10 5 C-10 5.99 -10 6.98 -10 8 C-7.36 8 -4.72 8 -2 8 C-2 6.35 -2 4.7 -2 3 C-1.34 3 -0.68 3 0 3 C0 2.01 0 1.02 0 0 Z " fill="#868686" transform="translate(808,235)"/>
<path d="M0 0 C2.45873768 0.14058476 4.91685175 0.28722999 7.375 0.4375 C8.07367188 0.47681641 8.77234375 0.51613281 9.4921875 0.55664062 C14.7734375 0.88671875 14.7734375 0.88671875 17 2 C18.66565749 2.15222973 20.33656496 2.24917215 22.0078125 2.31640625 C22.99394531 2.35830078 23.98007813 2.40019531 24.99609375 2.44335938 C26.54490234 2.50233398 26.54490234 2.50233398 28.125 2.5625 C29.68541016 2.62727539 29.68541016 2.62727539 31.27734375 2.69335938 C33.85142528 2.7996288 36.42560508 2.90166583 39 3 C39 3.33 39 3.66 39 4 C9.00412499 4.45581108 9.00412499 4.45581108 1 2 C0.67 1.34 0.34 0.68 0 0 Z " fill="#7F7F7F" transform="translate(161,166)"/>
<path d="M0 0 C0.66 0 1.32 0 2 0 C2 1.32 2 2.64 2 4 C1.34 4 0.68 4 0 4 C0 5.98 0 7.96 0 10 C-0.66 10 -1.32 10 -2 10 C-2.103125 10.598125 -2.20625 11.19625 -2.3125 11.8125 C-3.09824033 14.31258286 -3.96918853 15.37535082 -6 17 C-6.66 17 -7.32 17 -8 17 C-8 17.99 -8 18.98 -8 20 C-8.66 19.67 -9.32 19.34 -10 19 C-9.67 17.68 -9.34 16.36 -9 15 C-8.34 15 -7.68 15 -7 15 C-7 14.01 -7 13.02 -7 12 C-6.34 12 -5.68 12 -5 12 C-5 11.34 -5 10.68 -5 10 C-4.34 10 -3.68 10 -3 10 C-2.67 7.69 -2.34 5.38 -2 3 C-1.34 3 -0.68 3 0 3 C0 2.01 0 1.02 0 0 Z " fill="#898989" transform="translate(672,92)"/>
<path d="M0 0 C0.33 0 0.66 0 1 0 C1 1.65 1 3.3 1 5 C1.66 5 2.32 5 3 5 C3 5.99 3 6.98 3 8 C2.34 8 1.68 8 1 8 C1 9.32 1 10.64 1 12 C-0.65 12 -2.3 12 -4 12 C-4 10.02 -4 8.04 -4 6 C-3.34 6 -2.68 6 -2 6 C-2 5.01 -2 4.02 -2 3 C-1.34 3 -0.68 3 0 3 C0 2.01 0 1.02 0 0 Z " fill="#868686" transform="translate(790,247)"/>
<path d="M0 0 C0.66 0 1.32 0 2 0 C1.49396008 2.16874252 1.00016187 3.99967627 0 6 C-1.65 6 -3.3 6 -5 6 C-5 8.31 -5 10.62 -5 13 C-5.99 13.33 -6.98 13.66 -8 14 C-8 10.7 -8 7.4 -8 4 C-6.02 4 -4.04 4 -2 4 C-2 3.34 -2 2.68 -2 2 C-1.34 2 -0.68 2 0 2 C0 1.34 0 0.68 0 0 Z " fill="#919191" transform="translate(618,231)"/>
<path d="M0 0 C0.33 0.99 0.66 1.98 1 3 C2.65 2.67 4.3 2.34 6 2 C6 2.99 6 3.98 6 5 C5.01 5 4.02 5 3 5 C3 5.66 3 6.32 3 7 C2.401875 7.268125 1.80375 7.53625 1.1875 7.8125 C-0.97224808 8.98493467 -2.35790256 10.19369282 -4 12 C-4 10.35 -4 8.7 -4 7 C-3.34 7 -2.68 7 -2 7 C-2 5.35 -2 3.7 -2 2 C-1.34 2 -0.68 2 0 2 C0 1.34 0 0.68 0 0 Z " fill="#959595" transform="translate(439,228)"/>
<path d="M0 0 C0.66 0 1.32 0 2 0 C2 5.28 2 10.56 2 16 C2.99 16 3.98 16 5 16 C5 16.66 5 17.32 5 18 C3.35 18 1.7 18 0 18 C0 12.06 0 6.12 0 0 Z " fill="#919191" transform="translate(499,242)"/>
<path d="M0 0 C1.65 0 3.3 0 5 0 C4.67 1.65 4.34 3.3 4 5 C3.34 5 2.68 5 2 5 C1.67 6.32 1.34 7.64 1 9 C0.67 8.34 0.34 7.68 0 7 C-0.99 7 -1.98 7 -3 7 C-1.125 2.25 -1.125 2.25 0 0 Z " fill="#838383" transform="translate(623,223)"/>
<path d="M0 0 C5.61 0 11.22 0 17 0 C17 1.32 17 2.64 17 4 C16.34 4 15.68 4 15 4 C15 3.01 15 2.02 15 1 C10.71 1 6.42 1 2 1 C1.67 2.98 1.34 4.96 1 7 C0.34 7 -0.32 7 -1 7 C-0.67 4.69 -0.34 2.38 0 0 Z " fill="#CCCCCC" transform="translate(435,248)"/>
<path d="M0 0 C5.28 0 10.56 0 16 0 C16 0.66 16 1.32 16 2 C15.09636719 2.06058594 14.19273437 2.12117187 13.26171875 2.18359375 C12.08222656 2.26738281 10.90273438 2.35117188 9.6875 2.4375 C8.51574219 2.51871094 7.34398437 2.59992188 6.13671875 2.68359375 C2.97409042 2.8867371 2.97409042 2.8867371 0 4 C0 2.68 0 1.36 0 0 Z " fill="#4F4F4F" transform="translate(568,224)"/>
<path d="M0 0 C2.31 0 4.62 0 7 0 C7.33 0.99 7.66 1.98 8 3 C8.99 3 9.98 3 11 3 C10.34 4.32 9.68 5.64 9 7 C8.34 7 7.68 7 7 7 C7 6.34 7 5.68 7 5 C5.35 4.67 3.7 4.34 2 4 C2 3.34 2 2.68 2 2 C1.34 2 0.68 2 0 2 C0 1.34 0 0.68 0 0 Z " fill="#6E6E6E" transform="translate(126,149)"/>
<path d="M0 0 C0.66 0 1.32 0 2 0 C2 3.96 2 7.92 2 12 C2.66 12 3.32 12 4 12 C3.67 12.99 3.34 13.98 3 15 C2.01 15 1.02 15 0 15 C0 10.05 0 5.1 0 0 Z " fill="#D2D2D2" transform="translate(752,223)"/>
<path d="M0 0 C1.65 0 3.3 0 5 0 C4.67 2.31 4.34 4.62 4 7 C2.68 7.33 1.36 7.66 0 8 C0 5.36 0 2.72 0 0 Z " fill="#6A6A6A" transform="translate(440,223)"/>
<path d="M0 0 C0.66 0 1.32 0 2 0 C1.67 1.65 1.34 3.3 1 5 C1.99 5 2.98 5 4 5 C4 5.66 4 6.32 4 7 C3.01 7 2.02 7 1 7 C1 8.65 1 10.3 1 12 C0.34 11.01 -0.32 10.02 -1 9 C-1.99 9.495 -1.99 9.495 -3 10 C-3 8.35 -3 6.7 -3 5 C-2.34 5 -1.68 5 -1 5 C-0.67 3.35 -0.34 1.7 0 0 Z " fill="#878787" transform="translate(799,223)"/>
<path d="M0 0 C0.66 0 1.32 0 2 0 C1.67 2.31 1.34 4.62 1 7 C0.01 7.33 -0.98 7.66 -2 8 C-2.165 8.66 -2.33 9.32 -2.5 10 C-2.665 10.66 -2.83 11.32 -3 12 C-3.99 12.33 -4.98 12.66 -6 13 C-5.67 11.35 -5.34 9.7 -5 8 C-4.34 8 -3.68 8 -3 8 C-3 7.01 -3 6.02 -3 5 C-2.34 5 -1.68 5 -1 5 C-0.67 3.35 -0.34 1.7 0 0 Z " fill="#8E8E8E" transform="translate(695,52)"/>
<path d="M0 0 C0.66 0 1.32 0 2 0 C2 0.66 2 1.32 2 2 C2.99 2.33 3.98 2.66 5 3 C5 3.66 5 4.32 5 5 C5.66 5 6.32 5 7 5 C7 5.99 7 6.98 7 8 C5.35 7.67 3.7 7.34 2 7 C2 6.34 2 5.68 2 5 C1.34 5 0.68 5 0 5 C-0.5625 3.0625 -0.5625 3.0625 -1 1 C-0.67 0.67 -0.34 0.34 0 0 Z " fill="#636363" transform="translate(764,250)"/>
<path d="M0 0 C0.66 0 1.32 0 2 0 C2 0.66 2 1.32 2 2 C2.66 2 3.32 2 4 2 C4 2.99 4 3.98 4 5 C3.34 5 2.68 5 2 5 C1.67 5.99 1.34 6.98 1 8 C-0.32 8 -1.64 8 -3 8 C-3 7.01 -3 6.02 -3 5 C-2.34 5 -1.68 5 -1 5 C-0.67 3.35 -0.34 1.7 0 0 Z " fill="#737373" transform="translate(606,250)"/>
<path d="M0 0 C0.99 0.33 1.98 0.66 3 1 C3 1.66 3 2.32 3 3 C3.66 3 4.32 3 5 3 C5.33 4.98 5.66 6.96 6 9 C4.35 8.67 2.7 8.34 1 8 C0.67 5.36 0.34 2.72 0 0 Z " fill="#676767" transform="translate(622,249)"/>
<path d="M0 0 C2 0 2 0 3.625 1.375 C5 3 5 3 5 5 C4.01 5.495 4.01 5.495 3 6 C3 7.32 3 8.64 3 10 C2.01 9.67 1.02 9.34 0 9 C0 7.68 0 6.36 0 5 C-0.66 5 -1.32 5 -2 5 C-2.33 4.01 -2.66 3.02 -3 2 C-2.01 2 -1.02 2 0 2 C0 1.34 0 0.68 0 0 Z " fill="#939393" transform="translate(761,245)"/>
<path d="M0 0 C0 1.98 0 3.96 0 6 C-1.65 6.33 -3.3 6.66 -5 7 C-5 7.66 -5 8.32 -5 9 C-5.66 8.67 -6.32 8.34 -7 8 C-6.1875 4.5625 -6.1875 4.5625 -5 1 C-2 0 -2 0 0 0 Z " fill="#565556" transform="translate(724,224)"/>
<path d="M0 0 C0.66 0 1.32 0 2 0 C2 1.32 2 2.64 2 4 C1.34 4 0.68 4 0 4 C-0.33 4.99 -0.66 5.98 -1 7 C-1.66 7 -2.32 7 -3 7 C-3.33 8.65 -3.66 10.3 -4 12 C-4.99 12 -5.98 12 -7 12 C-7 11.34 -7 10.68 -7 10 C-6.34 10 -5.68 10 -5 10 C-4.67 8.35 -4.34 6.7 -4 5 C-3.34 5 -2.68 5 -2 5 C-2 4.01 -2 3.02 -2 2 C-1.34 2 -0.68 2 0 2 C0 1.34 0 0.68 0 0 Z " fill="#BDBDBD" transform="translate(338,102)"/>
<path d="M0 0 C1.65 0.33 3.3 0.66 5 1 C5 2.32 5 3.64 5 5 C4.4225 5.12375 3.845 5.2475 3.25 5.375 C0.97664233 6.00648824 -0.9253529 6.88858191 -3 8 C-2.67 6.35 -2.34 4.7 -2 3 C-1.34 3 -0.68 3 0 3 C0 2.01 0 1.02 0 0 Z " fill="#C8C8C8" transform="translate(709,79)"/>
<path d="M0 0 C0.66 0 1.32 0 2 0 C2.33 2.97 2.66 5.94 3 9 C2.01 8.67 1.02 8.34 0 8 C0 7.34 0 6.68 0 6 C-3.3 6 -6.6 6 -10 6 C-10 5.67 -10 5.34 -10 5 C-6.7 5 -3.4 5 0 5 C0 3.35 0 1.7 0 0 Z " fill="#515151" transform="translate(450,240)"/>
<path d="M0 0 C1.65 0 3.3 0 5 0 C5 3.3 5 6.6 5 10 C2 7 2 7 0 4 C0 2.68 0 1.36 0 0 Z " fill="#868686" transform="translate(603,223)"/>
<path d="M0 0 C0.66 0 1.32 0 2 0 C1.43768609 3.93619738 0.38314183 6.79192446 -2 10 C-2.99 10 -3.98 10 -5 10 C-4.67 8.35 -4.34 6.7 -4 5 C-3.34 5 -2.68 5 -2 5 C-2 4.34 -2 3.68 -2 3 C-1.34 3 -0.68 3 0 3 C0 2.01 0 1.02 0 0 Z " fill="#8B8B8B" transform="translate(301,109)"/>
<path d="M0 0 C0.33 0 0.66 0 1 0 C0.67 3.3 0.34 6.6 0 10 C-0.99 10 -1.98 10 -3 10 C-3.66 10.66 -4.32 11.32 -5 12 C-5 10.68 -5 9.36 -5 8 C-4.34 8 -3.68 8 -3 8 C-2.87625 7.236875 -2.7525 6.47375 -2.625 5.6875 C-2 3 -2 3 0 0 Z " fill="#6C6C6C" transform="translate(798,230)"/>
<path d="M0 0 C5.23880078 0.55145271 9.97350697 1.42922093 15 3 C15 3.66 15 4.32 15 5 C12.36 5 9.72 5 7 5 C7 4.34 7 3.68 7 3 C4.69 2.67 2.38 2.34 0 2 C0 1.34 0 0.68 0 0 Z " fill="#838383" transform="translate(207,42)"/>
<path d="M0 0 C1.04449911 3.13349732 0.93423645 3.98968256 0 7 C-0.66 7 -1.32 7 -2 7 C-2.33 7.99 -2.66 8.98 -3 10 C-3.66 9.01 -4.32 8.02 -5 7 C-3.98819642 3.22873209 -3.32378142 2.21585428 0 0 Z " fill="#656565" transform="translate(709,243)"/>
<path d="M0 0 C0.33 0 0.66 0 1 0 C1.28571429 7.42857143 1.28571429 7.42857143 -1 11 C-1 10.34 -1 9.68 -1 9 C-2.32 9.33 -3.64 9.66 -5 10 C-5 9.01 -5 8.02 -5 7 C-4.34 7 -3.68 7 -3 7 C-1.79371992 4.66785852 -0.8345262 2.50357861 0 0 Z " fill="#6D6D6D" transform="translate(439,233)"/>
<path d="M0 0 C0.66 0 1.32 0 2 0 C2.33 1.98 2.66 3.96 3 6 C1.68 6 0.36 6 -1 6 C-1 7.32 -1 8.64 -1 10 C-1.66 10 -2.32 10 -3 10 C-3 8.02 -3 6.04 -3 4 C-2.34 4 -1.68 4 -1 4 C-0.67 2.68 -0.34 1.36 0 0 Z " fill="#D5D5D5" transform="translate(801,231)"/>
<path d="M0 0 C0.33 0 0.66 0 1 0 C1.06058594 0.71027344 1.12117188 1.42054688 1.18359375 2.15234375 C1.26738281 3.07144531 1.35117187 3.99054688 1.4375 4.9375 C1.51871094 5.85402344 1.59992188 6.77054688 1.68359375 7.71484375 C1.76044976 9.96159732 1.76044976 9.96159732 3 11 C3.04092937 13.33297433 3.04241723 15.66705225 3 18 C2.34 18 1.68 18 1 18 C-0.32594359 12.03325384 -0.0884587 6.07416385 0 0 Z " fill="#7F7F7F" transform="translate(387,235)"/>
<path d="M0 0 C0.99 0.495 0.99 0.495 2 1 C2 1.66 2 2.32 2 3 C2.99 3 3.98 3 5 3 C5.33 6.3 5.66 9.6 6 13 C3 10 3 10 2.8125 7.3125 C2.874375 6.549375 2.93625 5.78625 3 5 C2.34 5 1.68 5 1 5 C0.67 3.35 0.34 1.7 0 0 Z " fill="#878787" transform="translate(375,111)"/>
<path d="M0 0 C-0.33 1.32 -0.66 2.64 -1 4 C-1.66 4 -2.32 4 -3 4 C-3.103125 4.763125 -3.20625 5.52625 -3.3125 6.3125 C-4.04364039 9.17059424 -4.76951913 10.15742885 -7 12 C-7 7.855837 -6.11865332 4.39831666 -3.5 1.125 C-2 0 -2 0 0 0 Z " fill="#838383" transform="translate(341,50)"/>
<path d="M0 0 C0.66 0 1.32 0 2 0 C3.1577506 3.47325181 3.06866652 6.36067448 3 10 C1.35 10 -0.3 10 -2 10 C-2 9.34 -2 8.68 -2 8 C-1.01 8 -0.02 8 1 8 C0.67 5.36 0.34 2.72 0 0 Z " fill="#BCBCBC" transform="translate(815,250)"/>
<path d="M0 0 C0.598125 0.350625 1.19625 0.70125 1.8125 1.0625 C1.8125 2.3825 1.8125 3.7025 1.8125 5.0625 C-2.9375 3.1875 -2.9375 3.1875 -5.1875 2.0625 C-5.1875 1.4025 -5.1875 0.7425 -5.1875 0.0625 C-2.1875 -0.9375 -2.1875 -0.9375 0 0 Z " fill="#666666" transform="translate(395.1875,252.9375)"/>
<path d="M0 0 C0.99 0.33 1.98 0.66 3 1 C2.34 1 1.68 1 1 1 C0.67 2.65 0.34 4.3 0 6 C-0.66 6 -1.32 6 -2 6 C-2 6.66 -2 7.32 -2 8 C-2.66 8 -3.32 8 -4 8 C-4 6.35 -4 4.7 -4 3 C-3.34 3 -2.68 3 -2 3 C-2 2.34 -2 1.68 -2 1 C-1.34 0.67 -0.68 0.34 0 0 Z " fill="#656565" transform="translate(612,244)"/>
<path d="M0 0 C0.33 0 0.66 0 1 0 C1 2.31 1 4.62 1 7 C-0.65 7.33 -2.3 7.66 -4 8 C-3.67 6.35 -3.34 4.7 -3 3 C-2.34 3 -1.68 3 -1 3 C-0.67 2.01 -0.34 1.02 0 0 Z " fill="#8C8C8C" transform="translate(683,74)"/>
<path d="M0 0 C3.63 0 7.26 0 11 0 C11 0.66 11 1.32 11 2 C11.66 2 12.32 2 13 2 C13.33 3.65 13.66 5.3 14 7 C13.34 7 12.68 7 12 7 C12 6.34 12 5.68 12 5 C11.34 5 10.68 5 10 5 C9.67 4.01 9.34 3.02 9 2 C6.03 1.67 3.06 1.34 0 1 C0 0.67 0 0.34 0 0 Z " fill="#828282" transform="translate(359,50)"/>
<path d="M0 0 C2.475 0.495 2.475 0.495 5 1 C5 2.32 5 3.64 5 5 C5.66 5 6.32 5 7 5 C7.33 6.32 7.66 7.64 8 9 C6 9 6 9 4.375 7.75 C3 6 3 6 3 2 C2.01 2 1.02 2 0 2 C0 1.34 0 0.68 0 0 Z " fill="#909090" transform="translate(882,122)"/>
<path d="M0 0 C0.66 0 1.32 0 2 0 C2.74926071 3.66305234 3.2380014 6.42355152 2 10 C1.34 10 0.68 10 0 10 C-1.125 3.375 -1.125 3.375 0 0 Z " fill="#6E6E6E" transform="translate(304,104)"/>
<path d="M0 0 C0.66 0 1.32 0 2 0 C2 0.99 2 1.98 2 3 C2.99 3 3.98 3 5 3 C5 3.66 5 4.32 5 5 C5.99 5.33 6.98 5.66 8 6 C7.67 6.66 7.34 7.32 7 8 C4.69 7.01 2.38 6.02 0 5 C0 3.35 0 1.7 0 0 Z " fill="#7F7F7F" transform="translate(865,69)"/>
<path d="M0 0 C0.33 0.66 0.66 1.32 1 2 C3.02463255 2.65213292 3.02463255 2.65213292 5 3 C5.66 5.31 6.32 7.62 7 10 C6.01 9.67 5.02 9.34 4 9 C4 7.68 4 6.36 4 5 C2.68 4.67 1.36 4.34 0 4 C0 2.68 0 1.36 0 0 Z " fill="#A7A7A7" transform="translate(720,92)"/>
<path d="M0 0 C0.66 0 1.32 0 2 0 C2 1.65 2 3.3 2 5 C2.66 5 3.32 5 4 5 C3.67 6.32 3.34 7.64 3 9 C1.68 8.34 0.36 7.68 -1 7 C-0.67 4.69 -0.34 2.38 0 0 Z " fill="#7C7C7C" transform="translate(445,223)"/>
<path d="M0 0 C2.31 0 4.62 0 7 0 C7 0.66 7 1.32 7 2 C6.34 2 5.68 2 5 2 C4.67 3.65 4.34 5.3 4 7 C3.34 7 2.68 7 2 7 C2.33 5.35 2.66 3.7 3 2 C2.01 2 1.02 2 0 2 C0 1.34 0 0.68 0 0 Z " fill="#9D9D9D" transform="translate(766,223)"/>
<path d="M0 0 C0.33 0 0.66 0 1 0 C1.3125 2.1875 1.3125 2.1875 1 5 C-1.5 7.8125 -1.5 7.8125 -4 10 C-3.67 7.69 -3.34 5.38 -3 3 C-2.34 3 -1.68 3 -1 3 C-0.67 2.01 -0.34 1.02 0 0 Z " fill="#888888" transform="translate(641,148)"/>
<path d="M0 0 C1.32 0.33 2.64 0.66 4 1 C4.33 3.97 4.66 6.94 5 10 C4.34 10 3.68 10 3 10 C2.67 7.69 2.34 5.38 2 3 C1.34 3 0.68 3 0 3 C0 2.01 0 1.02 0 0 Z " fill="#828282" transform="translate(368,99)"/>
<path d="M0 0 C0.66 0 1.32 0 2 0 C3.29243536 4.1196377 4.26252625 7.66831683 4 12 C1.15119698 7.72679547 -0.28990619 5.21831143 0 0 Z " fill="#C2C2C2" transform="translate(452,238)"/>
<path d="M0 0 C0.66 0 1.32 0 2 0 C2 1.98 2 3.96 2 6 C1.34 6 0.68 6 0 6 C0 6.99 0 7.98 0 9 C-0.66 9 -1.32 9 -2 9 C-2.33 7.68 -2.66 6.36 -3 5 C-2.01 5 -1.02 5 0 5 C0 3.35 0 1.7 0 0 Z " fill="#8A8A8A" transform="translate(618,238)"/>
<path d="M0 0 C0.99 0 1.98 0 3 0 C2.67 1.65 2.34 3.3 2 5 C1.34 5 0.68 5 0 5 C0 5.99 0 6.98 0 8 C-1.32 7.67 -2.64 7.34 -4 7 C-3.34 7 -2.68 7 -2 7 C-1.34 4.69 -0.68 2.38 0 0 Z " fill="#5E5E5E" transform="translate(620,230)"/>
<path d="M0 0 C2.64 0 5.28 0 8 0 C8.66 1.65 9.32 3.3 10 5 C6.7 4.01 3.4 3.02 0 2 C0 1.34 0 0.68 0 0 Z " fill="#838383" transform="translate(536,124)"/>
<path d="M0 0 C3.3 0 6.6 0 10 0 C9.67 0.66 9.34 1.32 9 2 C6.67843403 2.40729228 4.3431213 2.74438677 2 3 C2 3.66 2 4.32 2 5 C1.34 5 0.68 5 0 5 C0 3.35 0 1.7 0 0 Z " fill="#6D6D6D" transform="translate(153,67)"/>
<path d="M0 0 C0.66 0 1.32 0 2 0 C2 0.99 2 1.98 2 3 C3.65 3.33 5.3 3.66 7 4 C7 4.99 7 5.98 7 7 C6.34 7 5.68 7 5 7 C5 6.34 5 5.68 5 5 C3.35 4.67 1.7 4.34 0 4 C0 2.68 0 1.36 0 0 Z " fill="#9A9A9A" transform="translate(853,57)"/>
<path d="M0 0 C0.66 0 1.32 0 2 0 C2 1.65 2 3.3 2 5 C-0.31 4.67 -2.62 4.34 -5 4 C-5 3.34 -5 2.68 -5 2 C-2.525 2.495 -2.525 2.495 0 3 C0 2.01 0 1.02 0 0 Z " fill="#B6B6B6" transform="translate(628,255)"/>
<path d="M0 0 C0.66 0 1.32 0 2 0 C3.125 6.75 3.125 6.75 2 9 C1.34 9 0.68 9 0 9 C0 6.03 0 3.06 0 0 Z " fill="#6D6D6D" transform="translate(791,243)"/>
<path d="M0 0 C0.99 0.33 1.98 0.66 3 1 C3 3.31 3 5.62 3 8 C2.34 8 1.68 8 1 8 C0.67 5.36 0.34 2.72 0 0 Z " fill="#656565" transform="translate(805,230)"/>
<path d="M0 0 C0.66 0 1.32 0 2 0 C1.44271087 3.34373475 0.64826111 6.03312999 -1 9 C-1.66 9 -2.32 9 -3 9 C-2.67 7.02 -2.34 5.04 -2 3 C-1.34 3 -0.68 3 0 3 C0 2.01 0 1.02 0 0 Z " fill="#C1C1C1" transform="translate(692,109)"/>
<path d="M0 0 C0.33 0 0.66 0 1 0 C1.3125 2.75 1.3125 2.75 1 6 C-1.5 8.375 -1.5 8.375 -4 10 C-3.67 8.35 -3.34 6.7 -3 5 C-2.34 5 -1.68 5 -1 5 C-0.67 3.35 -0.34 1.7 0 0 Z " fill="#888888" transform="translate(678,82)"/>
<path d="M0 0 C0.66 0 1.32 0 2 0 C2.66 1.32 3.32 2.64 4 4 C3.34 4 2.68 4 2 4 C2 4.99 2 5.98 2 7 C1.34 7 0.68 7 0 7 C-1.125 2.25 -1.125 2.25 0 0 Z " fill="#7E7E7E" transform="translate(759,231)"/>
<path d="M0 0 C0.99 0 1.98 0 3 0 C3.66 0.99 4.32 1.98 5 3 C4.67 3.99 4.34 4.98 4 6 C2.68 5.67 1.36 5.34 0 5 C0 3.35 0 1.7 0 0 Z " fill="#6D6D6D" transform="translate(608,230)"/>
<path d="M0 0 C1.32 0 2.64 0 4 0 C4 0.66 4 1.32 4 2 C4.99 2.33 5.98 2.66 7 3 C7 3.66 7 4.32 7 5 C5.35 4.67 3.7 4.34 2 4 C2 3.34 2 2.68 2 2 C1.34 2 0.68 2 0 2 C0 1.34 0 0.68 0 0 Z " fill="#878787" transform="translate(754,154)"/>
<path d="M0 0 C0.66 0 1.32 0 2 0 C1.75 2.375 1.75 2.375 1 5 C-1.0625 6.3125 -1.0625 6.3125 -3 7 C-1.125 2.25 -1.125 2.25 0 0 Z " fill="#757575" transform="translate(645,141)"/>
<path d="M0 0 C0.66 0 1.32 0 2 0 C1.34 2.31 0.68 4.62 0 7 C-0.99 7 -1.98 7 -3 7 C-1.125 1.125 -1.125 1.125 0 0 Z " fill="#919191" transform="translate(287,131)"/>
<path d="M0 0 C0.66 0 1.32 0 2 0 C2 1.32 2 2.64 2 4 C1.34 4 0.68 4 0 4 C-0.33 4.99 -0.66 5.98 -1 7 C-1.66 7 -2.32 7 -3 7 C-2.67 5.35 -2.34 3.7 -2 2 C-1.34 2 -0.68 2 0 2 C0 1.34 0 0.68 0 0 Z " fill="#9F9F9F" transform="translate(655,122)"/>
<path d="M0 0 C0.33 0.99 0.66 1.98 1 3 C1.66 3 2.32 3 3 3 C3 5.31 3 7.62 3 10 C2.34 10 1.68 10 1 10 C0.67 6.7 0.34 3.4 0 0 Z " fill="#7C7C7C" transform="translate(105,116)"/>
<path d="M0 0 C0 0.66 0 1.32 0 2 C-0.99 2 -1.98 2 -3 2 C-3 2.66 -3 3.32 -3 4 C-4.65 4.33 -6.3 4.66 -8 5 C-7.67 3.68 -7.34 2.36 -7 1 C-2.25 0 -2.25 0 0 0 Z " fill="#949494" transform="translate(593,114)"/>
<path d="M0 0 C0.66 0 1.32 0 2 0 C2 0.66 2 1.32 2 2 C2.66 2 3.32 2 4 2 C4.33 3.65 4.66 5.3 5 7 C4.01 6.67 3.02 6.34 2 6 C2 5.34 2 4.68 2 4 C1.34 4 0.68 4 0 4 C0 2.68 0 1.36 0 0 Z " fill="#939393" transform="translate(729,55)"/>
<path d="M0 0 C0.33 0 0.66 0 1 0 C0.67 2.64 0.34 5.28 0 8 C-0.99 8 -1.98 8 -3 8 C-2.37240135 5.07120629 -1.41377341 2.63904371 0 0 Z " fill="#595959" transform="translate(432,250)"/>
<path d="M0 0 C2.1519437 3.22791555 2.20086443 4.28400809 2 8 C2.66 8 3.32 8 4 8 C4 8.99 4 9.98 4 11 C3.01 11 2.02 11 1 11 C0.67 7.37 0.34 3.74 0 0 Z " fill="#505050" transform="translate(389,242)"/>
<path d="M0 0 C0.66 0 1.32 0 2 0 C2 0.99 2 1.98 2 3 C4.64 3 7.28 3 10 3 C10 3.33 10 3.66 10 4 C6.7 4.33 3.4 4.66 0 5 C0 3.35 0 1.7 0 0 Z " fill="#9C9C9C" transform="translate(796,240)"/>
<path d="M0 0 C1.485 0.99 1.485 0.99 3 2 C3.1875 5.125 3.1875 5.125 3 8 C2.01 8.33 1.02 8.66 0 9 C0 6.03 0 3.06 0 0 Z " fill="#B0B0B0" transform="translate(610,236)"/>
<path d="M0 0 C0.66 0 1.32 0 2 0 C2 1.32 2 2.64 2 4 C1.34 4 0.68 4 0 4 C-0.33 4.99 -0.66 5.98 -1 7 C-1.66 7 -2.32 7 -3 7 C-1.125 2.25 -1.125 2.25 0 0 Z " fill="#878787" transform="translate(660,114)"/>
<path d="M0 0 C0.66 0 1.32 0 2 0 C5 4.38461538 5 4.38461538 5 7 C3.68 6.67 2.36 6.34 1 6 C0.67 4.02 0.34 2.04 0 0 Z " fill="#909090" transform="translate(395,97)"/>
<path d="M0 0 C0.66 0 1.32 0 2 0 C2 1.65 2 3.3 2 5 C1.01 5 0.02 5 -1 5 C-1 5.66 -1 6.32 -1 7 C-1.66 7 -2.32 7 -3 7 C-2.67 5.68 -2.34 4.36 -2 3 C-1.34 3 -0.68 3 0 3 C0 2.01 0 1.02 0 0 Z " fill="#848484" transform="translate(331,62)"/>
<path d="M0 0 C0.66 0 1.32 0 2 0 C2 0.66 2 1.32 2 2 C3.65 1.67 5.3 1.34 7 1 C7 1.66 7 2.32 7 3 C4.69 3.33 2.38 3.66 0 4 C0 2.68 0 1.36 0 0 Z " fill="#C0C0C0" transform="translate(601,256)"/>
<path d="M0 0 C0.66 0 1.32 0 2 0 C1.67 1.65 1.34 3.3 1 5 C0.34 5 -0.32 5 -1 5 C-1 5.66 -1 6.32 -1 7 C-1.66 7 -2.32 7 -3 7 C-2.38722388 4.03824877 -1.74627478 2.61941217 0 0 Z " fill="#979797" transform="translate(344,92)"/>
<path d="M0 0 C0.66 0 1.32 0 2 0 C2 1.32 2 2.64 2 4 C1.01 4 0.02 4 -1 4 C-1 4.99 -1 5.98 -1 7 C-1.66 7 -2.32 7 -3 7 C-2.67 5.35 -2.34 3.7 -2 2 C-1.34 2 -0.68 2 0 2 C0 1.34 0 0.68 0 0 Z " fill="#969696" transform="translate(111,75)"/>
<path d="M0 0 C2.475 0.495 2.475 0.495 5 1 C5 1.99 5 2.98 5 4 C3.35 4 1.7 4 0 4 C0 2.68 0 1.36 0 0 Z " fill="#989898" transform="translate(353,78)"/>
</svg>
