<?xml version="1.0" encoding="UTF-8"?>
<!DOCTYPE svg PUBLIC "-//W3C//DTD SVG 1.1//EN" "http://www.w3.org/Graphics/SVG/1.1/DTD/svg11.dtd">
<!-- Creator: CorelDRAW -->
<svg xmlns="http://www.w3.org/2000/svg" xml:space="preserve" width="353.895mm" height="75.2258mm" version="1.1" style="shape-rendering:geometricPrecision; text-rendering:geometricPrecision; image-rendering:optimizeQuality; fill-rule:evenodd; clip-rule:evenodd"
viewBox="0 0 39868.06 8474.57"
 xmlns:xlink="http://www.w3.org/1999/xlink"
 xmlns:xodm="http://www.corel.com/coreldraw/odm/2003">
 <defs>
  <style type="text/css">
   <![CDATA[
    .fil1 {fill:none}
    .fil0 {fill:#3E4095;fill-rule:nonzero}
   ]]>
  </style>
 </defs>
 <g id="Слой_x0020_1">
  <metadata id="CorelCorpID_0Corel-Layer"/>
  <path class="fil0" d="M10151.17 5145.41c215.98,-268.89 323.98,-635.21 323.98,-1098.95 0,-463.74 -108,-830.08 -323.98,-1098.96 -215.98,-268.89 -511.74,-403.32 -887.12,-403.32 -375.42,0 -671.12,134.43 -887.1,403.32 -216.03,268.89 -324.02,635.22 -324.02,1098.96 0,463.74 107.99,830.07 324.02,1098.95 434.27,540.64 1339.94,540.67 1774.23,0zm-887.12 606.33c-436.84,0 -815.59,-69.1 -1136.25,-207.31 -320.66,-138.21 -566.96,-335.49 -738.9,-591.82 -171.95,-256.36 -257.95,-558.43 -257.95,-906.15 0,-347.74 86,-649.81 257.95,-906.15 171.95,-256.34 418.24,-453.63 738.9,-591.82 320.66,-138.21 699.41,-207.31 1136.25,-207.31 436.82,0 815.58,69.1 1136.24,207.31 320.66,138.19 566.96,335.49 738.89,591.82 171.96,256.35 257.95,558.41 257.95,906.15l0 3061.24c0,37.55 -20.17,69.72 -53.97,86.07l-690.71 334.09c-30.5,14.76 -63.73,12.93 -92.43,-5.07 -28.7,-17.99 -44.81,-47.11 -44.81,-80.99l0 -1801.68c0,-33 -15.2,-61.36 -42.69,-79.62 -27.49,-18.27 -59.53,-21.3 -89.96,-8.52 -316.86,133.18 -689.72,199.76 -1118.51,199.76zm17609.39 0c-698.9,0 -1183.11,-129.51 -1452.59,-388.54 -269.49,-259.02 -404.22,-603.57 -404.22,-1033.71l0 -1825.83c0,-52.65 42.96,-95.6 95.61,-95.6l695.46 0c52.65,0 95.61,42.94 95.61,95.6l0 1934.15c0,310.82 67.8,558.85 203.42,744.09 135.59,185.23 391.17,277.86 766.7,277.86 361.65,0 612.87,-89.49 753.71,-268.43 140.81,-178.98 211.22,-430.14 211.22,-753.52l0 -1934.15c0,-52.65 42.96,-95.6 95.61,-95.6l695.46 0c52.65,0 95.61,42.94 95.61,95.6l0 1825.83c0,430.14 -133.87,774.7 -401.62,1033.71 -267.75,259.03 -751.06,388.54 -1449.99,388.54zm-12615.87 0c-698.91,0 -1183.11,-129.51 -1452.59,-388.54 -269.49,-259.02 -404.22,-603.57 -404.22,-1033.71l0 -1825.83c0,-52.65 42.94,-95.6 95.61,-95.6l695.46 0c52.65,0 95.6,42.94 95.6,95.6l0 1990.82c0,310.78 67.81,558.84 203.42,744.08 135.6,185.22 391.18,277.86 766.71,277.86 361.63,0 612.89,-89.48 753.71,-268.43 140.81,-178.95 211.22,-430.15 211.22,-753.5l0 -1990.82c0,-52.65 42.96,-95.6 95.61,-95.6l695.46 0c52.65,0 95.61,42.94 95.61,95.6l0 1825.83c0,430.14 -133.88,774.7 -401.62,1033.71 -267.75,259.03 -751.06,388.54 -1449.99,388.54zm-11009.88 -1792.57c1072.18,-34.13 1833.92,605.5 2397.74,1674.69 16.97,32.19 48.17,51.01 84.56,51.01l726.04 0c35.04,0 65.13,-17.33 82.7,-47.63 17.59,-30.3 17.69,-65.01 0.3,-95.43l-2512.35 -4394.31c-76.54,-133.88 -208.91,-210.68 -363.13,-210.68l-63.17 0c-162.3,0 -301.36,85.89 -374.03,231.01l-2189.54 4372.46c-15.56,31.08 -13.7,65.4 5.13,94.61 18.84,29.21 49.32,45.07 84.05,43.73l391.19 -15.11c36.41,-1.41 66.91,-21.47 82.6,-54.37l1864.81 -3910.16c330.38,596.54 722.12,1299.37 1066.12,1919.55 19.26,34.74 15.76,75.46 -9.17,106.39 -24.94,30.92 -64,42.99 -102.03,31.51 -527.19,-158.95 -1037.97,-53.13 -1227.24,26.99 -75.19,43.41 -45.54,175.73 55.42,175.73zm19625.92 790.71l4 -3710.15c0.03,-34.38 -16.56,-63.92 -45.93,-81.79 -29.38,-17.87 -63.24,-19 -93.75,-3.15l-680.89 353.65c-32.49,16.88 -51.55,48.24 -51.55,84.85l0 3172.92c0,605.84 611.74,1185.53 1215.42,1185.53l1214.89 0c52.65,0 95.6,-42.96 95.6,-95.61l0 -43.3c0,-26.56 -9.55,-49.43 -28.49,-68.08 -18.91,-18.66 -41.91,-27.9 -68.47,-27.53 -604.88,8.74 -1561.76,70.11 -1560.84,-767.33zm7956.86 905.48l1014.06 -1059.53c36.39,-38.02 97.05,-39.37 135.11,-3.02l1115.39 1065.58c18.49,17.65 40.48,26.47 66.04,26.47l415.29 0c39.89,0 73.92,-23.04 88.74,-60.07 14.84,-37.03 6.11,-77.19 -22.76,-104.72l-1331.84 -1270.24c-19.08,-18.19 -29.01,-40.68 -29.59,-67.04 -0.59,-26.36 8.31,-49.26 26.56,-68.3l1480.6 -1544.68c27.07,-28.25 34.27,-67.67 18.91,-103.68 -15.37,-36 -48.81,-58.1 -87.95,-58.1l-1008.05 0c-27.41,0 -51,10.22 -69.76,30.23l-994.69 1061.27c-18.07,19.26 -40.51,29.4 -66.91,30.18 -26.41,0.79 -49.41,-7.98 -68.58,-26.14l-1129.51 -1069.34c-18.45,-17.47 -40.33,-26.19 -65.73,-26.19l-384.56 0c-39.88,0 -73.91,23.03 -88.75,60.03 -14.84,37.03 -6.13,77.17 22.71,104.71l1319.96 1261.04c38,36.3 39.49,96.84 3.31,134.95l-1475.34 1554.67c-26.89,28.32 -33.91,67.68 -18.5,103.55 15.42,35.89 48.79,57.87 87.85,57.87l978.92 0c27.06,0 50.36,-9.96 69.07,-29.5zm6787.12 -371.51c166.35,-74.49 223.5,43.5 64.78,155.75 -839.16,593.5 -2366.22,442.86 -3028.01,-476.98 -182.81,-254.1 -274.23,-555.03 -274.23,-902.76 0,-352.23 91.42,-657.61 274.23,-916.2 182.86,-258.58 444.2,-456.97 784.11,-595.17 339.86,-138.21 741.59,-207.31 1205.08,-207.31 715.84,0 1261.74,147.13 1637.66,441.35 346.26,271.01 533.02,655.49 560.38,1153.36 1.49,27.21 -7.3,51.18 -26.03,70.97 -18.72,19.79 -42.19,29.88 -69.44,29.88l-2110.07 0c-52.67,0 -95.61,-42.94 -95.61,-95.61l0 -17.57c0,-52.65 42.94,-95.61 95.61,-95.61l1136.61 0c28.84,0 53.65,-11.38 72.46,-33.23 18.81,-21.86 26.37,-48.09 22.08,-76.61 -52.29,-347.33 -165.41,-614.35 -339.36,-801.07 -191.9,-205.91 -449.54,-308.91 -772.97,-308.91 -339.88,0 -611.24,105.63 -814.05,316.83 -633.71,659.96 -523.73,2321.91 595.38,2531.56 327.41,61.33 786.01,-40.36 1081.4,-172.67zm-18660.24 264.89c360.15,0 643.86,-134.44 851.05,-403.34 207.21,-268.87 310.83,-635.19 310.83,-1098.94 0,-463.74 -103.62,-830.08 -310.83,-1098.95 -207.2,-268.9 -490.91,-403.33 -851.05,-403.33 -360.14,0 -643.81,134.43 -851.02,403.33 -207.23,268.87 -310.85,635.21 -310.85,1098.95 0,463.74 103.62,830.07 310.85,1098.94 207.21,268.9 490.88,403.34 851.02,403.34zm32.59 203c-425.73,0 -794.88,-69.1 -1107.41,-207.31 -312.52,-138.21 -552.55,-335.49 -720.13,-591.82 -167.6,-256.36 -251.39,-558.43 -251.39,-906.15 0,-347.74 83.79,-649.81 251.39,-906.15 167.57,-256.34 407.61,-453.63 720.13,-591.82 312.53,-138.21 681.68,-207.31 1107.41,-207.31 425.73,0 794.88,69.1 1107.4,207.31 312.53,138.19 552.56,335.49 720.15,591.82 141.25,216.07 222.98,464.62 245.18,745.62l6.21 0 0 160.53 0 1642.34c0,52.65 -42.94,95.61 -95.61,95.61l-741.79 0c-29.21,0 -54.37,-11.72 -73.18,-34.09l-100.6 -119.67c-26.19,-31.16 -66.94,-42.21 -105.28,-28.55 -279.97,99.73 -600.81,149.64 -962.48,149.64z"/>
  <rect class="fil1" x="-0" width="39868.06" height="8474.57"/>
 </g>
</svg>
